<?xml version="1.0" encoding="UTF-8"?>
<svg width="752pt" height="752pt" version="1.1" viewBox="0 0 752 752" xmlns="http://www.w3.org/2000/svg">
 <path fill="#752EEB" d="m346.09 559.57c-13.91 0-26.926-5.418-36.645-15.258l-131.7-131.7c-20.113-20.113-20.129-53.02-0.03125-73.359l131.76-131.75c9.7148-9.7148 22.719-15.066 36.613-15.066 13.883 0 26.934 5.3438 36.746 15.035 20.156 20.41 20.141 53.316 0.03125 73.418l-43.316 43.164h198.13c28.488 0 51.656 23.273 51.656 51.871 0 28.602-23.176 51.871-51.656 51.871l-198.14 0.003906 43.316 43.156c20.133 20.379 20.121 53.285 0.007813 73.398-9.8086 9.8086-22.879 15.219-36.773 15.219zm0-352.34c-9.9453 0-19.23 3.8125-26.152 10.73l-131.73 131.73c-14.355 14.539-14.371 38.086 0 52.465l131.73 131.73c6.9492 7.0312 16.219 10.891 26.152 10.891 9.9453 0 19.285-3.8633 26.312-10.891 14.371-14.379 14.355-37.922-0.03125-52.492l-68.656-68.395h233.96c20.328 0 36.859-16.629 36.859-37.074s-16.531-37.074-36.859-37.074h-233.96l68.691-68.434c14.363-14.363 14.348-37.918-0.042969-52.484-6.957-6.875-16.305-10.699-26.27-10.699z"/>
</svg>
