<svg width="32" height="32" viewBox="0 0 32 32" fill="none" xmlns="http://www.w3.org/2000/svg">
<path d="M27.4813 15.9995C28.5527 14.7521 29.2952 13.5643 29.6872 12.4666C30.1268 11.2364 30.1023 10.1881 29.6142 9.3507C29.4478 9.06565 29.2288 8.8114 28.9621 8.59307V8.5898L28.9588 8.58794C28.9008 8.25018 28.7882 7.93528 28.6224 7.64977C28.1343 6.81237 27.2297 6.267 25.9335 6.02908C24.7773 5.81681 23.3672 5.85927 21.7403 6.15457C21.1848 4.61179 20.5172 3.38112 19.753 2.49566C18.8969 1.50291 17.9678 1 16.9911 1C16.6594 1 16.3277 1.06111 16.0031 1.18008L15.9998 1.17868L15.9965 1.18008C15.6714 1.06111 15.3392 1 15.008 1C14.0313 1 13.1022 1.50291 12.2461 2.49519C11.4819 3.38065 10.8143 4.61133 10.2588 6.15411C8.63142 5.8588 7.22126 5.81635 6.06553 6.02861C4.76939 6.26654 3.86478 6.8119 3.37667 7.6493C3.20988 7.93528 3.09727 8.25205 3.03979 8.59074C2.77218 8.80954 2.55215 9.06426 2.38536 9.3507C1.89725 10.1881 1.87275 11.2364 2.31233 12.4666C2.70433 13.5643 3.44687 14.7521 4.51827 15.9995C3.44687 17.247 2.70433 18.4352 2.31233 19.533C1.87275 20.7632 1.89725 21.8119 2.38536 22.6493C2.55168 22.9339 2.77076 23.1881 3.03744 23.4069V23.4107L3.04073 23.4125C3.09869 23.7503 3.21129 24.0652 3.37714 24.3502C3.86525 25.1876 4.76986 25.733 6.066 25.9714C6.5494 26.06 7.07709 26.1048 7.64624 26.1048C8.43872 26.1048 9.31271 26.0176 10.2593 25.8459C10.8147 27.3887 11.4824 28.6194 12.2466 29.5048C13.1031 30.4971 14.0322 31 15.0085 31C15.3402 31 15.6718 30.9389 15.9969 30.8199L16.0002 30.8213L16.0035 30.8199C16.3282 30.9389 16.6603 31 16.9915 31C17.9682 31 18.8973 30.4971 19.7534 29.5048C20.5176 28.6198 21.1853 27.3887 21.7407 25.8459C22.6873 26.0176 23.5613 26.1048 24.3538 26.1048C24.9229 26.1048 25.4506 26.0605 25.934 25.9714C27.2301 25.733 28.1347 25.1876 28.6229 24.3507C28.7896 24.0652 28.9023 23.7489 28.9602 23.4097C29.2278 23.1905 29.4478 22.9357 29.6146 22.6502C30.1027 21.8128 30.1272 20.7641 29.6877 19.5339C29.2957 18.4362 28.5531 17.2479 27.4817 16.0005L27.4813 15.9995ZM28.9988 9.37309C29.0577 9.44913 29.111 9.52844 29.159 9.61055C29.9812 11.0213 29.1713 13.2877 26.9376 15.8288C26.546 16.2743 26.1126 16.725 25.6494 17.1682C25.4817 17.3286 25.3102 17.4887 25.134 17.6482C25.0167 17.7546 24.8975 17.8605 24.7769 17.9659C24.7165 18.0186 24.6558 18.0713 24.594 18.1241C23.9811 18.6503 23.3248 19.1681 22.6326 19.671L22.627 19.6752C22.5431 19.7364 22.4583 19.797 22.373 19.8576C22.2392 19.9528 22.1035 20.0475 21.9674 20.1418C21.8496 20.2229 21.7313 20.3041 21.6117 20.3843C21.5089 20.4534 21.4053 20.5224 21.3012 20.591C21.0274 20.7711 20.7494 20.9484 20.4686 21.1219C20.2232 21.2735 19.9735 21.4238 19.7233 21.5702C19.6045 21.6398 19.4863 21.7088 19.3676 21.7764C18.9939 21.9901 18.6161 22.1972 18.2439 22.3936C18.1463 22.445 18.0488 22.4958 17.9508 22.5462C17.2662 22.8989 16.5755 23.2269 15.8933 23.524C15.7543 23.5847 15.6158 23.6435 15.4777 23.7013C15.4664 23.706 15.4551 23.7106 15.4443 23.7153C15.3119 23.7703 15.18 23.8245 15.0485 23.8776C15.0315 23.8846 15.0146 23.8912 14.9976 23.8982C14.8695 23.9495 14.7413 23.9999 14.6132 24.0489C14.5934 24.0563 14.5741 24.0638 14.5543 24.0713C14.4275 24.1198 14.3013 24.1669 14.1755 24.2131C14.1557 24.2205 14.1359 24.2275 14.1161 24.235C13.9898 24.2812 13.8636 24.3264 13.7378 24.3703C13.7199 24.3764 13.702 24.3829 13.6836 24.389C13.5559 24.4333 13.4282 24.4767 13.301 24.5186C13.2873 24.5233 13.2737 24.5275 13.26 24.5322C13.1286 24.5756 12.9971 24.618 12.8661 24.6586C12.861 24.66 12.8558 24.6619 12.8511 24.6633C12.721 24.7039 12.5919 24.743 12.4633 24.7808C12.4558 24.7832 12.4487 24.785 12.4412 24.7874C12.4374 24.7743 12.4331 24.7612 12.4294 24.7486C12.4049 24.6679 12.3804 24.5863 12.3563 24.5042C12.3483 24.4767 12.3403 24.4496 12.3323 24.4221C12.3045 24.326 12.2772 24.2289 12.2503 24.1314C12.247 24.1198 12.2442 24.1081 12.2409 24.0964C12.2169 24.0073 12.1929 23.9178 12.1698 23.8273C12.1627 23.8002 12.1556 23.7727 12.1486 23.7456C12.1227 23.6444 12.0972 23.5427 12.0727 23.4405C12.0737 23.4405 12.0751 23.4396 12.0765 23.4396C12.198 23.4013 12.3205 23.3617 12.4435 23.3211C12.4619 23.315 12.4803 23.309 12.4986 23.3029C12.6164 23.2637 12.7352 23.2231 12.8544 23.1821C12.8784 23.1737 12.9024 23.1653 12.9264 23.1569C13.0452 23.1154 13.1648 23.0729 13.2845 23.029C13.3048 23.0216 13.3246 23.0141 13.3448 23.0071C13.4339 22.9745 13.5229 22.9413 13.612 22.9078H13.6124L13.7241 22.8653C14.4756 22.5784 15.2398 22.2528 15.9969 21.8973H15.9974L16.1105 21.8441C16.9567 21.4433 17.8066 20.9997 18.6363 20.5252C19.3077 20.1413 19.9659 19.7373 20.5996 19.3207V19.3267L21.0524 19.0188L21.156 18.9484V18.9475C21.3035 18.8467 21.4496 18.7455 21.5942 18.6428C21.9702 18.3769 22.3368 18.1059 22.692 17.8325V17.8395L23.1391 17.4817C23.1391 17.4817 23.1401 17.4812 23.1405 17.4807L23.2324 17.407C23.2673 17.3786 23.3021 17.3506 23.3365 17.3226C23.4496 17.2307 23.5613 17.1383 23.672 17.0455C24.0098 16.7623 24.3368 16.4758 24.6482 16.1889C24.6482 16.1889 24.6487 16.1889 24.6492 16.1885L24.8555 15.9986L24.8546 15.9977C24.8683 15.9846 24.8824 15.9715 24.8961 15.9585C25.0511 15.812 25.2032 15.6646 25.3512 15.5176C25.3554 15.5134 25.3597 15.5092 25.3639 15.505C25.5938 15.276 25.8143 15.0469 26.0245 14.8188L26.196 14.6322L26.195 14.6312C26.203 14.6224 26.211 14.6135 26.219 14.6051C26.2195 14.6046 26.22 14.6037 26.2205 14.6032C26.228 14.5948 26.2355 14.586 26.2431 14.5776C26.244 14.5766 26.245 14.5757 26.2459 14.5743C26.301 14.5127 26.3557 14.4512 26.4089 14.3896C26.4132 14.3844 26.4174 14.3798 26.4216 14.3746C27.2593 13.4104 27.9058 12.4717 28.3458 11.5797C28.7392 10.7824 28.9569 10.043 28.9974 9.37216L28.9988 9.37309ZM18.9991 22.5798C19.0085 22.5747 19.018 22.5695 19.0269 22.5644C19.0938 22.5275 19.1612 22.4902 19.2281 22.4534C19.262 22.4347 19.2959 22.416 19.3294 22.3969C19.4297 22.3409 19.5296 22.2845 19.6295 22.2271C19.7289 22.1702 19.8279 22.1128 19.9273 22.055C19.9589 22.0363 19.9904 22.0176 20.022 21.999C20.0894 21.9593 20.1567 21.9197 20.2241 21.8795C20.2335 21.8739 20.2434 21.8683 20.2529 21.8623C20.25 21.8786 20.2467 21.8954 20.2439 21.9117C20.2293 21.9929 20.2142 22.0741 20.1991 22.1543C20.1963 22.1683 20.194 22.1818 20.1911 22.1958C20.1864 22.2201 20.1817 22.2439 20.177 22.2682C20.1624 22.3428 20.1478 22.417 20.1332 22.4907C20.1266 22.5243 20.1195 22.5579 20.1129 22.591C20.0974 22.6675 20.0809 22.7435 20.0649 22.8196C20.0625 22.8298 20.0606 22.8406 20.0583 22.8508C20.0536 22.8718 20.0493 22.8928 20.0446 22.9138C20.0432 22.9199 20.0418 22.9259 20.0404 22.932C19.6988 22.8242 19.3506 22.7062 18.9982 22.5793L18.9991 22.5798ZM19.924 23.441C19.9197 23.4587 19.9155 23.4764 19.9108 23.4942C19.8981 23.5474 19.8849 23.6001 19.8717 23.6528C19.8656 23.6775 19.859 23.7022 19.8528 23.727C19.8401 23.7759 19.8279 23.8249 19.8152 23.8739C19.8086 23.8996 19.802 23.9248 19.7949 23.9504C19.7822 23.9994 19.769 24.0479 19.7558 24.0964C19.7492 24.1202 19.7431 24.144 19.7365 24.1678C19.7219 24.2201 19.7077 24.2719 19.6927 24.3241C19.687 24.3432 19.6818 24.3628 19.6762 24.382C19.6371 24.5191 19.597 24.6544 19.5555 24.7883C18.6118 24.5112 17.6384 24.165 16.6514 23.7564C16.6575 23.7536 16.6641 23.7503 16.6702 23.7475C16.8035 23.6864 16.9369 23.6243 17.0707 23.5613C17.1032 23.546 17.1357 23.5306 17.1677 23.5152C17.2902 23.4568 17.4127 23.3981 17.5352 23.3379C17.5513 23.33 17.5668 23.3225 17.5828 23.315C17.7166 23.2492 17.8504 23.1821 17.9843 23.1144C18.0177 23.0976 18.0507 23.0804 18.0841 23.0636C18.1845 23.0123 18.2844 22.9609 18.3843 22.9087C18.9054 23.1051 19.4217 23.2842 19.9235 23.4419L19.924 23.441ZM18.3847 9.09131C18.2844 9.0386 18.1836 8.98681 18.0827 8.93503C18.0502 8.9187 18.0182 8.90191 17.9857 8.88558C17.8509 8.817 17.7162 8.74935 17.5809 8.68311C17.5673 8.67658 17.5536 8.67005 17.54 8.66305C17.4792 8.63319 17.4179 8.60333 17.3572 8.57394C17.2931 8.54315 17.229 8.51236 17.1649 8.48204C17.1343 8.46758 17.1032 8.45265 17.0726 8.43819C16.9378 8.37427 16.8031 8.31176 16.6683 8.25018C16.6627 8.24785 16.6575 8.24505 16.6518 8.24271C17.637 7.83451 18.6104 7.48882 19.556 7.21077C19.5758 7.27515 19.5951 7.33953 19.6144 7.40485C19.6168 7.41278 19.6192 7.42071 19.6215 7.42817C19.6399 7.48975 19.6578 7.5518 19.6757 7.61385C19.6828 7.63857 19.6898 7.6633 19.6964 7.68802C19.7096 7.73374 19.7223 7.77993 19.7351 7.82611C19.7431 7.85457 19.7506 7.88349 19.7586 7.91195C19.7704 7.95534 19.7822 7.99872 19.7935 8.04211C19.8015 8.07197 19.809 8.10136 19.817 8.13122C19.8283 8.17507 19.8397 8.21892 19.851 8.26277C19.8585 8.29217 19.866 8.32109 19.8731 8.35048C19.8849 8.39807 19.8967 8.44612 19.9084 8.49417C19.9136 8.51516 19.9188 8.53616 19.924 8.55715C19.417 8.71623 18.9006 8.89538 18.3847 9.09038V9.09131ZM20.0413 9.06705C20.0427 9.07312 20.0441 9.07918 20.0455 9.08525C20.0493 9.10251 20.0531 9.11977 20.0569 9.13657C20.0606 9.15336 20.0639 9.17016 20.0677 9.18695C20.0832 9.25926 20.0988 9.33204 20.1139 9.40528C20.1209 9.44027 20.1285 9.47526 20.1355 9.51071C20.1501 9.58349 20.1647 9.65674 20.1789 9.72998C20.1841 9.7561 20.1892 9.78223 20.194 9.80835C20.1958 9.81862 20.1977 9.82888 20.2001 9.83961C20.2161 9.92405 20.2316 10.0085 20.2472 10.0934C20.25 10.1079 20.2524 10.1223 20.2552 10.1368C20.2458 10.1312 20.2368 10.1261 20.2274 10.1205C20.16 10.0803 20.0927 10.0407 20.0253 10.001C19.9932 9.9819 19.9607 9.96277 19.9287 9.94411C19.8439 9.89466 19.7596 9.84568 19.6747 9.79716C19.6606 9.78876 19.646 9.78036 19.6319 9.77243C19.532 9.71552 19.4321 9.65907 19.3317 9.60262C19.2964 9.58302 19.2611 9.56343 19.2253 9.54384C19.1607 9.50792 19.0962 9.47199 19.0316 9.43654C19.0213 9.43094 19.0109 9.42487 19.0005 9.41928C19.3501 9.29332 19.6988 9.17575 20.0427 9.06705H20.0413ZM18.2443 9.60588C18.3616 9.66793 18.4794 9.73091 18.5977 9.79482C18.8549 9.93385 19.1127 10.0771 19.368 10.2231C19.4561 10.2735 19.5442 10.3243 19.6323 10.3756C19.6625 10.3929 19.6922 10.4111 19.7223 10.4284C19.7808 10.4624 19.8387 10.4969 19.8971 10.5315C19.9315 10.552 19.9659 10.5725 20.0003 10.593C20.0536 10.6252 20.1073 10.657 20.1605 10.6891C20.1968 10.7111 20.2331 10.733 20.2693 10.7554C20.3019 10.7754 20.3348 10.7955 20.3673 10.8151C20.3702 10.8333 20.373 10.852 20.3758 10.8702C20.3942 10.9891 20.4116 11.109 20.4286 11.2298C20.4314 11.2485 20.4338 11.2672 20.4366 11.2858C20.4554 11.422 20.4734 11.5592 20.4908 11.6968C20.4946 11.7285 20.4983 11.7603 20.5026 11.792C20.5172 11.9119 20.5313 12.0327 20.5445 12.1535C20.5468 12.1759 20.5497 12.1988 20.552 12.2212C20.5671 12.3602 20.5812 12.4997 20.5949 12.6397C20.5958 12.6513 20.5973 12.663 20.5982 12.6746C20.5845 12.6653 20.5704 12.6565 20.5563 12.6476C20.4182 12.5571 20.2792 12.467 20.1388 12.3779C20.1172 12.3644 20.0955 12.3504 20.0738 12.3369C19.9442 12.2548 19.8137 12.1736 19.6828 12.0929C19.6583 12.0775 19.6338 12.0626 19.6088 12.0472C19.4665 11.9599 19.3233 11.8736 19.1791 11.7883C19.148 11.7701 19.1174 11.7519 19.0863 11.7332C19.041 11.7066 18.9963 11.6796 18.9506 11.653C18.8474 11.5923 18.7433 11.5326 18.6396 11.4729C18.536 11.4136 18.4318 11.3549 18.3277 11.2966C18.1364 11.1897 17.9447 11.0848 17.752 10.9817C17.4189 10.803 17.0839 10.6294 16.7489 10.4629C16.7437 10.4601 16.7385 10.4577 16.7329 10.4549C16.5727 10.3752 16.4125 10.2973 16.2523 10.2208C16.2061 10.1988 16.16 10.1764 16.1138 10.1545L16.0007 10.1009H16.0002C15.8396 10.0258 15.6784 9.95111 15.5173 9.87833C15.4174 9.83355 15.318 9.78923 15.2181 9.74537C14.7196 9.52658 14.2207 9.32177 13.7274 9.1333C13.726 9.1333 13.725 9.13237 13.7236 9.1319L13.6153 9.09038H13.6148C13.5248 9.05679 13.4348 9.0232 13.3448 8.99055C13.3274 8.98401 13.31 8.97748 13.2925 8.97142C13.171 8.9271 13.0494 8.88371 12.9283 8.84126C12.9071 8.83379 12.8859 8.82633 12.8647 8.81933C12.7436 8.77735 12.6225 8.73629 12.5024 8.69617C12.4854 8.69057 12.4685 8.68497 12.4515 8.67938C12.4035 8.66351 12.3549 8.64719 12.3069 8.63179C12.231 8.60707 12.1552 8.58327 12.0798 8.55948C12.0784 8.55948 12.077 8.55855 12.076 8.55808C12.101 8.45405 12.1269 8.35095 12.1533 8.24878C12.1599 8.22359 12.166 8.19886 12.1726 8.17367C12.1971 8.07897 12.2221 7.9852 12.247 7.89189C12.2494 7.88396 12.2513 7.87603 12.2536 7.86763C12.281 7.7678 12.3088 7.66936 12.337 7.57093C12.3441 7.54667 12.3512 7.52194 12.3582 7.49768C12.3832 7.41138 12.4091 7.326 12.435 7.2411C12.4383 7.2313 12.4412 7.22104 12.444 7.21077C12.4496 7.21264 12.4553 7.21404 12.4609 7.21591C12.5924 7.25463 12.7248 7.29475 12.8572 7.33627C12.8605 7.3372 12.8638 7.33813 12.8671 7.33907C12.9985 7.38012 13.1304 7.42257 13.2633 7.46643C13.276 7.47062 13.2892 7.47482 13.3019 7.47902C13.4292 7.52101 13.5568 7.56486 13.685 7.60918C13.7029 7.61525 13.7208 7.62131 13.7382 7.62784C13.864 7.67169 13.9903 7.71695 14.1166 7.76313C14.1364 7.77013 14.1561 7.77759 14.1759 7.78459C14.3022 7.83078 14.4285 7.87836 14.5552 7.92688C14.5745 7.93434 14.5938 7.94181 14.6136 7.94927C14.7418 7.99873 14.8699 8.04911 14.9986 8.10043C15.0155 8.10696 15.032 8.11395 15.049 8.12095C15.1809 8.17414 15.3133 8.22825 15.4462 8.28377C15.457 8.28843 15.4674 8.29263 15.4782 8.2973C15.6172 8.35561 15.7562 8.41486 15.8956 8.47551C16.6735 8.81327 17.4641 9.19348 18.2457 9.60542L18.2443 9.60588ZM12.3285 9.18788C12.3375 9.19068 12.3465 9.19395 12.3554 9.19675C12.4718 9.23547 12.5891 9.27559 12.7064 9.31664C12.7281 9.32411 12.7498 9.33157 12.7714 9.3395C12.8473 9.36609 12.9231 9.39362 12.999 9.42068C12.7884 9.53591 12.5773 9.65347 12.3681 9.7729C12.1575 9.89326 11.9497 10.015 11.7453 10.1372C11.7594 10.0584 11.7731 9.97957 11.7881 9.90119C11.7924 9.87973 11.7961 9.85827 11.8004 9.83634C11.8235 9.71505 11.847 9.59469 11.8711 9.47526C11.8734 9.46453 11.8753 9.45427 11.8777 9.44354C11.9012 9.32924 11.9252 9.21587 11.9497 9.10344C11.9526 9.09131 11.9549 9.07965 11.9578 9.06752C11.9662 9.07032 11.9747 9.07312 11.9832 9.07545C12.0982 9.11184 12.2131 9.14916 12.329 9.18742L12.3285 9.18788ZM12.631 10.2231C12.9684 10.0304 13.31 9.84194 13.6482 9.66233C13.6808 9.67493 13.7133 9.68753 13.7458 9.70012C13.7886 9.71692 13.832 9.73371 13.8749 9.75097C13.9276 9.77197 13.9804 9.79296 14.0336 9.81442C14.0761 9.83168 14.1185 9.84847 14.1613 9.86574C14.215 9.88766 14.2692 9.91006 14.3229 9.93198C14.3649 9.94924 14.4063 9.9665 14.4483 9.98377C14.5034 10.0066 14.5585 10.03 14.6136 10.0537C14.6542 10.071 14.6951 10.0883 14.7357 10.1055C14.7922 10.1298 14.8487 10.1545 14.9053 10.1792C14.9449 10.1965 14.984 10.2133 15.0235 10.2306C15.0824 10.2562 15.1409 10.2828 15.1997 10.3089C15.237 10.3257 15.2742 10.3421 15.3114 10.3588C15.3378 10.3705 15.3642 10.3831 15.3906 10.3948C14.7088 10.7302 14.028 11.0917 13.3599 11.4738C12.6913 11.8559 12.035 12.259 11.4013 12.6756C11.4041 12.6481 11.4065 12.6201 11.4089 12.5925C11.4131 12.5468 11.4183 12.5016 11.4225 12.4563C11.4282 12.3985 11.4343 12.3402 11.4404 12.2823C11.4456 12.2347 11.4508 12.1876 11.456 12.1405C11.4621 12.085 11.4682 12.0295 11.4748 11.9739C11.4805 11.9259 11.4861 11.8778 11.4923 11.8298C11.4989 11.7752 11.5054 11.7206 11.5125 11.666C11.5186 11.6189 11.5248 11.5713 11.5309 11.5242C11.538 11.4692 11.5455 11.4141 11.5526 11.3595C11.5587 11.3133 11.5653 11.2676 11.5719 11.2214C11.5799 11.1655 11.5874 11.1099 11.5959 11.0544C11.6025 11.0106 11.6091 10.9667 11.6157 10.9229C11.6209 10.8869 11.6265 10.8515 11.6322 10.816C11.9545 10.6178 12.2899 10.419 12.631 10.224V10.2231ZM13.6228 11.924C14.404 11.4776 15.2026 11.0586 15.9988 10.6779C16.0342 10.6947 16.0695 10.712 16.1053 10.7288C16.1524 10.7517 16.1995 10.7745 16.2471 10.7974C16.3027 10.8244 16.3583 10.852 16.4144 10.8795C16.4605 10.9023 16.5067 10.9252 16.5529 10.9481C16.6099 10.9765 16.6669 11.0054 16.7239 11.0339C16.7687 11.0568 16.8139 11.0792 16.8587 11.102C16.9171 11.1319 16.975 11.1622 17.0335 11.1921C17.0773 11.2144 17.1206 11.2373 17.1645 11.2597C17.2243 11.291 17.2837 11.3227 17.3435 11.3544C17.3854 11.3768 17.4274 11.3987 17.4693 11.4211C17.5315 11.4542 17.5932 11.4878 17.6554 11.5219C17.6945 11.5433 17.7341 11.5643 17.7732 11.5858C17.842 11.6236 17.9108 11.6618 17.9795 11.6996C18.0116 11.7174 18.0436 11.7351 18.0757 11.7528C18.1765 11.8093 18.2768 11.8657 18.3767 11.9231C18.4771 11.9805 18.5774 12.0383 18.6773 12.0971C18.707 12.1144 18.7362 12.1321 18.7654 12.1493C18.8356 12.1904 18.9058 12.2319 18.9751 12.2734C19.0118 12.2954 19.0486 12.3178 19.0858 12.3402C19.1475 12.3775 19.2092 12.4143 19.271 12.4521C19.3115 12.4768 19.352 12.502 19.393 12.5272C19.45 12.5622 19.507 12.5972 19.564 12.6327C19.6074 12.6597 19.6502 12.6868 19.6936 12.7138C19.7473 12.7474 19.801 12.781 19.8543 12.8151C19.899 12.8435 19.9438 12.8725 19.9885 12.9009C20.0394 12.9336 20.0903 12.9662 20.1412 12.9993C20.1874 13.0292 20.2331 13.0595 20.2792 13.0894C20.3278 13.1211 20.3763 13.1528 20.4248 13.185C20.4719 13.2163 20.5186 13.2475 20.5652 13.2788C20.5954 13.2989 20.6255 13.3194 20.6557 13.3394C20.6585 13.3754 20.6609 13.4113 20.6637 13.4467C20.6675 13.5023 20.6717 13.5582 20.6755 13.6142C20.6792 13.6707 20.683 13.7276 20.6863 13.7845C20.6896 13.8395 20.6934 13.8951 20.6962 13.9506C20.6995 14.0084 20.7023 14.0667 20.7056 14.1251C20.7085 14.1796 20.7113 14.2342 20.7141 14.2888C20.7169 14.3485 20.7193 14.4087 20.7221 14.4684C20.7245 14.5216 20.7268 14.5748 20.7287 14.6284C20.7311 14.6909 20.733 14.7539 20.7353 14.8169C20.7372 14.8678 20.7386 14.9186 20.7405 14.9695C20.7424 15.0362 20.7438 15.1029 20.7452 15.1696C20.7461 15.2172 20.7476 15.2643 20.7485 15.3119C20.7499 15.3875 20.7509 15.4635 20.7518 15.5395C20.7523 15.5783 20.7532 15.6165 20.7532 15.6552C20.7542 15.77 20.7551 15.8848 20.7551 16C20.7551 16.1152 20.7546 16.23 20.7532 16.3448C20.7532 16.3835 20.7523 16.4222 20.7518 16.4609C20.7509 16.5365 20.7499 16.6125 20.7485 16.6881C20.7476 16.7357 20.7461 16.7833 20.7452 16.8309C20.7438 16.8976 20.7424 16.9643 20.7405 17.031C20.7391 17.0823 20.7372 17.1332 20.7353 17.184C20.7334 17.2465 20.7311 17.3095 20.7287 17.372C20.7268 17.4257 20.7245 17.4789 20.7221 17.532C20.7198 17.5918 20.7169 17.6519 20.7141 17.7117C20.7118 17.7662 20.7085 17.8208 20.7056 17.8754C20.7028 17.9337 20.6995 17.992 20.6962 18.0499C20.6929 18.1049 20.6896 18.16 20.6863 18.215C20.6825 18.2719 20.6792 18.3293 20.6755 18.3862C20.6717 18.4418 20.6679 18.4973 20.6637 18.5523C20.6613 18.5882 20.6585 18.6246 20.6557 18.6606C20.6236 18.682 20.5911 18.7039 20.5591 18.7254C20.5153 18.7548 20.4719 18.7837 20.4281 18.8131C20.3772 18.8467 20.3264 18.8803 20.2755 18.9134C20.2316 18.9423 20.1878 18.9708 20.144 18.9993C20.0922 19.0328 20.0399 19.0664 19.9876 19.1C19.9438 19.128 19.9 19.1565 19.8561 19.184C19.8029 19.2181 19.7492 19.2516 19.6959 19.2852C19.6526 19.3123 19.6093 19.3398 19.5654 19.3669C19.5103 19.4009 19.4552 19.435 19.3996 19.469C19.3572 19.4952 19.3148 19.5213 19.2719 19.5474C19.214 19.5829 19.1551 19.6179 19.0966 19.6533C19.0566 19.6776 19.0165 19.7018 18.976 19.7256C18.9101 19.7648 18.8441 19.8035 18.7781 19.8427C18.7447 19.8623 18.7117 19.8824 18.6783 19.9015C18.5784 19.9598 18.4785 20.0177 18.3781 20.075C18.2778 20.1324 18.1774 20.1893 18.0766 20.2453C18.046 20.2626 18.0154 20.2794 17.9843 20.2962C17.9141 20.3349 17.8439 20.3741 17.7737 20.4123C17.736 20.4329 17.6983 20.4534 17.6601 20.4739C17.5965 20.5084 17.5334 20.543 17.4698 20.577C17.4283 20.5994 17.3868 20.6209 17.3454 20.6433C17.2855 20.675 17.2257 20.7067 17.1659 20.738C17.1216 20.7613 17.0773 20.7842 17.033 20.807C16.9755 20.8369 16.9185 20.8663 16.861 20.8957C16.8149 20.9194 16.7687 20.9428 16.722 20.9661C16.6886 20.9829 16.6551 20.9997 16.6217 21.0165C16.5995 21.0277 16.5774 21.0389 16.5557 21.0496C16.5086 21.0734 16.461 21.0963 16.4139 21.1201C16.3593 21.1471 16.3041 21.1742 16.2495 21.2008C16.2019 21.2241 16.1548 21.2465 16.1072 21.2693C16.0719 21.2866 16.0365 21.3034 16.0007 21.3202C15.2045 20.9395 14.4054 20.5206 13.6247 20.0741C12.8426 19.6272 12.0774 19.1513 11.3476 18.6596C11.3448 18.6195 11.3415 18.5794 11.3387 18.5397C11.3349 18.4903 11.3316 18.4404 11.3283 18.3904C11.3241 18.3275 11.3203 18.2645 11.3165 18.2015C11.3137 18.1521 11.3104 18.1026 11.3076 18.0532C11.3038 17.9892 11.3005 17.9253 11.2972 17.8614C11.2948 17.8124 11.292 17.763 11.2897 17.714C11.2864 17.6491 11.284 17.5838 11.2812 17.5185C11.2793 17.47 11.2769 17.4215 11.2751 17.373C11.2727 17.3058 11.2703 17.2391 11.268 17.1719C11.2666 17.1248 11.2647 17.0781 11.2633 17.031C11.2614 16.961 11.26 16.8906 11.2581 16.8206C11.2572 16.7763 11.2557 16.732 11.2548 16.6876C11.2534 16.6102 11.2524 16.5332 11.2515 16.4558C11.2515 16.4185 11.2501 16.3811 11.2501 16.3434C11.2491 16.2286 11.2482 16.1138 11.2482 15.9986C11.2482 15.8834 11.2487 15.7686 11.2501 15.6538C11.2501 15.6165 11.251 15.5792 11.2515 15.5419C11.2524 15.4644 11.2534 15.387 11.2548 15.3096C11.2557 15.2657 11.2567 15.2214 11.2576 15.1775C11.259 15.1071 11.2609 15.0362 11.2628 14.9657C11.2642 14.9195 11.2656 14.8734 11.2675 14.8272C11.2699 14.7591 11.2718 14.6909 11.2746 14.6233C11.2765 14.5757 11.2784 14.5286 11.2807 14.481C11.2835 14.4148 11.2864 14.3481 11.2897 14.2818C11.292 14.2342 11.2944 14.1866 11.2972 14.1386C11.3005 14.0728 11.3038 14.007 11.3076 13.9417C11.3104 13.8941 11.3132 13.8465 11.316 13.799C11.3203 13.7336 11.3241 13.6688 11.3283 13.604C11.3316 13.5564 11.3349 13.5093 11.3382 13.4617C11.341 13.4201 11.3443 13.3786 11.3476 13.3371C12.0779 12.8449 12.843 12.3695 13.6247 11.9226L13.6228 11.924ZM13.3604 20.5262C14.0285 20.9083 14.7093 21.2698 15.391 21.6052C15.3647 21.6174 15.3378 21.6295 15.3114 21.6416C15.2756 21.6575 15.2403 21.6733 15.2045 21.6892C15.1442 21.7163 15.0838 21.7433 15.024 21.7694C14.9849 21.7867 14.9463 21.8035 14.9072 21.8203C14.8502 21.845 14.7931 21.8697 14.7361 21.8945C14.6951 21.9117 14.6546 21.929 14.6136 21.9463C14.5585 21.9696 14.5039 21.9929 14.4487 22.0158C14.4068 22.0335 14.3644 22.0508 14.3225 22.068C14.2688 22.0899 14.2155 22.1123 14.1618 22.1338C14.1189 22.1511 14.0761 22.1683 14.0332 22.1856C13.9809 22.2066 13.9281 22.2276 13.8758 22.2486C13.832 22.2658 13.7882 22.2831 13.7448 22.2999C13.7128 22.3125 13.6808 22.3246 13.6487 22.3372C13.3109 22.1581 12.9693 21.9696 12.6315 21.7764C12.2904 21.5814 11.9549 21.3827 11.6327 21.1844C11.6275 21.1508 11.6223 21.1168 11.6171 21.0827C11.61 21.0361 11.603 20.9899 11.5964 20.9428C11.5884 20.8891 11.5808 20.8355 11.5733 20.7818C11.5667 20.7342 11.5596 20.6862 11.5535 20.6386C11.5464 20.5854 11.5394 20.5318 11.5323 20.4781C11.5262 20.4296 11.5196 20.3816 11.5135 20.333C11.5069 20.2794 11.5003 20.2253 11.4937 20.1716C11.488 20.1231 11.4819 20.0746 11.4762 20.0256C11.4696 19.971 11.464 19.916 11.4579 19.8609C11.4527 19.8129 11.447 19.7648 11.4418 19.7168C11.4357 19.6594 11.4301 19.602 11.4244 19.5446C11.4197 19.4989 11.415 19.4527 11.4103 19.407C11.4074 19.3795 11.4051 19.3515 11.4027 19.324C12.036 19.7401 12.6927 20.1432 13.3613 20.5257L13.3604 20.5262ZM12.3686 22.2276C12.5778 22.347 12.7889 22.4646 12.999 22.5798C12.9222 22.6073 12.8459 22.6353 12.7695 22.6619C12.7469 22.6698 12.7248 22.6773 12.7022 22.6852C12.5858 22.7258 12.4694 22.7655 12.354 22.8037C12.3441 22.807 12.3337 22.8102 12.3238 22.8135C12.2117 22.8508 12.1005 22.8868 11.9903 22.9217C11.9794 22.925 11.9686 22.9287 11.9578 22.932C11.9549 22.9199 11.9526 22.9082 11.9497 22.8961C11.9252 22.7846 11.9017 22.6722 11.8781 22.5588C11.8758 22.5471 11.8734 22.5355 11.8706 22.5233C11.8466 22.4044 11.823 22.285 11.8004 22.1646C11.7961 22.1422 11.7919 22.1203 11.7877 22.0979C11.7731 22.02 11.7594 21.9411 11.7453 21.8628C11.9497 21.985 12.158 22.1067 12.3686 22.2271V22.2276ZM23.2597 15.6576C23.2597 15.6207 23.2588 15.5834 23.2583 15.5465C23.2574 15.4686 23.2564 15.3907 23.255 15.3133C23.255 15.303 23.255 15.2928 23.255 15.283C23.5401 15.5204 23.8176 15.7597 24.0843 16C24.0791 16.0047 24.0744 16.0089 24.0692 16.0135C24.0565 16.0252 24.0437 16.0364 24.0305 16.0481C24.0183 16.0588 24.006 16.07 23.9938 16.0807C23.9377 16.1311 23.8812 16.181 23.8237 16.2309C23.7964 16.2547 23.7691 16.2785 23.7417 16.3023C23.6861 16.3508 23.6301 16.3989 23.574 16.4469C23.5528 16.4651 23.5316 16.4833 23.5104 16.501C23.5019 16.508 23.4934 16.5155 23.485 16.5225C23.4204 16.5771 23.3559 16.6317 23.2908 16.6862C23.2786 16.6965 23.2663 16.7068 23.2541 16.717C23.2541 16.7068 23.2541 16.697 23.2541 16.6867C23.2555 16.6093 23.2564 16.5318 23.2574 16.4539C23.2574 16.4166 23.2583 16.3797 23.2588 16.3424C23.2597 16.2281 23.2602 16.1138 23.2602 15.9995C23.2602 15.8852 23.2597 15.7709 23.2588 15.6566L23.2597 15.6576ZM23.2343 14.592C23.2301 14.4801 23.2253 14.3681 23.2197 14.2561C23.2178 14.2198 23.2164 14.1829 23.2145 14.1465C23.207 13.9972 23.1985 13.8484 23.1891 13.7001C23.1881 13.6837 23.1867 13.6674 23.1858 13.6511C23.1768 13.5144 23.1674 13.3786 23.157 13.2429C23.1542 13.2083 23.1518 13.1738 23.149 13.1393C23.1372 12.9923 23.125 12.8459 23.1113 12.6998C23.1109 12.6938 23.1104 12.6872 23.1099 12.6812C23.9594 13.3222 24.7491 13.9842 25.4647 14.6555C25.4186 14.7045 25.3724 14.753 25.3253 14.802C25.3187 14.8085 25.3125 14.815 25.306 14.822C25.2617 14.8678 25.2174 14.9135 25.1721 14.9597C25.1547 14.9774 25.1373 14.9951 25.1198 15.0124C25.0855 15.0474 25.0506 15.0824 25.0157 15.1173C24.9955 15.1374 24.9757 15.1575 24.9554 15.1775C24.9224 15.2106 24.889 15.2433 24.8555 15.2764C24.8348 15.297 24.8136 15.3175 24.7929 15.338C24.7589 15.3711 24.7246 15.4043 24.6902 15.4374C24.6699 15.457 24.6492 15.4766 24.6284 15.4966C24.5907 15.5325 24.5531 15.568 24.5154 15.6039C24.5008 15.6179 24.4857 15.6319 24.4711 15.6459C24.0791 15.2918 23.6645 14.9387 23.2352 14.5925L23.2343 14.592ZM28.4697 8.88978C28.4716 8.91217 28.473 8.93503 28.4744 8.95742C28.4759 8.98215 28.4777 9.00687 28.4787 9.0316C28.4796 9.05446 28.4796 9.07825 28.4801 9.10158C28.4801 9.12677 28.481 9.15149 28.4806 9.17669C28.4806 9.20048 28.4796 9.22427 28.4787 9.24806C28.4777 9.27326 28.4773 9.29891 28.4759 9.32411C28.4744 9.34837 28.4726 9.37309 28.4711 9.39782C28.4693 9.42347 28.4674 9.44913 28.465 9.47479C28.4627 9.49998 28.4598 9.52518 28.4565 9.55037C28.4537 9.57649 28.4504 9.60215 28.4467 9.62828C28.4434 9.65394 28.4391 9.67959 28.4349 9.70525C28.4306 9.73138 28.4264 9.75797 28.4217 9.78409C28.417 9.81022 28.4118 9.83634 28.4066 9.86294C28.4014 9.88953 28.3962 9.91612 28.3901 9.94271C28.3845 9.9693 28.3783 9.99589 28.3717 10.023C28.3656 10.05 28.359 10.0771 28.3519 10.1041C28.3449 10.1312 28.3378 10.1582 28.3303 10.1858C28.3227 10.2133 28.3152 10.2404 28.3072 10.2679C28.2992 10.2954 28.2907 10.3229 28.2822 10.3509C28.2737 10.3784 28.2653 10.4064 28.2558 10.434C28.2469 10.4619 28.2375 10.4899 28.2276 10.5184C28.2181 10.5464 28.2082 10.5744 28.1984 10.6024C28.188 10.6308 28.1776 10.6593 28.1668 10.6882C28.156 10.7167 28.1451 10.7451 28.1343 10.7736C28.123 10.8025 28.1117 10.8314 28.0999 10.8604C28.0881 10.8888 28.0763 10.9177 28.0641 10.9467C28.0518 10.9761 28.0391 11.005 28.0264 11.0344C28.0193 11.0507 28.0118 11.0675 28.0042 11.0838C27.9986 11.0964 27.9929 11.109 27.9873 11.1216C27.9741 11.151 27.9604 11.1809 27.9463 11.2107C27.9326 11.2401 27.918 11.27 27.9039 11.2993C27.8893 11.3292 27.8747 11.3591 27.8601 11.3889C27.845 11.4188 27.8299 11.4486 27.8144 11.479C27.7988 11.5088 27.7833 11.5391 27.7672 11.5695C27.7512 11.5998 27.7347 11.6306 27.7178 11.6609C27.7013 11.6912 27.6848 11.7211 27.6683 11.7514C27.6509 11.7822 27.6334 11.8135 27.6155 11.8447C27.5981 11.875 27.5807 11.9054 27.5632 11.9357C27.5449 11.9669 27.526 11.9987 27.5072 12.0299C27.4888 12.0602 27.4704 12.091 27.4516 12.1214C27.4323 12.1531 27.412 12.1853 27.3917 12.217C27.3724 12.2478 27.3536 12.2781 27.3338 12.3089C27.3131 12.3411 27.2919 12.3737 27.2702 12.4064C27.2499 12.4372 27.2301 12.4675 27.2099 12.4983C27.1877 12.5314 27.1651 12.5646 27.1425 12.5977C27.1218 12.628 27.101 12.6583 27.0798 12.6891C27.0563 12.7227 27.0323 12.7568 27.0082 12.7903C26.9866 12.8207 26.9653 12.851 26.9437 12.8813C26.9187 12.9158 26.8933 12.9504 26.8678 12.9849C26.8457 13.0152 26.824 13.0451 26.8014 13.0754C26.775 13.1108 26.7477 13.1463 26.7208 13.1818C26.6982 13.2116 26.6761 13.241 26.653 13.2709C26.6252 13.3072 26.5964 13.3436 26.5677 13.38C26.5446 13.4094 26.522 13.4383 26.4984 13.4677C26.4688 13.5051 26.4381 13.5424 26.4075 13.5797C26.3844 13.6082 26.3613 13.6371 26.3378 13.6655C26.3057 13.7047 26.2728 13.7439 26.2398 13.7826C26.2172 13.8097 26.1945 13.8372 26.1715 13.8643C26.1356 13.9063 26.0994 13.9487 26.0626 13.9907C26.0414 14.0154 26.0207 14.0397 25.999 14.0644C25.9557 14.1139 25.9114 14.1638 25.8671 14.2132C25.8515 14.2305 25.8365 14.2482 25.8209 14.2655C25.8195 14.2673 25.8176 14.2687 25.8162 14.2706C24.9794 13.4864 24.0452 12.7157 23.0341 11.9758C23.0195 11.8484 23.0048 11.7211 22.9888 11.5951C22.9818 11.5396 22.9742 11.485 22.9667 11.4295C22.9526 11.3213 22.9384 11.213 22.9229 11.1057C22.9134 11.04 22.9036 10.9751 22.8937 10.9103C22.8795 10.8142 22.8649 10.7181 22.8498 10.6224C22.839 10.5534 22.8272 10.4853 22.8159 10.4167C22.8008 10.3257 22.7858 10.2352 22.7702 10.1452C22.758 10.0752 22.7452 10.0057 22.7325 9.93618C22.7165 9.84847 22.7005 9.76077 22.6835 9.674C22.6703 9.60402 22.6562 9.53497 22.6425 9.46546C22.6256 9.37962 22.6081 9.29425 22.5902 9.20934C22.5756 9.1403 22.561 9.07172 22.5459 9.00314C22.5276 8.91917 22.5087 8.83519 22.4899 8.75169C22.4743 8.68404 22.4588 8.61686 22.4432 8.54968C22.4348 8.51423 22.4267 8.47784 22.4183 8.44285C25.1472 7.88723 27.281 8.03791 28.465 8.87065C28.4655 8.87671 28.4664 8.88231 28.4669 8.88838L28.4697 8.88978ZM28.1682 7.91009C28.2163 7.99266 28.2587 8.07897 28.2954 8.16807C26.9427 7.49955 24.8536 7.41604 22.2929 7.93948C22.2887 7.92315 22.2845 7.90729 22.2797 7.89143C22.2666 7.84197 22.2534 7.79206 22.2397 7.74307C22.2322 7.71601 22.2246 7.68896 22.2171 7.6619C22.2044 7.61571 22.1916 7.56999 22.1784 7.52427C22.1709 7.49722 22.1629 7.47016 22.1554 7.4431C22.1417 7.39552 22.128 7.3484 22.1139 7.30081C22.1068 7.27702 22.0998 7.25323 22.0932 7.2299C22.0734 7.16412 22.0536 7.09881 22.0338 7.03396C22.0324 7.02976 22.031 7.0251 22.03 7.0209C22.0088 6.95232 21.9872 6.88421 21.9655 6.81656C21.9584 6.79417 21.9514 6.77225 21.9438 6.75032C21.9334 6.71766 21.9226 6.68501 21.9122 6.65282C25.0982 6.08879 27.3696 6.54272 28.1677 7.91102L28.1682 7.91009ZM16.9911 1.52017C18.6359 1.52017 20.2137 3.34799 21.3191 6.53525C21.5108 7.08715 21.688 7.68382 21.8463 8.30803C21.9217 8.60753 21.9928 8.91264 22.0592 9.22287C22.2581 10.1545 22.415 11.1342 22.5271 12.147C22.6086 12.8799 22.6666 13.6361 22.701 14.4003C22.7057 14.5095 22.7104 14.6186 22.7141 14.7283C22.7288 15.1453 22.7363 15.5731 22.7363 16C22.7363 16.1017 22.7358 16.2039 22.7349 16.3056C22.7349 16.3406 22.7339 16.3751 22.7335 16.4101C22.7325 16.4768 22.7321 16.5435 22.7306 16.6102C22.7302 16.6517 22.7292 16.6928 22.7283 16.7343C22.7269 16.794 22.7259 16.8542 22.7245 16.9139C22.7236 16.9573 22.7222 17.0002 22.7207 17.0431C22.7198 17.08 22.7184 17.1164 22.7174 17.1528C22.7014 17.1654 22.6854 17.178 22.6694 17.1906C22.5775 17.2633 22.4847 17.3356 22.3909 17.408C22.3735 17.4215 22.3565 17.435 22.3391 17.4481C22.2307 17.5311 22.1214 17.6142 22.0107 17.6967C21.9834 17.7173 21.9556 17.7378 21.9278 17.7583C21.8326 17.8288 21.737 17.8992 21.6409 17.9692C21.6201 17.9841 21.5994 17.9995 21.5787 18.0144C21.4661 18.0961 21.352 18.1768 21.238 18.2575C21.2277 18.265 21.2173 18.272 21.2069 18.2794C21.2079 18.2626 21.2088 18.2454 21.2098 18.2286C21.2197 18.0657 21.2291 17.902 21.2366 17.7378C21.238 17.7126 21.239 17.6869 21.2399 17.6613C21.247 17.5087 21.2526 17.3562 21.2578 17.2027C21.2588 17.1747 21.2597 17.1462 21.2606 17.1182C21.2658 16.9526 21.2696 16.7861 21.2724 16.6195C21.2729 16.5836 21.2734 16.5482 21.2738 16.5122C21.2762 16.3415 21.2776 16.1703 21.2776 15.9991C21.2776 15.7607 21.2753 15.5228 21.2705 15.2848C21.2602 14.7563 21.2385 14.231 21.2055 13.7127L21.2102 13.7159L21.1678 13.1738C21.1678 13.171 21.1678 13.1687 21.1674 13.1659L21.1579 13.0497H21.1575C21.1429 12.8729 21.1273 12.697 21.1103 12.5221C21.0656 12.0668 21.0123 11.6166 20.9502 11.1743L20.9563 11.1781L20.8672 10.6159C20.8672 10.6159 20.8663 10.6112 20.8663 10.6089L20.8489 10.4983H20.8484C20.8277 10.3714 20.8069 10.245 20.7848 10.1195C20.6981 9.62594 20.6001 9.14216 20.4917 8.67518L20.4286 8.40273H20.4272C20.2929 7.8513 20.1435 7.31714 19.981 6.81097L19.9037 6.57024H19.9023C19.9 6.56418 19.8981 6.55811 19.8957 6.55158C19.8863 6.52359 19.8769 6.49607 19.8674 6.46854C19.8477 6.41116 19.8283 6.35378 19.8086 6.29733C19.7972 6.26514 19.7855 6.23295 19.7742 6.20076C19.7558 6.14898 19.7369 6.09766 19.7186 6.04634C19.7063 6.01368 19.6945 5.98103 19.6823 5.94837C19.6634 5.89845 19.6446 5.84854 19.6257 5.79909C19.6135 5.76736 19.6012 5.73564 19.589 5.70392C19.5692 5.65307 19.549 5.60268 19.5287 5.5523C19.5174 5.52384 19.5056 5.49491 19.4943 5.46646C19.4707 5.40861 19.4467 5.35123 19.4227 5.29431C19.4142 5.27472 19.4062 5.25466 19.3982 5.23506C19.3657 5.15902 19.3327 5.08344 19.2997 5.0088C19.2931 4.99387 19.286 4.97894 19.2795 4.96402C19.2531 4.90523 19.2262 4.84692 19.1994 4.78907C19.1876 4.76388 19.1758 4.73915 19.164 4.71443C19.1419 4.66731 19.1193 4.62019 19.0966 4.57401C19.0835 4.54695 19.0703 4.52036 19.0571 4.49376C19.0354 4.44991 19.0137 4.40652 18.9916 4.36361C18.9779 4.33701 18.9643 4.31042 18.9506 4.28383C18.9284 4.24091 18.9058 4.19846 18.8832 4.15647C18.87 4.13175 18.8568 4.10655 18.8432 4.08183C18.8187 4.03657 18.7942 3.99226 18.7692 3.9484C18.7579 3.92788 18.7461 3.90688 18.7348 3.88682C18.7013 3.82804 18.6674 3.76973 18.6335 3.71234C18.6307 3.70768 18.6278 3.70255 18.625 3.69742C18.5878 3.6349 18.5501 3.57332 18.5124 3.51267C18.5021 3.49635 18.4917 3.48048 18.4818 3.46416C18.4545 3.42077 18.4267 3.37785 18.3989 3.3354C18.3852 3.31487 18.3715 3.29434 18.3579 3.27428C18.3329 3.23696 18.3079 3.20011 18.283 3.16372C18.2684 3.14226 18.2538 3.12126 18.2391 3.10074C18.2146 3.06575 18.1897 3.03076 18.1652 2.9967C18.1506 2.97618 18.1355 2.95612 18.1209 2.93606C18.095 2.90107 18.0695 2.86701 18.0436 2.83295C18.0295 2.81476 18.0158 2.79657 18.0017 2.77837C17.9725 2.74058 17.9428 2.70326 17.9131 2.66687C17.9027 2.65381 17.8924 2.64075 17.8815 2.62769C17.841 2.57824 17.8 2.52972 17.759 2.48213C17.7548 2.47747 17.7506 2.4728 17.7463 2.46767C17.7096 2.42568 17.6728 2.38463 17.6361 2.34451C17.6229 2.33005 17.6097 2.31652 17.5965 2.30252C17.5682 2.2722 17.54 2.24234 17.5117 2.21342C17.4961 2.19756 17.4811 2.18216 17.4655 2.16677C17.4391 2.14017 17.4123 2.11358 17.3854 2.08792C17.3694 2.07253 17.3529 2.05667 17.3369 2.04174C17.31 2.01655 17.2837 1.99182 17.2568 1.96803C17.2408 1.95357 17.2248 1.9391 17.2087 1.92511C17.1805 1.89992 17.1517 1.87566 17.123 1.85186C17.1084 1.83974 17.0942 1.82714 17.0796 1.81548C17.0443 1.78655 17.0085 1.75856 16.9732 1.73057C16.9656 1.7245 16.9576 1.71844 16.9501 1.71238C16.9067 1.67925 16.8629 1.64706 16.8191 1.61627C16.8078 1.60834 16.796 1.60041 16.7842 1.59248C16.7574 1.57429 16.731 1.55562 16.7041 1.5379C16.8003 1.5253 16.8968 1.51924 16.993 1.51924L16.9911 1.52017ZM15.3557 2.13458C15.3783 2.11731 15.4009 2.10052 15.4235 2.08419C15.4424 2.07066 15.4608 2.05713 15.4796 2.04407C15.5022 2.02821 15.5253 2.01235 15.5479 1.99742C15.5668 1.98482 15.5852 1.97269 15.604 1.96056C15.6271 1.94563 15.6502 1.93164 15.6733 1.91764C15.6921 1.90645 15.7105 1.89478 15.7293 1.88405C15.7529 1.87053 15.7764 1.85746 15.8 1.8444C15.8184 1.83414 15.8372 1.82387 15.8556 1.81454C15.8796 1.80195 15.9036 1.79028 15.9281 1.77862C15.9465 1.76976 15.9644 1.76089 15.9828 1.75203C15.9885 1.7497 15.9941 1.74736 15.9993 1.74457C16.0045 1.7469 16.0097 1.74923 16.0148 1.75156C16.0356 1.76089 16.0563 1.77162 16.077 1.78142C16.0992 1.79215 16.1218 1.80335 16.1439 1.81454C16.1647 1.82527 16.1849 1.83694 16.2057 1.84813C16.2278 1.86026 16.2499 1.87239 16.2721 1.88545C16.2923 1.89712 16.3131 1.90971 16.3333 1.92231C16.3555 1.93584 16.3776 1.94937 16.3993 1.96336C16.4196 1.97643 16.4398 1.98995 16.4601 2.00348C16.4818 2.01841 16.5039 2.03287 16.5256 2.04827C16.5458 2.06226 16.5656 2.07719 16.5859 2.09212C16.6075 2.10798 16.6292 2.12431 16.6509 2.14064C16.6707 2.15604 16.6909 2.1719 16.7107 2.18776C16.7324 2.20502 16.7536 2.22228 16.7753 2.24001C16.7951 2.25634 16.8149 2.2736 16.8346 2.29039C16.8558 2.30859 16.8775 2.32725 16.8987 2.34638C16.9185 2.3641 16.9378 2.38183 16.9576 2.40002C16.9788 2.41962 17 2.43968 17.0212 2.45974C17.0405 2.4784 17.0599 2.49753 17.0796 2.51665C17.1008 2.53765 17.1216 2.55864 17.1423 2.5801C17.1616 2.5997 17.1809 2.62022 17.2003 2.64028C17.221 2.66221 17.2417 2.6846 17.2625 2.70746C17.2813 2.72845 17.3006 2.74945 17.3195 2.77091C17.3402 2.79423 17.3605 2.81756 17.3812 2.84135C17.4 2.86328 17.4189 2.88567 17.4377 2.90806C17.458 2.93232 17.4782 2.95705 17.499 2.98224C17.5178 3.0051 17.5362 3.02843 17.555 3.05175C17.5753 3.07741 17.5956 3.10307 17.6153 3.12919C17.6337 3.15299 17.6521 3.17725 17.6705 3.20197C17.6903 3.22856 17.7105 3.25609 17.7303 3.28315C17.7487 3.30834 17.7666 3.33306 17.785 3.35872C17.8047 3.38671 17.8245 3.4147 17.8439 3.44363C17.8618 3.46975 17.8797 3.49588 17.8976 3.52247C17.9169 3.55139 17.9367 3.58125 17.956 3.61064C17.9739 3.6377 17.9913 3.66476 18.0088 3.69228C18.0281 3.72261 18.0474 3.7534 18.0667 3.78419C18.0841 3.81218 18.1016 3.84017 18.119 3.86863C18.1379 3.89988 18.1572 3.93161 18.176 3.9638C18.1934 3.99272 18.2104 4.02165 18.2274 4.0515C18.2462 4.08416 18.2651 4.11682 18.2834 4.14994C18.3004 4.1798 18.3174 4.20965 18.3343 4.23998C18.3532 4.27357 18.3715 4.30809 18.3899 4.34261C18.4064 4.3734 18.4229 4.40373 18.4394 4.43498C18.4578 4.46997 18.4761 4.50543 18.4945 4.54088C18.511 4.57261 18.527 4.60386 18.5435 4.63605C18.5619 4.67197 18.5798 4.70883 18.5977 4.74522C18.6137 4.77787 18.6297 4.81006 18.6458 4.84272C18.6637 4.88004 18.6816 4.9183 18.6995 4.95609C18.715 4.98921 18.7306 5.02233 18.7461 5.05545C18.764 5.09417 18.7814 5.13383 18.7993 5.17302C18.8144 5.20707 18.83 5.2402 18.845 5.27472C18.8625 5.31484 18.8799 5.35589 18.8973 5.39648C18.912 5.431 18.927 5.46506 18.9416 5.49958C18.9591 5.5411 18.9765 5.58355 18.9935 5.62554C19.0076 5.66053 19.0222 5.69505 19.0363 5.73051C19.0538 5.77389 19.0712 5.81821 19.0882 5.86253C19.1018 5.89752 19.1155 5.93204 19.1292 5.96703C19.1466 6.01275 19.164 6.0594 19.1815 6.10606C19.1942 6.14058 19.2074 6.17463 19.2201 6.20962C19.238 6.25861 19.2559 6.30852 19.2738 6.35844C19.2856 6.39157 19.2978 6.42422 19.3091 6.45734C19.3289 6.51426 19.3487 6.57164 19.3685 6.62949C19.3779 6.65655 19.3873 6.68361 19.3963 6.71066C19.3968 6.71253 19.3977 6.71486 19.3982 6.71673C18.2938 7.04143 17.1527 7.45756 16.0007 7.95487C15.8956 7.90962 15.7906 7.86483 15.686 7.82098C15.6737 7.81585 15.6615 7.81072 15.6492 7.80559C15.5159 7.75007 15.383 7.69549 15.2502 7.64184C15.2318 7.63437 15.2134 7.62691 15.195 7.61991C15.0655 7.56813 14.9364 7.51728 14.8077 7.46783C14.787 7.45989 14.7658 7.4515 14.7451 7.44357C14.6174 7.39458 14.4897 7.347 14.3625 7.29988C14.3418 7.29241 14.3211 7.28448 14.3003 7.27702C14.1722 7.23037 14.045 7.18465 13.9173 7.14033C13.8989 7.1338 13.881 7.12773 13.8626 7.1212C13.7326 7.07595 13.6025 7.03163 13.473 6.98871C13.4607 6.98451 13.4485 6.98078 13.4362 6.97658C13.301 6.93226 13.1667 6.88841 13.0324 6.84689C13.031 6.84689 13.0296 6.84596 13.0287 6.84549C12.8953 6.80397 12.7625 6.76385 12.6301 6.72466C12.6211 6.72186 12.6122 6.71906 12.6032 6.71626C12.6037 6.71486 12.6042 6.71346 12.6046 6.71206C12.6127 6.68781 12.6211 6.66355 12.6296 6.63929C12.6499 6.58004 12.6697 6.52079 12.6904 6.46248C12.7017 6.42982 12.7135 6.39763 12.7253 6.36497C12.7427 6.31599 12.7601 6.26654 12.778 6.21802C12.7907 6.18303 12.8039 6.14897 12.8167 6.11445C12.8336 6.0692 12.8506 6.02395 12.8675 5.97963C12.8812 5.94371 12.8953 5.90872 12.909 5.87326C12.9255 5.83081 12.9425 5.78836 12.959 5.74637C12.9731 5.71045 12.9877 5.67546 13.0023 5.64C13.0188 5.59942 13.0357 5.55883 13.0522 5.51871C13.0668 5.48325 13.0819 5.44873 13.097 5.41374C13.114 5.37455 13.1304 5.33537 13.1474 5.29664C13.1625 5.26212 13.178 5.2276 13.1931 5.19308C13.2101 5.15529 13.227 5.1175 13.244 5.08018C13.2595 5.04612 13.2751 5.01253 13.2911 4.97894C13.3081 4.94209 13.3255 4.9057 13.3429 4.86978C13.359 4.83666 13.375 4.80353 13.391 4.77088C13.4084 4.73542 13.4259 4.69997 13.4433 4.66498C13.4593 4.63279 13.4758 4.6006 13.4918 4.56887C13.5097 4.53435 13.5272 4.49983 13.5451 4.46577C13.5616 4.43452 13.578 4.40326 13.5945 4.37247C13.6124 4.33888 13.6308 4.30576 13.6487 4.27263C13.6652 4.24231 13.6817 4.21199 13.6987 4.18213C13.717 4.14947 13.7354 4.11728 13.7543 4.08509C13.7712 4.05617 13.7877 4.02678 13.8047 3.99832C13.8235 3.96613 13.8428 3.93487 13.8617 3.90315C13.8782 3.87563 13.8951 3.84763 13.9116 3.82011C13.9314 3.78839 13.9507 3.7576 13.9705 3.72634C13.987 3.70021 14.0035 3.67409 14.02 3.64796C14.0407 3.61624 14.0614 3.58498 14.0822 3.55373C14.0982 3.52994 14.1137 3.50568 14.1298 3.48188C14.1528 3.44783 14.1759 3.41517 14.1995 3.38205C14.2136 3.36199 14.2273 3.34193 14.2414 3.32233C14.2772 3.27242 14.3135 3.22343 14.3493 3.17538C14.3583 3.16372 14.3672 3.15252 14.3762 3.14086C14.4063 3.1012 14.437 3.06155 14.4676 3.02329C14.4822 3.0051 14.4968 2.98784 14.5114 2.97011C14.5354 2.94072 14.559 2.91133 14.583 2.88287C14.599 2.86375 14.6155 2.84508 14.632 2.82642C14.6546 2.8003 14.6772 2.77417 14.6999 2.74898C14.7168 2.72985 14.7343 2.71166 14.7512 2.693C14.7734 2.66874 14.7955 2.64495 14.8176 2.62162C14.8351 2.60343 14.853 2.5857 14.8704 2.56751C14.8926 2.54511 14.9147 2.52272 14.9368 2.50079C14.9547 2.48307 14.9727 2.46627 14.991 2.44901C15.0132 2.42802 15.0348 2.40702 15.057 2.38696C15.0754 2.37017 15.0937 2.35384 15.1116 2.33751C15.1338 2.31792 15.1559 2.29832 15.1781 2.2792C15.1965 2.26333 15.2148 2.24794 15.2332 2.23301C15.2553 2.21482 15.278 2.19662 15.3001 2.17889C15.3185 2.16443 15.3373 2.14997 15.3557 2.13551V2.13458ZM3.83086 7.90962C4.40425 6.92573 5.73949 6.41489 7.62881 6.41489C8.3671 6.41489 9.19068 6.49327 10.0863 6.65142C10.0821 6.66401 10.0783 6.67708 10.0741 6.68967C10.0388 6.7979 10.0034 6.90707 9.96949 7.01763C9.96902 7.0195 9.96855 7.02137 9.96761 7.02323C9.93274 7.1352 9.89929 7.24903 9.86584 7.36332C9.85971 7.38478 9.85312 7.40578 9.84699 7.42724C9.81495 7.53827 9.78386 7.64977 9.75323 7.7622C9.74758 7.78366 9.74146 7.80559 9.7358 7.82705C9.72591 7.86437 9.71554 7.90122 9.70565 7.93901C7.14541 7.41558 5.05632 7.49862 3.70364 8.1676C3.74087 8.0785 3.7828 7.99266 3.83086 7.90962ZM3.5312 8.87298C4.24641 8.36914 5.30745 8.11396 6.63845 8.11396C7.51055 8.11396 8.49809 8.22312 9.57844 8.44332C9.57043 8.47644 9.56289 8.5105 9.55488 8.54409C9.54734 8.57488 9.5398 8.6052 9.53273 8.63646C9.52472 8.67051 9.51719 8.7055 9.50965 8.74002C9.49127 8.82073 9.4729 8.90191 9.45499 8.98355C9.44651 9.02227 9.43756 9.06052 9.42908 9.09971C9.42249 9.13003 9.41636 9.16129 9.41024 9.19208C9.39327 9.27139 9.37725 9.35116 9.36124 9.43141C9.35181 9.47806 9.34192 9.52424 9.33297 9.57136C9.32778 9.59749 9.32307 9.62408 9.31789 9.6502C9.30281 9.72905 9.28821 9.80882 9.27313 9.88813C9.26324 9.94224 9.25287 9.99589 9.24298 10.0505C9.23921 10.0719 9.23544 10.0934 9.23167 10.1144C9.21753 10.1942 9.20434 10.2744 9.19068 10.3546C9.18031 10.4153 9.16995 10.4759 9.16005 10.5371C9.15723 10.5534 9.15487 10.5692 9.15204 10.5851C9.13885 10.6677 9.1266 10.7507 9.11388 10.8338C9.10446 10.8958 9.09456 10.9579 9.08561 11.0204C9.08326 11.0353 9.0809 11.0502 9.07902 11.0652C9.07666 11.0829 9.0743 11.1006 9.07195 11.1183C9.06158 11.1911 9.05169 11.2648 9.04179 11.3381C9.03473 11.3903 9.02719 11.4426 9.02059 11.4953C9.01824 11.513 9.01588 11.5312 9.014 11.5489C9.0074 11.6021 9.0008 11.6558 8.99468 11.7094C8.98384 11.7981 8.97253 11.8867 8.96217 11.9763C8.94097 11.9917 8.91977 12.0075 8.89856 12.0229C8.86747 12.0458 8.8359 12.0691 8.80481 12.092C8.76711 12.12 8.72989 12.1475 8.69267 12.1755C8.66299 12.1974 8.63331 12.2198 8.60409 12.2417C8.59514 12.2487 8.58572 12.2552 8.57677 12.2622C8.54709 12.2846 8.51787 12.307 8.48866 12.329C8.45804 12.3523 8.42741 12.3756 8.39679 12.3989C8.36004 12.4269 8.32376 12.4549 8.28748 12.4834C8.26581 12.5002 8.24366 12.517 8.22199 12.5338C8.21681 12.538 8.2121 12.5417 8.20691 12.5459C8.20314 12.5487 8.19985 12.5515 8.19608 12.5543C8.16027 12.5823 8.12446 12.6103 8.08865 12.6383C8.0585 12.6621 8.02835 12.6858 7.99819 12.7096C7.96286 12.7376 7.92752 12.7661 7.89218 12.7941C7.88936 12.7964 7.88606 12.7987 7.88323 12.8011C7.87145 12.8104 7.85967 12.8197 7.8479 12.8295C7.83282 12.8417 7.81774 12.8538 7.80267 12.8659C7.7678 12.8939 7.73293 12.9224 7.69807 12.9504C7.66839 12.9746 7.63823 12.9989 7.60855 13.0231C7.58169 13.0451 7.55531 13.067 7.52893 13.0885C7.51432 13.1006 7.49971 13.1127 7.48511 13.1248C7.46249 13.1435 7.44035 13.1617 7.41821 13.1804C7.38428 13.2088 7.35036 13.2368 7.31691 13.2653C7.28817 13.2895 7.25896 13.3138 7.23022 13.338C7.21278 13.3525 7.19582 13.3674 7.17839 13.3819C7.16425 13.394 7.15059 13.4057 7.13646 13.4178C7.13457 13.4197 7.13222 13.4211 7.13033 13.4229C7.10159 13.4477 7.07285 13.4719 7.04411 13.4967C7.01113 13.5251 6.97815 13.5536 6.94564 13.582C6.91737 13.6063 6.8891 13.631 6.8613 13.6553C6.85235 13.6632 6.8434 13.6711 6.83445 13.6786C6.82597 13.6861 6.81796 13.6935 6.80948 13.701C6.79393 13.7145 6.77838 13.7285 6.76283 13.742C6.73551 13.7663 6.70771 13.7906 6.68038 13.8148C6.6474 13.8442 6.61489 13.8736 6.58191 13.903C6.556 13.9263 6.52961 13.9501 6.5037 13.9734C6.50182 13.9753 6.49993 13.9767 6.49805 13.9786C6.46554 14.008 6.4335 14.0378 6.40099 14.0672C6.37649 14.0896 6.35152 14.112 6.32749 14.1349C6.29074 14.1689 6.25446 14.203 6.21818 14.2366C6.213 14.2417 6.20735 14.2464 6.20216 14.2515C6.19557 14.2575 6.1885 14.2636 6.1819 14.2701C4.33122 12.2081 3.39693 10.3038 3.53262 8.87158L3.5312 8.87298ZM8.73837 16.3242C8.73837 16.3303 8.73837 16.3364 8.73837 16.3424C8.73837 16.3797 8.73932 16.4171 8.73979 16.4544C8.74073 16.5318 8.74167 16.6093 8.74308 16.6862C8.74308 16.6965 8.74308 16.7068 8.74308 16.717C8.4571 16.4791 8.17959 16.2393 7.91339 15.9995C7.9181 15.9953 7.92281 15.9911 7.92752 15.9865C7.94024 15.9753 7.95249 15.9641 7.96521 15.9529C7.9784 15.9412 7.9916 15.9296 8.00479 15.9179C8.05991 15.8684 8.11551 15.8195 8.17205 15.77C8.19985 15.7457 8.22764 15.721 8.25591 15.6968C8.31057 15.6492 8.36616 15.6016 8.42129 15.554C8.44155 15.5363 8.46228 15.519 8.48254 15.5013C8.49337 15.492 8.50421 15.4831 8.51505 15.4738C8.57771 15.4206 8.64037 15.3679 8.70351 15.3151C8.7167 15.3044 8.72942 15.2932 8.74261 15.2825C8.74261 15.2928 8.74261 15.303 8.74261 15.3133C8.7412 15.3907 8.74026 15.4682 8.73932 15.5456C8.73932 15.5829 8.73837 15.6203 8.7379 15.6576C8.73696 15.7719 8.73649 15.8862 8.73649 16.0005C8.73649 16.1087 8.73649 16.2169 8.7379 16.3252L8.73837 16.3242ZM8.76429 17.408C8.76853 17.5199 8.77371 17.6324 8.77889 17.7438C8.78078 17.7802 8.78219 17.8166 8.78407 17.853C8.79161 18.0023 8.80009 18.1511 8.80952 18.2995C8.81046 18.3158 8.81187 18.3317 8.81281 18.348C8.82177 18.4842 8.83119 18.62 8.84155 18.7557C8.84438 18.7907 8.84674 18.8257 8.84956 18.8607C8.86134 19.0067 8.87359 19.1523 8.88679 19.2969C8.88726 19.3039 8.88773 19.3109 8.88867 19.3179C8.03871 18.6764 7.24906 18.0144 6.53385 17.3431C6.5805 17.2941 6.62714 17.2447 6.67426 17.1957C6.68227 17.1873 6.69075 17.1789 6.69876 17.1705C6.74116 17.1262 6.78451 17.0823 6.82738 17.038C6.84528 17.0198 6.86319 17.0016 6.88109 16.9839C6.91549 16.9494 6.94988 16.9144 6.98427 16.8799C7.00453 16.8598 7.02479 16.8397 7.04505 16.8197C7.07803 16.787 7.11149 16.7539 7.14494 16.7212C7.16567 16.7007 7.1864 16.6807 7.20713 16.6601C7.24152 16.6265 7.27592 16.5934 7.31078 16.5598C7.33057 16.5407 7.35036 16.5216 7.37015 16.5024C7.40925 16.4651 7.44883 16.4273 7.48888 16.39C7.5016 16.3779 7.51432 16.3662 7.52704 16.3541C7.9181 16.7072 8.33318 17.0609 8.76334 17.4075L8.76429 17.408ZM2.83908 9.61055C2.88714 9.52798 2.94132 9.44867 3.00069 9.37262C3.09256 10.8669 4.06455 12.6998 5.80215 14.6331C5.79085 14.6443 5.78001 14.655 5.7687 14.6662C5.73101 14.7031 5.69379 14.7399 5.65704 14.7768C5.63772 14.7959 5.61841 14.815 5.59956 14.8346C5.56517 14.8692 5.53077 14.9037 5.49638 14.9387C5.47706 14.9583 5.45774 14.9779 5.43843 14.9974C5.40309 15.0334 5.36822 15.0693 5.33336 15.1057C5.3164 15.1229 5.29944 15.1407 5.28295 15.1579C5.23583 15.2069 5.18919 15.2564 5.14254 15.3054C5.13877 15.3096 5.135 15.3133 5.13123 15.3175C5.08129 15.3702 5.03229 15.4234 4.98376 15.4761C4.96822 15.4929 4.95314 15.5092 4.93806 15.526C4.91403 15.5521 4.89 15.5783 4.86598 15.6044C2.78019 13.1542 2.04142 10.9793 2.83908 9.61055ZM3.46336 20.8289C3.45393 20.8509 3.44451 20.8728 3.43509 20.8947C3.41718 20.9372 3.40069 20.9796 3.38373 21.0216C3.37714 21.0389 3.37007 21.0561 3.36347 21.0729C3.34086 21.1317 3.31871 21.1905 3.29845 21.2488C3.29516 21.2586 3.29186 21.2684 3.28856 21.2782C3.2716 21.3263 3.25558 21.3743 3.24003 21.4224C3.23344 21.4429 3.22731 21.4634 3.22071 21.4844C3.20941 21.5213 3.1981 21.5581 3.18726 21.5945C3.18067 21.6174 3.17454 21.6402 3.16795 21.6631C3.15852 21.6971 3.14957 21.7312 3.14062 21.7648C3.13449 21.7881 3.12884 21.8114 3.12319 21.8348C3.11518 21.8679 3.10764 21.901 3.1001 21.9341C3.09492 21.957 3.08973 21.9798 3.08502 22.0027C3.07796 22.0368 3.07136 22.0708 3.06523 22.1044C3.06146 22.1254 3.05722 22.1464 3.05346 22.1674C3.04639 22.2075 3.04073 22.2476 3.03508 22.2873C3.0332 22.3013 3.03037 22.3157 3.02896 22.3297C3.02189 22.3825 3.01576 22.4352 3.01105 22.4874C3.00917 22.5047 3.00822 22.5219 3.00681 22.5392C3.00446 22.5686 3.00163 22.5975 2.99974 22.6264C2.94085 22.5504 2.88714 22.4706 2.83908 22.3885C2.01692 20.9778 2.82636 18.7109 5.06056 16.1698C5.4502 15.7266 5.88366 15.2764 6.34822 14.8309C6.43491 14.7479 6.52349 14.6648 6.61254 14.5822C6.62667 14.5692 6.6408 14.5557 6.65541 14.5426C6.74116 14.4633 6.82785 14.384 6.91596 14.3047C6.93245 14.2902 6.94847 14.2753 6.96496 14.2608C7.05448 14.1806 7.14494 14.1003 7.23681 14.0201C7.24576 14.0122 7.25472 14.0042 7.26414 13.9968C7.35366 13.9189 7.44412 13.8409 7.53599 13.7635C7.5473 13.7542 7.55814 13.7444 7.56945 13.735C7.66273 13.6562 7.75696 13.5778 7.85214 13.499C7.87051 13.4841 7.88889 13.4687 7.90726 13.4537C8.00149 13.3763 8.09666 13.2993 8.19231 13.2228C8.2088 13.2097 8.22529 13.1967 8.24178 13.1832C8.33789 13.1062 8.43542 13.0297 8.53342 12.9536C8.53908 12.9494 8.54426 12.9452 8.54991 12.941C8.6498 12.8636 8.75109 12.7861 8.85286 12.7092C8.86511 12.6998 8.87689 12.691 8.88914 12.6816C8.88867 12.6886 8.88773 12.6961 8.88726 12.7031C8.87454 12.8398 8.86276 12.9774 8.85192 13.1155C8.84909 13.151 8.84627 13.1869 8.84344 13.2223C8.83496 13.3348 8.82648 13.4477 8.81894 13.561C8.81658 13.5956 8.81423 13.6296 8.81187 13.6641C8.80292 13.8032 8.79491 13.9431 8.78737 14.0826C8.78596 14.1134 8.78455 14.1437 8.78266 14.1745C8.77701 14.2902 8.77182 14.4059 8.76711 14.5216C8.76617 14.5449 8.76476 14.5678 8.76382 14.5911C8.74403 14.607 8.72424 14.6233 8.70445 14.6392C8.68937 14.6513 8.67383 14.6639 8.65875 14.676C8.6465 14.6858 8.63472 14.6956 8.62294 14.7054C8.58666 14.7353 8.55038 14.7651 8.5141 14.795C8.48678 14.8174 8.45945 14.8398 8.4326 14.8626C8.39632 14.8925 8.36051 14.9223 8.3247 14.9527C8.29785 14.9751 8.27099 14.9974 8.24461 15.0198C8.20833 15.0506 8.17252 15.081 8.13671 15.1117C8.11127 15.1337 8.08536 15.1556 8.05991 15.1771C8.02316 15.2088 7.98641 15.2405 7.94966 15.2722C7.93035 15.2886 7.91103 15.3054 7.89218 15.3217C7.88841 15.3249 7.88465 15.3287 7.88041 15.3319C7.87946 15.3329 7.87852 15.3338 7.87758 15.3347C7.83894 15.3683 7.80125 15.4019 7.76309 15.4355C7.74142 15.4546 7.71974 15.4738 7.69854 15.4924C7.65661 15.5297 7.61515 15.5671 7.57369 15.6044C7.55672 15.6198 7.53929 15.6352 7.52186 15.6506C7.46344 15.7033 7.40548 15.756 7.34847 15.8087C7.34847 15.8087 7.348 15.8087 7.34753 15.8092L7.14117 15.9991L7.14211 16C7.08981 16.0495 7.03751 16.0984 6.98569 16.1479C6.62903 16.4889 6.28933 16.8346 5.97224 17.1784L5.80027 17.365L5.80121 17.366C5.7965 17.3711 5.79226 17.3762 5.78755 17.3814C5.76823 17.4033 5.74891 17.4248 5.7296 17.4462C5.68861 17.4919 5.64809 17.5381 5.60804 17.5838C5.5859 17.6095 5.56422 17.6347 5.54208 17.6599C5.5058 17.7019 5.46952 17.7443 5.43371 17.7863C5.41157 17.8129 5.38895 17.839 5.36728 17.8656C5.33242 17.9071 5.29802 17.9487 5.26363 17.9902C5.25091 18.0056 5.23819 18.021 5.22547 18.0359C5.21698 18.0462 5.20897 18.0569 5.20049 18.0671C5.16516 18.1105 5.13029 18.1539 5.0959 18.1968C5.07705 18.2202 5.05868 18.2435 5.0403 18.2668C5.00025 18.3177 4.96115 18.3681 4.92251 18.4184C4.91074 18.4338 4.89801 18.4497 4.88624 18.4651C4.83535 18.5313 4.78588 18.5976 4.73688 18.6638C4.72793 18.676 4.71945 18.6876 4.71097 18.6997C4.67186 18.7534 4.63276 18.807 4.59459 18.8602C4.57904 18.8817 4.56444 18.9032 4.54889 18.9251C4.51827 18.9689 4.48764 19.0123 4.45749 19.0562C4.441 19.08 4.42498 19.1042 4.40849 19.128C4.38069 19.1695 4.35289 19.2106 4.32557 19.2516C4.30955 19.2759 4.29353 19.3002 4.27798 19.3244C4.25112 19.3659 4.22474 19.407 4.19835 19.448C4.18375 19.4714 4.16867 19.4947 4.15454 19.5176C4.12674 19.5619 4.09988 19.6057 4.0735 19.6496C4.06172 19.6692 4.04947 19.6888 4.03769 19.7084C4.00188 19.7681 3.96749 19.8273 3.93357 19.8866C3.93168 19.8903 3.92933 19.894 3.92744 19.8973C3.89116 19.9608 3.8563 20.0237 3.82238 20.0862C3.81295 20.1035 3.804 20.1203 3.79505 20.1376C3.77102 20.1823 3.74699 20.2276 3.72438 20.2719C3.71307 20.2943 3.70176 20.3162 3.69092 20.3382C3.67114 20.3778 3.65135 20.4175 3.63203 20.4567C3.62072 20.4805 3.60941 20.5038 3.59811 20.5271C3.5802 20.5654 3.5623 20.6031 3.54487 20.6409C3.53403 20.6643 3.52366 20.6881 3.51283 20.7114C3.49587 20.7501 3.47891 20.7884 3.46289 20.8266L3.46336 20.8289ZM3.52932 23.1112C3.52743 23.0883 3.52602 23.0645 3.52461 23.0412C3.52319 23.0174 3.52131 22.9931 3.52037 22.9689C3.51942 22.9451 3.51895 22.9213 3.51895 22.8975C3.51895 22.8732 3.51801 22.8485 3.51848 22.8242C3.51848 22.8 3.51942 22.7753 3.52037 22.751C3.52131 22.7263 3.52178 22.7016 3.52319 22.6764C3.52461 22.6516 3.52649 22.6264 3.52838 22.6017C3.53026 22.5765 3.53215 22.5513 3.5345 22.5257C3.53686 22.5005 3.53968 22.4748 3.54298 22.4496C3.54581 22.424 3.54911 22.3983 3.55241 22.3722C3.5557 22.3465 3.55994 22.3204 3.56418 22.2947C3.56842 22.2686 3.57266 22.2425 3.57691 22.2164C3.58162 22.1902 3.5868 22.1637 3.59198 22.1375C3.59716 22.1109 3.60235 22.0843 3.60847 22.0578C3.61413 22.0312 3.62025 22.0041 3.62685 21.977C3.63297 21.95 3.63957 21.9234 3.64664 21.8963C3.6537 21.8693 3.66077 21.8418 3.66831 21.8147C3.67585 21.7872 3.68339 21.7601 3.69139 21.7326C3.6994 21.7051 3.70741 21.6775 3.71589 21.6496C3.72438 21.622 3.73333 21.594 3.74228 21.566C3.75123 21.5381 3.76065 21.5101 3.77008 21.4821C3.7795 21.4541 3.78939 21.4256 3.79976 21.3976C3.81013 21.3692 3.82049 21.3407 3.83086 21.3123C3.84169 21.2838 3.85253 21.2553 3.86384 21.2269C3.87514 21.198 3.88645 21.1695 3.89823 21.1406C3.91001 21.1117 3.92226 21.0827 3.93451 21.0538C3.94676 21.0249 3.95948 20.9955 3.9722 20.9666C3.98492 20.9376 3.99811 20.9083 4.01131 20.8789C4.0245 20.8495 4.03816 20.8201 4.0523 20.7902C4.06596 20.7608 4.08057 20.731 4.0947 20.7016C4.10931 20.6717 4.12344 20.6419 4.13852 20.612C4.15359 20.5822 4.16867 20.5518 4.18422 20.522C4.19977 20.4921 4.21532 20.4618 4.23133 20.4315C4.24735 20.4011 4.26384 20.3708 4.28033 20.3405C4.29682 20.3102 4.31332 20.2798 4.33028 20.2491C4.34724 20.2183 4.36514 20.1875 4.38257 20.1572C4.40001 20.1264 4.41744 20.096 4.43581 20.0653C4.45419 20.034 4.47256 20.0032 4.49141 19.9719C4.50979 19.9412 4.52816 19.9104 4.54748 19.8791C4.56679 19.8479 4.58658 19.8161 4.60637 19.7849C4.62569 19.7536 4.64548 19.7228 4.66527 19.6916C4.68553 19.6598 4.70673 19.6281 4.72746 19.5959C4.74772 19.5647 4.76845 19.5334 4.78918 19.5022C4.81038 19.47 4.83252 19.4378 4.85467 19.4056C4.87634 19.3739 4.89754 19.3426 4.91969 19.3109C4.9423 19.2787 4.96539 19.246 4.98848 19.2134C5.01062 19.1817 5.03323 19.1504 5.05585 19.1187C5.07988 19.0856 5.10438 19.0524 5.12888 19.0193C5.15197 18.9881 5.17458 18.9563 5.19814 18.9251C5.22311 18.8915 5.24902 18.8574 5.27494 18.8238C5.29896 18.7926 5.32205 18.7613 5.34655 18.7296C5.37294 18.6951 5.40026 18.6606 5.42759 18.6265C5.45209 18.5952 5.47612 18.5645 5.50109 18.5332C5.52936 18.4982 5.5581 18.4628 5.58684 18.4273C5.61181 18.3965 5.63631 18.3662 5.66175 18.3354C5.69143 18.299 5.72253 18.2626 5.75268 18.2262C5.77765 18.1964 5.80263 18.166 5.82807 18.1362C5.86058 18.0979 5.89403 18.0597 5.92701 18.021C5.95151 17.9925 5.97554 17.9645 6.00051 17.9361C6.03773 17.8931 6.07636 17.8502 6.11453 17.8073C6.1362 17.783 6.15693 17.7592 6.1786 17.735C6.18002 17.7336 6.18143 17.7322 6.18285 17.7303C7.01914 18.5141 7.95343 19.2848 8.965 20.0256C8.9796 20.1534 8.99468 20.2812 9.0107 20.4077C9.01777 20.4637 9.02578 20.5187 9.03284 20.5742C9.04698 20.6825 9.06111 20.7907 9.07666 20.898C9.08608 20.9633 9.09598 21.0281 9.10587 21.093C9.12001 21.1896 9.13461 21.2861 9.14969 21.3818C9.16053 21.4503 9.17183 21.518 9.18314 21.5861C9.19822 21.6775 9.21329 21.769 9.22931 21.8595C9.24156 21.929 9.25428 21.9976 9.26653 22.0666C9.28255 22.1548 9.29904 22.243 9.31553 22.3307C9.32873 22.3997 9.34239 22.4688 9.35652 22.5373C9.37396 22.6236 9.39139 22.7095 9.40929 22.7944C9.4239 22.863 9.4385 22.9311 9.45311 22.9987C9.47149 23.0832 9.49033 23.1671 9.50965 23.2511C9.5252 23.3183 9.54027 23.385 9.55629 23.4512C9.56477 23.4867 9.57278 23.5226 9.58126 23.5581C6.85282 24.1142 4.71898 23.9635 3.5345 23.1307C3.53403 23.1252 3.53309 23.1191 3.53262 23.1135L3.52932 23.1112ZM3.83086 24.0899C3.78233 24.0069 3.74039 23.9206 3.70317 23.8315C4.46785 24.2098 5.46669 24.4015 6.654 24.4015C7.56756 24.4015 8.59232 24.2882 9.70565 24.0605C9.70989 24.0769 9.7146 24.0932 9.71884 24.1095C9.73156 24.1576 9.74428 24.2056 9.75747 24.2537C9.76501 24.2817 9.77302 24.3101 9.78056 24.3381C9.79281 24.3829 9.80553 24.4277 9.81825 24.472C9.82626 24.5 9.83427 24.528 9.84181 24.5555C9.85547 24.6026 9.86914 24.6493 9.8828 24.6959C9.88987 24.7197 9.89694 24.744 9.904 24.7678C9.92379 24.834 9.94358 24.8993 9.96384 24.9646C9.96525 24.9684 9.96619 24.9726 9.96761 24.9763C9.98928 25.0458 10.011 25.1153 10.0331 25.1839C10.0392 25.2035 10.0458 25.2231 10.0519 25.2427C10.0633 25.2781 10.0746 25.3136 10.0863 25.3486C6.90041 25.9121 4.62899 25.4587 3.83086 24.0899ZM15.0075 30.4794C13.3627 30.4794 11.7853 28.6515 10.6795 25.4647C10.4863 24.9082 10.3087 24.3115 10.1523 23.691C9.85076 22.4986 9.62178 21.2068 9.47101 19.8525C9.3782 19.0151 9.31506 18.1465 9.28444 17.2717C9.26983 16.8547 9.26229 16.4269 9.26229 16C9.26229 15.5731 9.26983 15.1453 9.28444 14.7283C9.31553 13.8531 9.3782 12.9849 9.47101 12.1475C9.50871 11.8088 9.55111 11.4743 9.5987 11.144C9.62838 10.9373 9.66042 10.7335 9.69387 10.5305C9.82061 9.7603 9.97326 9.01667 10.1523 8.30803C10.1759 8.21426 10.2004 8.12142 10.2249 8.02858C10.3629 7.50935 10.5151 7.00784 10.6795 6.53479C11.7853 3.34753 13.3627 1.5197 15.0075 1.5197C15.1036 1.5197 15.2002 1.52623 15.2963 1.53883C15.27 1.55609 15.244 1.57429 15.2177 1.59248C15.2054 1.60088 15.1932 1.60881 15.1809 1.61721C15.1371 1.648 15.0937 1.67972 15.0504 1.71284C15.0419 1.71937 15.0334 1.72637 15.025 1.7329C14.9901 1.75996 14.9557 1.78702 14.9208 1.81548C14.9057 1.82761 14.8907 1.84067 14.8756 1.85326C14.8478 1.87659 14.8195 1.90038 14.7917 1.92511C14.7752 1.93957 14.7588 1.9545 14.7423 1.96943C14.7159 1.99322 14.69 2.01701 14.6636 2.04174C14.6466 2.0576 14.6301 2.07346 14.6136 2.08932C14.5877 2.11451 14.5613 2.14017 14.5354 2.1663C14.5194 2.18263 14.5034 2.19849 14.4874 2.21482C14.4596 2.24327 14.4322 2.2722 14.4049 2.30112C14.3908 2.31605 14.3766 2.33098 14.363 2.34591C14.3276 2.38416 14.2928 2.42335 14.2579 2.46347C14.2523 2.47 14.2461 2.47653 14.2405 2.48307C14.1995 2.53018 14.159 2.57824 14.1189 2.62722C14.1076 2.64122 14.0963 2.65568 14.0845 2.66967C14.0558 2.70513 14.0271 2.74105 13.9988 2.77744C13.9842 2.7961 13.9696 2.81569 13.955 2.83435C13.9295 2.86748 13.9046 2.9006 13.8796 2.93466C13.864 2.95565 13.849 2.97664 13.8334 2.99764C13.8094 3.03123 13.7854 3.06482 13.7613 3.09887C13.7462 3.1208 13.7307 3.14226 13.7156 3.16418C13.6911 3.19964 13.6671 3.23556 13.6426 3.27195C13.6285 3.29341 13.6143 3.3144 13.5997 3.33586C13.5729 3.37692 13.546 3.41844 13.5196 3.46042C13.5083 3.47815 13.4975 3.49495 13.4862 3.51267C13.4485 3.57285 13.4113 3.63397 13.374 3.69602C13.3703 3.70255 13.366 3.70954 13.3623 3.71608C13.3293 3.77159 13.2968 3.82757 13.2643 3.88496C13.252 3.90642 13.2402 3.92834 13.228 3.9498C13.2039 3.99272 13.1799 4.03611 13.1559 4.08043C13.1422 4.10562 13.1286 4.13128 13.1149 4.15694C13.0928 4.19846 13.0706 4.24044 13.0485 4.28243C13.0343 4.30949 13.0207 4.33655 13.0065 4.36361C12.9849 4.40606 12.9632 4.44898 12.942 4.49236C12.9283 4.51942 12.9151 4.54648 12.9015 4.57401C12.8793 4.61972 12.8572 4.66591 12.835 4.71256C12.8228 4.73822 12.811 4.76341 12.7988 4.78907C12.7724 4.84552 12.7465 4.9029 12.7205 4.96028C12.713 4.97661 12.7059 4.99247 12.6984 5.0088C12.6654 5.08298 12.6324 5.15809 12.5999 5.23413C12.5915 5.25466 12.583 5.27518 12.574 5.29571C12.5505 5.35169 12.5269 5.40814 12.5033 5.46552C12.4916 5.49445 12.4798 5.52337 12.4685 5.5523C12.4487 5.60221 12.4284 5.65213 12.4091 5.70252C12.3969 5.73424 12.3841 5.76643 12.3719 5.79862C12.353 5.8476 12.3347 5.89659 12.3158 5.94604C12.3036 5.97916 12.2913 6.01229 12.2791 6.04587C12.2607 6.09626 12.2423 6.14711 12.224 6.19796C12.2122 6.23062 12.2004 6.26374 12.1886 6.29686C12.1693 6.35191 12.15 6.40789 12.1311 6.46388C12.1212 6.49327 12.1109 6.52219 12.101 6.55205C12.0991 6.55811 12.0967 6.56418 12.0949 6.57024H12.0934L12.0171 6.80817C12.0171 6.8091 12.0166 6.81003 12.0162 6.8105L11.9342 7.06569H11.9361C11.8042 7.49535 11.6817 7.94321 11.57 8.40273H11.5686L11.5054 8.67424C11.5054 8.67424 11.5054 8.67471 11.5054 8.67518L11.4513 8.91077H11.4522C11.3382 9.42534 11.2369 9.95764 11.1488 10.4983H11.1483L11.1299 10.614C11.1299 10.6145 11.1299 10.615 11.1299 10.6159C11.1134 10.7195 11.0974 10.8235 11.0819 10.9285C11.0046 11.4514 10.9391 11.9851 10.8864 12.5244C10.8694 12.6989 10.8538 12.8739 10.8397 13.0493H10.8392L10.8293 13.1734C10.7563 14.0947 10.7196 15.0455 10.7196 15.9986C10.7196 16.1176 10.72 16.237 10.7215 16.356C10.7229 16.481 10.7247 16.606 10.7271 16.731C10.7412 17.4373 10.7752 18.139 10.8293 18.8238C10.8293 18.8257 10.8293 18.828 10.8298 18.8299L10.8392 18.9479C10.8977 19.6654 10.9787 20.3769 11.0814 21.0687C11.097 21.1732 11.113 21.2773 11.1295 21.3813C11.1295 21.3836 11.1304 21.386 11.1304 21.3888L11.1478 21.4989H11.1483C11.1554 21.5427 11.1624 21.5866 11.1695 21.6304C11.2524 22.1263 11.3467 22.6143 11.4513 23.0864H11.4503L11.5045 23.322C11.5045 23.322 11.5045 23.3225 11.5045 23.323L11.5676 23.5949H11.5691C11.6802 24.0526 11.8027 24.5 11.9351 24.9315H11.9333L12.0152 25.1872L12.0925 25.4279H12.0939C12.0963 25.434 12.0982 25.44 12.1005 25.4466C12.1099 25.4745 12.1198 25.5025 12.1293 25.5305C12.1486 25.5879 12.1684 25.6448 12.1881 25.7013C12.1995 25.7339 12.2112 25.7661 12.2225 25.7983C12.2409 25.8496 12.2593 25.9009 12.2781 25.9518C12.2904 25.9849 12.3026 26.018 12.3149 26.0507C12.3333 26.1006 12.3521 26.1496 12.371 26.1986C12.3832 26.2308 12.3955 26.2625 12.4082 26.2942C12.428 26.3446 12.4478 26.3945 12.4675 26.444C12.4793 26.4734 12.4911 26.5023 12.5029 26.5312C12.5264 26.5881 12.55 26.6446 12.5735 26.701C12.582 26.7215 12.5905 26.7421 12.5995 26.7621C12.632 26.8382 12.6645 26.9133 12.6979 26.9875C12.7055 27.0038 12.7125 27.0201 12.7201 27.0364C12.746 27.0938 12.7719 27.1512 12.7983 27.2077C12.8101 27.2333 12.8223 27.2585 12.8341 27.2837C12.8562 27.3304 12.8784 27.377 12.9005 27.4227C12.9137 27.4503 12.9274 27.4768 12.9406 27.5039C12.9622 27.5473 12.9839 27.5907 13.0056 27.6331C13.0193 27.6602 13.0329 27.6868 13.0466 27.7134C13.0687 27.7563 13.0913 27.7987 13.1135 27.8407C13.1267 27.8659 13.1403 27.8906 13.1535 27.9154C13.178 27.9602 13.2025 28.0045 13.227 28.0488C13.2388 28.0693 13.2501 28.0903 13.2619 28.1108C13.2958 28.1706 13.3297 28.2293 13.3641 28.2872C13.3665 28.2914 13.3689 28.2956 13.3717 28.2998C13.4089 28.3623 13.4466 28.4239 13.4843 28.4845C13.4947 28.5009 13.5045 28.5167 13.5149 28.5326C13.5422 28.576 13.57 28.6194 13.5978 28.6618C13.611 28.6823 13.6247 28.7024 13.6384 28.7225C13.6633 28.7598 13.6883 28.7971 13.7137 28.8339C13.7283 28.8549 13.7425 28.8759 13.7571 28.8965C13.7821 28.9319 13.807 28.9669 13.832 29.0014C13.8466 29.0215 13.8612 29.0416 13.8758 29.0616C13.9017 29.0966 13.9276 29.1311 13.954 29.1652C13.9677 29.1829 13.9813 29.2011 13.995 29.2188C14.0247 29.2571 14.0548 29.2949 14.085 29.3322C14.0949 29.3448 14.1048 29.3574 14.1152 29.3695C14.1557 29.419 14.1967 29.4679 14.2381 29.5155C14.2419 29.5202 14.2461 29.5244 14.2499 29.5286C14.2867 29.5711 14.3239 29.6121 14.3611 29.6527C14.3738 29.6667 14.387 29.6802 14.4002 29.6942C14.4285 29.7245 14.4572 29.7549 14.486 29.7842C14.501 29.8001 14.5166 29.815 14.5317 29.8304C14.5585 29.8575 14.5854 29.8841 14.6122 29.9097C14.6282 29.9251 14.6443 29.9405 14.6603 29.9555C14.6871 29.9807 14.714 30.0054 14.7413 30.0301C14.7573 30.0446 14.7729 30.0586 14.7889 30.0726C14.8176 30.0978 14.8464 30.1225 14.8751 30.1463C14.8893 30.1584 14.9034 30.1705 14.918 30.1822C14.9538 30.2116 14.9901 30.24 15.0264 30.268C15.0334 30.2736 15.0405 30.2792 15.0476 30.2848C15.0909 30.3179 15.1347 30.3501 15.179 30.3809C15.1908 30.3893 15.2026 30.3968 15.2144 30.4047C15.2407 30.4229 15.2671 30.4416 15.294 30.4588C15.1979 30.4714 15.1013 30.4775 15.0052 30.4775L15.0075 30.4794ZM16.5863 29.9079C16.5661 29.9228 16.5463 29.9373 16.526 29.9517C16.5044 29.9671 16.4822 29.9816 16.4606 29.9965C16.4403 30.01 16.42 30.024 16.3998 30.0371C16.3781 30.0511 16.356 30.0646 16.3338 30.0782C16.3136 30.0908 16.2928 30.1034 16.2726 30.115C16.2504 30.1276 16.2283 30.1397 16.2061 30.1519C16.1854 30.1631 16.1647 30.1747 16.1444 30.1855C16.1223 30.1971 16.1001 30.2078 16.078 30.2186C16.0572 30.2288 16.0365 30.2391 16.0158 30.2484C16.0106 30.2508 16.0054 30.2531 16.0002 30.2554C15.9946 30.2531 15.9894 30.2508 15.9837 30.248C15.9654 30.2396 15.947 30.2302 15.9286 30.2214C15.9046 30.2097 15.8806 30.1981 15.8565 30.1855C15.8377 30.1757 15.8193 30.1654 15.8005 30.1551C15.7769 30.1421 15.7534 30.1295 15.7303 30.1159C15.7114 30.1052 15.6926 30.0936 15.6737 30.0824C15.6506 30.0684 15.6276 30.0544 15.6045 30.0394C15.5856 30.0273 15.5668 30.0147 15.5479 30.0026C15.5253 29.9872 15.5022 29.9718 15.4796 29.9559C15.4608 29.9429 15.4419 29.9293 15.4235 29.9158C15.4009 29.8995 15.3783 29.8827 15.3562 29.8654C15.3373 29.851 15.3185 29.8365 15.3001 29.822C15.278 29.8043 15.2558 29.7866 15.2337 29.7679C15.2148 29.7525 15.1965 29.7371 15.1781 29.7213C15.1559 29.7026 15.1338 29.683 15.1121 29.6634C15.0937 29.6471 15.0754 29.6308 15.057 29.614C15.0348 29.5939 15.0132 29.5729 14.991 29.5524C14.9727 29.5351 14.9547 29.5179 14.9364 29.5001C14.9142 29.4787 14.8926 29.4563 14.8709 29.4339C14.853 29.4157 14.8351 29.398 14.8176 29.3793C14.7955 29.356 14.7734 29.3322 14.7512 29.3084C14.7338 29.2897 14.7168 29.2711 14.6994 29.252C14.6768 29.2268 14.6542 29.2006 14.6315 29.1745C14.615 29.1558 14.5986 29.1372 14.5825 29.1181C14.5585 29.0896 14.5345 29.0602 14.5105 29.0308C14.4958 29.0131 14.4812 28.9958 14.4671 28.9776C14.436 28.9385 14.4049 28.8983 14.3743 28.8582C14.3672 28.8489 14.3602 28.84 14.3531 28.8307C14.3154 28.7812 14.2782 28.7304 14.2414 28.6786C14.2278 28.6595 14.2136 28.6389 14.2 28.6194C14.1764 28.5862 14.1533 28.5531 14.1298 28.519C14.1137 28.4957 14.0982 28.4719 14.0826 28.4481C14.0614 28.4169 14.0407 28.3856 14.02 28.3534C14.0035 28.3282 13.987 28.3021 13.971 28.276C13.9512 28.2447 13.9314 28.2135 13.9116 28.1813C13.8951 28.1542 13.8786 28.1267 13.8617 28.0992C13.8424 28.0675 13.823 28.0357 13.8042 28.0031C13.7877 27.9746 13.7712 27.9462 13.7547 27.9172C13.7359 27.8846 13.717 27.8519 13.6987 27.8188C13.6822 27.7894 13.6657 27.7596 13.6497 27.7297C13.6313 27.6961 13.6129 27.6625 13.5945 27.6285C13.578 27.5977 13.562 27.5669 13.5455 27.5361C13.5276 27.5016 13.5097 27.467 13.4918 27.4325C13.4758 27.4008 13.4598 27.3691 13.4438 27.3369C13.4259 27.3014 13.4084 27.266 13.391 27.2301C13.375 27.1974 13.3594 27.1652 13.3434 27.1321C13.326 27.0957 13.3085 27.0588 13.2911 27.0215C13.2756 26.9884 13.26 26.9548 13.2445 26.9212C13.227 26.8834 13.2101 26.8452 13.1931 26.8069C13.178 26.7729 13.163 26.7393 13.1479 26.7048C13.1309 26.6656 13.114 26.6259 13.097 26.5863C13.0824 26.5517 13.0678 26.5177 13.0532 26.4827C13.0362 26.4421 13.0193 26.4006 13.0023 26.3595C12.9882 26.325 12.974 26.2905 12.9599 26.255C12.9429 26.2126 12.926 26.1692 12.909 26.1258C12.8953 26.0913 12.8817 26.0568 12.8685 26.0218C12.8511 25.9765 12.8341 25.9308 12.8171 25.8851C12.8044 25.851 12.7917 25.817 12.779 25.7829C12.7611 25.7339 12.7432 25.684 12.7257 25.6346C12.7144 25.6024 12.7026 25.5706 12.6913 25.5385C12.6711 25.4801 12.6508 25.4209 12.6306 25.3616C12.6221 25.3374 12.6136 25.3136 12.6056 25.2889C12.6051 25.2875 12.6046 25.2861 12.6042 25.2847C12.6117 25.2823 12.6197 25.28 12.6273 25.2777C12.7615 25.238 12.8958 25.1974 13.031 25.155C13.0315 25.155 13.032 25.155 13.0324 25.1545C13.1672 25.1125 13.3019 25.0687 13.4376 25.0239C13.4504 25.0197 13.4626 25.0155 13.4753 25.0113C13.6044 24.9684 13.734 24.9245 13.8636 24.8793C13.8824 24.8727 13.9013 24.8662 13.9206 24.8597C14.0473 24.8154 14.1741 24.7701 14.3013 24.7234C14.3229 24.7155 14.3441 24.7076 14.3658 24.6997C14.4925 24.653 14.6193 24.6054 14.7465 24.5569C14.7677 24.5485 14.7894 24.5406 14.811 24.5322C14.9392 24.4827 15.0678 24.4323 15.1969 24.3806C15.2158 24.3731 15.2341 24.3656 15.253 24.3582C15.3854 24.305 15.5182 24.2509 15.6511 24.1953C15.6634 24.1902 15.6761 24.1846 15.6883 24.1795C15.7929 24.1356 15.8975 24.0913 16.0021 24.0461C17.1564 24.5443 18.2976 24.96 19.3996 25.2842C19.3991 25.2861 19.3982 25.2884 19.3977 25.2903C19.3888 25.3164 19.3798 25.3421 19.3709 25.3677C19.3506 25.4265 19.3308 25.4857 19.3105 25.5436C19.2992 25.5758 19.2875 25.607 19.2762 25.6392C19.2578 25.6901 19.2399 25.7414 19.2215 25.7918C19.2088 25.8258 19.1961 25.859 19.1838 25.893C19.1659 25.9401 19.1485 25.9877 19.1306 26.0344C19.1174 26.0689 19.1037 26.1029 19.0905 26.137C19.0731 26.1818 19.0557 26.227 19.0378 26.2709C19.0241 26.3054 19.01 26.339 18.9958 26.3731C18.9784 26.416 18.9605 26.4594 18.9426 26.5018C18.9284 26.5359 18.9138 26.569 18.8992 26.6026C18.8813 26.6441 18.8634 26.6861 18.8455 26.7267C18.8309 26.7598 18.8158 26.7929 18.8012 26.8256C18.7833 26.8657 18.7654 26.9063 18.747 26.9459C18.732 26.9786 18.7169 27.0108 18.7013 27.043C18.683 27.0817 18.6651 27.1204 18.6467 27.1587C18.6311 27.1909 18.6156 27.2226 18.6001 27.2543C18.5817 27.2916 18.5633 27.329 18.5449 27.3658C18.5289 27.3975 18.5129 27.4283 18.4969 27.4596C18.4785 27.4955 18.4596 27.5314 18.4413 27.5669C18.4248 27.5977 18.4088 27.628 18.3923 27.6583C18.3734 27.6928 18.3546 27.7278 18.3357 27.7619C18.3192 27.7917 18.3028 27.8211 18.2858 27.8505C18.2669 27.8841 18.2476 27.9177 18.2288 27.9508C18.2118 27.9798 18.1949 28.0082 18.1779 28.0367C18.1586 28.0689 18.1397 28.1015 18.1204 28.1332C18.1035 28.1612 18.086 28.1892 18.0686 28.2167C18.0493 28.248 18.03 28.2788 18.0102 28.3096C17.9927 28.3366 17.9753 28.3637 17.9579 28.3903C17.9381 28.4201 17.9188 28.45 17.899 28.4794C17.8811 28.5055 17.8636 28.5316 17.8457 28.5573C17.8259 28.5862 17.8062 28.6147 17.7864 28.6427C17.7685 28.6679 17.7506 28.6931 17.7322 28.7178C17.7124 28.7453 17.6921 28.7724 17.6719 28.7994C17.6535 28.8237 17.6351 28.8479 17.6172 28.8717C17.597 28.8979 17.5767 28.924 17.5564 28.9496C17.5381 28.973 17.5197 28.9958 17.5009 29.0187C17.4806 29.0439 17.4599 29.0686 17.4396 29.0933C17.4208 29.1157 17.4024 29.1377 17.3835 29.1596C17.3628 29.1834 17.3425 29.2072 17.3218 29.2305C17.303 29.252 17.2841 29.2729 17.2648 29.2935C17.2441 29.3163 17.2233 29.3383 17.2026 29.3606C17.1833 29.3807 17.1645 29.4008 17.1451 29.4208C17.1244 29.4423 17.1032 29.4633 17.082 29.4843C17.0627 29.5034 17.0434 29.5225 17.024 29.5412C17.0028 29.5613 16.9816 29.5813 16.9604 29.6009C16.9407 29.6191 16.9213 29.6368 16.9015 29.6546C16.8803 29.6737 16.8591 29.6919 16.8375 29.7105C16.8177 29.7278 16.7979 29.7446 16.7781 29.7609C16.7569 29.7787 16.7352 29.7959 16.7136 29.8132C16.6938 29.829 16.6735 29.8449 16.6537 29.8603C16.6321 29.8766 16.6104 29.8929 16.5887 29.9088L16.5863 29.9079ZM21.7869 23.9224C21.7591 24.0288 21.7299 24.1338 21.7012 24.2383C21.5829 24.6628 21.4552 25.0738 21.32 25.4647L21.3191 25.4671C20.2133 28.6525 18.6363 30.4789 16.992 30.4789C16.8959 30.4789 16.7998 30.4724 16.7032 30.4602C16.7296 30.443 16.7555 30.4248 16.7819 30.4066C16.7941 30.3982 16.8064 30.3903 16.8182 30.3819C16.862 30.3511 16.9053 30.3189 16.9491 30.2862C16.9571 30.2802 16.9652 30.2736 16.9732 30.2676C17.0085 30.24 17.0438 30.2125 17.0792 30.1836C17.0938 30.1715 17.1084 30.1589 17.123 30.1467C17.1513 30.1229 17.18 30.0987 17.2083 30.0735C17.2243 30.0595 17.2403 30.045 17.2563 30.0306C17.2832 30.0063 17.31 29.9816 17.3369 29.9564C17.3529 29.941 17.3694 29.9256 17.3854 29.9102C17.4123 29.8846 17.4391 29.858 17.4655 29.8314C17.4811 29.816 17.4961 29.8006 17.5117 29.7847C17.5404 29.7553 17.5687 29.7255 17.597 29.6947C17.6102 29.6807 17.6229 29.6672 17.6361 29.6532C17.6738 29.6126 17.711 29.5706 17.7482 29.5281C17.752 29.5239 17.7557 29.5202 17.759 29.516C17.8005 29.4684 17.8415 29.4199 17.882 29.37C17.8919 29.3579 17.9018 29.3453 17.9122 29.3327C17.9423 29.2953 17.9725 29.2575 18.0026 29.2188C18.0163 29.2016 18.0295 29.1834 18.0431 29.1656C18.0695 29.1311 18.0959 29.0966 18.1218 29.0611C18.1364 29.0416 18.1506 29.0215 18.1652 29.0019C18.1901 28.9669 18.2156 28.9319 18.2406 28.8965C18.2547 28.8759 18.2693 28.8554 18.2834 28.8349C18.3089 28.7976 18.3343 28.7602 18.3598 28.722C18.373 28.7024 18.3861 28.6828 18.3993 28.6627C18.4276 28.6194 18.4559 28.5755 18.4837 28.5312C18.4936 28.5158 18.503 28.5009 18.5129 28.4855C18.5511 28.4243 18.5887 28.3628 18.626 28.2998C18.6274 28.297 18.6293 28.2942 18.6307 28.2919C18.666 28.2326 18.7009 28.172 18.7357 28.1108C18.7466 28.0913 18.7579 28.0717 18.7687 28.0516C18.7942 28.0063 18.8191 27.9611 18.8441 27.9149C18.8568 27.8911 18.87 27.8669 18.8827 27.8431C18.9058 27.8001 18.9289 27.7568 18.9515 27.7129C18.9647 27.6872 18.9779 27.6616 18.9911 27.6355C19.0133 27.5916 19.0359 27.5473 19.0575 27.503C19.0703 27.4768 19.0835 27.4512 19.0962 27.4246C19.1193 27.3775 19.1419 27.3294 19.1645 27.2818C19.1758 27.2576 19.1876 27.2338 19.1989 27.2095C19.2262 27.1507 19.2535 27.091 19.2804 27.0313C19.2865 27.0173 19.2931 27.0038 19.2992 26.9893C19.3327 26.9147 19.3657 26.8391 19.3982 26.7626C19.4062 26.7444 19.4137 26.7257 19.4213 26.7071C19.4458 26.6488 19.4703 26.5905 19.4943 26.5317C19.5056 26.5037 19.5169 26.4757 19.5282 26.4472C19.5485 26.3964 19.5687 26.3455 19.589 26.2942C19.6012 26.263 19.613 26.2317 19.6253 26.2004C19.6446 26.1505 19.6634 26.1006 19.6823 26.0502C19.6945 26.018 19.7063 25.9854 19.7181 25.9532C19.7369 25.9019 19.7558 25.8496 19.7742 25.7974C19.7855 25.7657 19.7968 25.7344 19.8081 25.7027C19.8283 25.6458 19.8477 25.5879 19.8674 25.5301C19.8769 25.5025 19.8863 25.4755 19.8957 25.448C19.8981 25.4414 19.9 25.4354 19.9023 25.4288H19.9037L19.981 25.1886C20.1431 24.6829 20.2929 24.1482 20.4272 23.5959H20.4286L20.4917 23.3239C20.5092 23.2483 20.5266 23.1723 20.5436 23.0958C20.5492 23.0696 20.5549 23.043 20.5605 23.0169C20.5713 22.9665 20.5827 22.9162 20.5935 22.8653C20.6001 22.8336 20.6067 22.8014 20.6133 22.7697C20.6227 22.7239 20.6321 22.6787 20.6416 22.6325C20.6486 22.598 20.6552 22.5635 20.6623 22.5285C20.6708 22.4851 20.6797 22.4412 20.6882 22.3978C20.6953 22.3619 20.7023 22.3255 20.7089 22.2891C20.7169 22.2467 20.7254 22.2038 20.733 22.1609C20.74 22.124 20.7466 22.0867 20.7532 22.0498C20.7608 22.0074 20.7688 21.9649 20.7763 21.922C20.7829 21.8847 20.7895 21.8469 20.7961 21.8096C20.8036 21.7666 20.8107 21.7242 20.8182 21.6813C20.8244 21.644 20.8305 21.6071 20.8371 21.5698C20.8408 21.5465 20.8451 21.5236 20.8489 21.5003C20.8686 21.4877 20.8884 21.4751 20.9082 21.4625C21.0072 21.4004 21.1056 21.3384 21.2036 21.2759C21.2295 21.2595 21.2555 21.2432 21.2809 21.2264C21.4001 21.1499 21.5188 21.0725 21.6366 20.9946C21.6639 20.9768 21.6908 20.9586 21.7177 20.9409C21.8161 20.8756 21.9141 20.8098 22.0112 20.744C22.038 20.7258 22.0649 20.7076 22.0918 20.6895C22.2095 20.6092 22.3259 20.529 22.4418 20.4478C22.4465 20.4445 22.4512 20.4413 22.456 20.438C22.4399 20.5607 22.4239 20.6829 22.4065 20.8042C22.4037 20.8229 22.4013 20.8415 22.3989 20.8602C22.3768 21.0137 22.3537 21.1658 22.3297 21.3174C22.3217 21.3664 22.3137 21.4149 22.3057 21.4634C22.2887 21.5665 22.2717 21.6696 22.2538 21.7718C22.2439 21.8292 22.2336 21.8856 22.2232 21.9425C22.2062 22.0358 22.1888 22.1291 22.1714 22.222C22.1601 22.2803 22.1488 22.3386 22.1375 22.3969C22.1191 22.4888 22.1007 22.5803 22.0814 22.6708C22.0696 22.7267 22.0583 22.7823 22.0461 22.8378C22.0249 22.9353 22.0032 23.0318 21.981 23.1284C21.9702 23.1751 21.9598 23.2227 21.949 23.2688C21.9155 23.4107 21.8816 23.5516 21.8468 23.691C21.827 23.7685 21.8072 23.8459 21.7869 23.9224ZM28.1682 24.0899C27.3705 25.4587 25.0991 25.9126 21.9127 25.3486C21.9165 25.3365 21.9203 25.3243 21.9245 25.3122C21.9603 25.2026 21.9961 25.092 22.0305 24.9796C22.0305 24.9791 22.0305 24.9782 22.031 24.9777C22.0658 24.8648 22.0998 24.7505 22.1332 24.6357C22.1393 24.6147 22.1455 24.5942 22.1516 24.5732C22.1836 24.4622 22.2152 24.3498 22.2458 24.2369C22.2515 24.2154 22.2576 24.1939 22.2633 24.1725C22.2732 24.1352 22.2835 24.0978 22.2934 24.0601C23.4072 24.2877 24.4315 24.4011 25.3455 24.4011C26.5328 24.4011 27.5317 24.2093 28.2964 23.831C28.2591 23.9201 28.2167 24.0069 28.1687 24.0894L28.1682 24.0899ZM28.4679 23.1275C27.2834 23.9607 25.1495 24.1114 22.4206 23.5553C22.4286 23.5222 22.4362 23.4886 22.4437 23.4554C22.4512 23.4242 22.4588 23.3934 22.4663 23.3621C22.4743 23.3272 22.4819 23.2917 22.4899 23.2562C22.5083 23.1765 22.5262 23.0967 22.5436 23.0165C22.5521 22.9773 22.561 22.9385 22.5695 22.8994C22.5761 22.8681 22.5827 22.8359 22.5893 22.8042C22.6058 22.7263 22.6218 22.6479 22.6374 22.5695C22.6468 22.5224 22.6567 22.4753 22.6661 22.4277C22.6713 22.4006 22.6765 22.3731 22.6816 22.3461C22.6967 22.2691 22.7108 22.1912 22.725 22.1137C22.7353 22.0587 22.7457 22.0041 22.7556 21.9486C22.7594 21.9262 22.7636 21.9038 22.7674 21.8814C22.7811 21.804 22.7938 21.7261 22.807 21.6482C22.8173 21.5861 22.8282 21.5245 22.8381 21.462C22.8409 21.4447 22.8437 21.428 22.8465 21.4107C22.8593 21.3309 22.871 21.2507 22.8833 21.1704C22.8932 21.1056 22.9031 21.0412 22.9125 20.9764C22.9144 20.9624 22.9167 20.9488 22.9186 20.9348C22.9224 20.9073 22.9262 20.8798 22.9299 20.8523C22.9384 20.7907 22.9469 20.7291 22.9549 20.6675C22.9624 20.612 22.9705 20.5574 22.9775 20.5019C22.9799 20.4851 22.9818 20.4683 22.9841 20.4515C22.9917 20.3941 22.9983 20.3358 23.0053 20.2784C23.0157 20.1931 23.0265 20.1082 23.0364 20.0223C23.0548 20.0088 23.0732 19.9953 23.0915 19.9817C23.1273 19.9552 23.1632 19.929 23.199 19.9024C23.2324 19.8777 23.2659 19.8525 23.2993 19.8278C23.3318 19.8035 23.3643 19.7793 23.3964 19.755C23.4049 19.7489 23.4133 19.7424 23.4213 19.7364C23.4491 19.7154 23.4769 19.6944 23.5043 19.6734C23.5373 19.6482 23.5707 19.623 23.6037 19.5978C23.6385 19.5712 23.6729 19.5446 23.7073 19.518C23.7304 19.5003 23.754 19.4821 23.7771 19.4644C23.7808 19.4616 23.7846 19.4583 23.7884 19.4555C23.7931 19.4518 23.7983 19.448 23.803 19.4438C23.8383 19.4163 23.8732 19.3888 23.9085 19.3613C23.9391 19.337 23.9698 19.3132 24.0004 19.289C24.0362 19.261 24.0715 19.2325 24.1069 19.2045C24.1102 19.2017 24.1139 19.1989 24.1172 19.1961C24.1281 19.1873 24.1394 19.1784 24.1502 19.1695C24.1653 19.1574 24.1804 19.1453 24.1954 19.1331C24.2313 19.1042 24.2671 19.0753 24.3024 19.0468C24.3311 19.0235 24.3599 19.0002 24.3882 18.9769C24.4155 18.9545 24.4428 18.9316 24.4706 18.9092C24.4847 18.8976 24.4989 18.8859 24.5135 18.8742C24.5356 18.856 24.5573 18.8378 24.579 18.8201C24.6152 18.7898 24.6511 18.7599 24.6873 18.7296C24.7142 18.7072 24.741 18.6848 24.7674 18.6624C24.7858 18.647 24.8037 18.6316 24.8221 18.6162C24.8353 18.605 24.848 18.5943 24.8607 18.5831C24.8659 18.5789 24.8706 18.5747 24.8753 18.5705C24.9012 18.5481 24.9271 18.5262 24.9531 18.5038C24.9893 18.4726 25.0251 18.4418 25.061 18.4105C25.0864 18.3886 25.1118 18.3667 25.1368 18.3447C25.1467 18.3363 25.1561 18.3279 25.166 18.3191C25.1731 18.3125 25.1806 18.3065 25.1877 18.2999C25.2075 18.2827 25.2268 18.2654 25.2466 18.2482C25.2701 18.2272 25.2942 18.2062 25.3173 18.1856C25.355 18.1521 25.3917 18.1189 25.4289 18.0853C25.4511 18.0653 25.4737 18.0452 25.4954 18.0252C25.4954 18.0252 25.4963 18.0247 25.4963 18.0242C25.4972 18.0233 25.4987 18.0219 25.5001 18.021C25.5368 17.9874 25.5736 17.9538 25.6098 17.9207C25.6301 17.902 25.6508 17.8833 25.6706 17.8647C25.7121 17.8264 25.7526 17.7886 25.7936 17.7504L25.7983 17.7462C25.8044 17.7401 25.811 17.7345 25.8176 17.7285C27.6688 19.7909 28.6035 21.6957 28.4669 23.128L28.4679 23.1275ZM29.16 22.389C29.1119 22.4716 29.0573 22.5509 28.9984 22.6269C28.9065 21.1326 27.9345 19.2997 26.1964 17.3664C26.2092 17.3543 26.2214 17.3417 26.2341 17.3296C26.269 17.2951 26.3043 17.261 26.3387 17.2265C26.3599 17.2055 26.3811 17.1845 26.4023 17.163C26.4348 17.1308 26.4669 17.0982 26.4989 17.0655C26.5201 17.0441 26.5408 17.0231 26.5616 17.0016C26.5946 16.9676 26.6275 16.934 26.6605 16.8999C26.6794 16.8803 26.6982 16.8612 26.7166 16.8416C26.759 16.7973 26.8014 16.753 26.8433 16.7086C26.8513 16.6998 26.8598 16.6914 26.8683 16.6825C26.9173 16.6307 26.9653 16.5785 27.0134 16.5267C27.0313 16.5071 27.0492 16.4875 27.0671 16.4684C27.0893 16.4441 27.1119 16.4199 27.134 16.3956C29.2198 18.8453 29.9586 21.0202 29.1609 22.389H29.16Z" fill="url(#paint0_linear_1004_4808)"/>
<defs>
<linearGradient id="paint0_linear_1004_4808" x1="5.63624" y1="31" x2="30.0106" y2="1.19874" gradientUnits="userSpaceOnUse">
<stop stop-color="#6A00D4"/>
<stop offset="1" stop-color="#001FFF"/>
</linearGradient>
</defs>
</svg>
