<?xml version="1.0" encoding="UTF-8"?>
<svg width="752pt" height="752pt" version="1.1" viewBox="0 0 752 752" xmlns="http://www.w3.org/2000/svg">
 <defs>
  <clipPath id="a">
   <path d="m139.21 183h473.58v356h-473.58z"/>
  </clipPath>
 </defs>
 <g clip-path="url(#a)">
  <path fill="#752EEB" d="m598.11 328.23-147.99-133.22c-18.234-16.402-46.324-14.98-62.719 3.3125-16.398 18.203-14.918 46.293 3.3125 62.691l61.953 55.793h-269.05c-24.539 0-44.398 19.859-44.398 44.398 0 24.535 19.859 44.398 44.398 44.398h269.11l-62.039 55.793c-18.234 16.426-19.711 44.488-3.3164 62.691 8.7891 9.7383 20.898 14.707 33.031 14.707 10.598 0 21.223-3.7578 29.688-11.395l147.99-133.16c9.3555-8.4062 14.715-20.422 14.715-33.004 0-12.578-5.3594-24.594-14.684-33z"/>
 </g>
</svg>
