<svg width="208" height="40" viewBox="0 0 208 40" fill="none" xmlns="http://www.w3.org/2000/svg">
<path d="M34.2593 19.9994C35.6998 18.3361 36.6981 16.7524 37.2252 15.2888C37.8162 13.6485 37.7832 12.2508 37.127 11.1343C36.9034 10.7542 36.6088 10.4152 36.2503 10.1241V10.1197L36.2458 10.1173C36.1679 9.66691 36.0165 9.24704 35.7936 8.86636C35.1373 7.74982 33.921 7.02267 32.1784 6.70544C30.6239 6.42242 28.7279 6.47902 26.5406 6.87276C25.7938 4.81572 24.8962 3.17482 23.8687 1.99422C22.7177 0.670544 21.4685 0 20.1553 0C19.7094 0 19.2634 0.0814854 18.827 0.240102L18.8225 0.238236L18.8181 0.240102C18.381 0.0814854 17.9344 0 17.4891 0C16.176 0 14.9268 0.670544 13.7758 1.99359C12.7483 3.1742 11.8507 4.8151 11.1039 6.87214C8.91588 6.4784 7.01994 6.4218 5.46606 6.70482C3.72342 7.02205 2.50718 7.7492 1.85091 8.86574C1.62667 9.24704 1.47527 9.66939 1.39799 10.121C1.03819 10.4127 0.74236 10.7523 0.518116 11.1343C-0.138148 12.2508 -0.171088 13.6485 0.41993 15.2888C0.946968 16.7524 1.9453 18.3361 3.38579 19.9994C1.9453 21.6627 0.946968 23.247 0.41993 24.7106C-0.171088 26.3509 -0.138148 27.7492 0.518116 28.8657C0.741727 29.2452 1.03629 29.5842 1.39482 29.8759V29.8809L1.39926 29.8834C1.47717 30.3337 1.62857 30.7536 1.85155 31.1336C2.50781 32.2502 3.72405 32.9773 5.4667 33.2952C6.11663 33.4134 6.8261 33.4731 7.59132 33.4731C8.6568 33.4731 9.83187 33.3568 11.1045 33.1279C11.8513 35.1849 12.7489 36.8258 13.7764 38.0064C14.928 39.3295 16.1772 40 17.4898 40C17.9357 40 18.3817 39.9185 18.8188 39.7599L18.8232 39.7618L18.8276 39.7599C19.2641 39.9185 19.7107 40 20.156 40C21.4691 40 22.7183 39.3295 23.8693 38.0064C24.8968 36.8264 25.7944 35.1849 26.5413 33.1279C27.8139 33.3568 28.9889 33.4731 30.0544 33.4731C30.8196 33.4731 31.5291 33.414 32.179 33.2952C33.9217 32.9773 35.1379 32.2502 35.7942 31.1343C36.0184 30.7536 36.1698 30.3319 36.2477 29.8796C36.6075 29.5873 36.9034 29.2477 37.1276 28.867C37.7839 27.7504 37.8168 26.3521 37.2258 24.7118C36.6988 23.2482 35.7004 21.6639 34.2599 20.0006L34.2593 19.9994ZM36.2997 11.1641C36.3789 11.2655 36.4505 11.3713 36.5151 11.4807C37.6204 13.3617 36.5315 16.3835 33.5283 19.7717C33.0019 20.3658 32.4191 20.9666 31.7964 21.5576C31.5709 21.7715 31.3403 21.9849 31.1034 22.1976C30.9457 22.3394 30.7854 22.4806 30.6233 22.6212C30.5422 22.6915 30.4605 22.7618 30.3775 22.8321C29.5533 23.5337 28.6709 24.2242 27.7404 24.8947L27.7328 24.9003C27.62 24.9818 27.506 25.0627 27.3913 25.1435C27.2114 25.2704 27.029 25.3967 26.8459 25.5223C26.6876 25.6306 26.5286 25.7388 26.3677 25.8458C26.2296 25.9379 26.0902 26.0299 25.9502 26.1214C25.5822 26.3615 25.2085 26.5978 24.8309 26.8292C24.5009 27.0314 24.1651 27.2317 23.8288 27.427C23.6691 27.5197 23.5101 27.6117 23.3505 27.7019C22.8482 27.9868 22.3401 28.263 21.8397 28.5249C21.7086 28.5933 21.5775 28.6611 21.4457 28.7283C20.5253 29.1985 19.5966 29.6358 18.6794 30.032C18.4925 30.1129 18.3063 30.1913 18.1207 30.2684C18.1055 30.2746 18.0903 30.2808 18.0757 30.2871C17.8977 30.3605 17.7203 30.4326 17.5436 30.5035C17.5208 30.5129 17.498 30.5216 17.4752 30.5309C17.3029 30.5993 17.1306 30.6665 16.9583 30.7318C16.9317 30.7418 16.9057 30.7517 16.8791 30.7617C16.7087 30.8264 16.5389 30.8892 16.3698 30.9508C16.3432 30.9607 16.3166 30.97 16.29 30.98C16.1202 31.0416 15.9504 31.1019 15.7813 31.1604C15.7572 31.1685 15.7332 31.1772 15.7085 31.1853C15.5368 31.2444 15.3651 31.3022 15.1941 31.3582C15.1757 31.3644 15.1574 31.37 15.139 31.3762C14.9622 31.4341 14.7855 31.4907 14.6094 31.5448C14.6024 31.5467 14.5955 31.5492 14.5891 31.551C14.4143 31.6051 14.2407 31.6574 14.0678 31.7078C14.0577 31.7109 14.0482 31.7134 14.038 31.7165C14.033 31.6991 14.0273 31.6816 14.0222 31.6649C13.9893 31.5572 13.9563 31.4484 13.924 31.3389C13.9132 31.3022 13.9025 31.2661 13.8917 31.2294C13.8543 31.1013 13.8176 30.9719 13.7815 30.8419C13.777 30.8264 13.7732 30.8108 13.7688 30.7953C13.7365 30.6765 13.7042 30.557 13.6732 30.4364C13.6637 30.4003 13.6542 30.3636 13.6447 30.3275C13.6098 30.1925 13.5756 30.0569 13.5427 29.9207C13.5439 29.9207 13.5458 29.9194 13.5477 29.9194C13.7112 29.8684 13.8759 29.8156 14.0412 29.7615C14.0659 29.7534 14.0906 29.7453 14.1153 29.7372C14.2737 29.6849 14.4333 29.6308 14.5936 29.5761C14.6259 29.5649 14.6582 29.5537 14.6905 29.5425C14.8501 29.4871 15.011 29.4305 15.1719 29.3721C15.1992 29.3621 15.2258 29.3522 15.253 29.3428C15.3727 29.2993 15.4925 29.2551 15.6122 29.2103H15.6128L15.7629 29.1537C16.7733 28.7712 17.8008 28.337 18.8188 27.863H18.8194L18.9714 27.7921C20.1091 27.2578 21.2519 26.6663 22.3674 26.0337C23.2701 25.5217 24.155 24.983 25.007 24.4276V24.4357L25.6158 24.0251L25.7551 23.9312V23.93C25.9534 23.7956 26.1498 23.6606 26.3442 23.5238C26.8497 23.1692 27.3426 22.8078 27.8202 22.4433V22.4526L28.4214 21.9756C28.4214 21.9756 28.4226 21.9749 28.4233 21.9743L28.5468 21.876C28.5937 21.8381 28.6405 21.8008 28.6868 21.7634C28.8388 21.6409 28.9889 21.5177 29.1378 21.394C29.592 21.0164 30.0316 20.6345 30.4503 20.2519C30.4503 20.2519 30.451 20.2519 30.4516 20.2513L30.729 19.9981L30.7278 19.9969C30.7462 19.9795 30.7652 19.9621 30.7835 19.9446C30.9919 19.7493 31.1965 19.5528 31.3954 19.3568C31.4011 19.3512 31.4068 19.3456 31.4125 19.34C31.7217 19.0346 32.0181 18.7292 32.3007 18.425L32.5312 18.1762L32.53 18.175C32.5407 18.1632 32.5515 18.1513 32.5623 18.1401C32.5629 18.1395 32.5635 18.1383 32.5642 18.1377C32.5743 18.1265 32.5844 18.1146 32.5946 18.1034C32.5958 18.1022 32.5971 18.101 32.5984 18.0991C32.6725 18.017 32.746 17.9349 32.8176 17.8528C32.8233 17.8459 32.829 17.8397 32.8347 17.8329C33.961 16.5471 34.8301 15.2956 35.4217 14.1063C35.9506 13.0433 36.2433 12.0574 36.2978 11.1629L36.2997 11.1641ZM22.8552 28.7731C22.8678 28.7662 22.8805 28.7594 22.8925 28.7525C22.9825 28.7034 23.0731 28.6536 23.163 28.6045C23.2086 28.5796 23.2542 28.5547 23.2992 28.5292C23.4341 28.4546 23.5684 28.3793 23.7027 28.3028C23.8364 28.2269 23.9694 28.1504 24.1031 28.0733C24.1455 28.0484 24.1879 28.0235 24.2304 27.9986C24.321 27.9458 24.4116 27.8929 24.5021 27.8394C24.5148 27.8319 24.5281 27.8245 24.5408 27.8164C24.537 27.8382 24.5325 27.8605 24.5287 27.8823C24.5091 27.9905 24.4888 28.0988 24.4686 28.2058C24.4648 28.2244 24.4616 28.2425 24.4578 28.2611C24.4515 28.2935 24.4451 28.3252 24.4388 28.3575C24.4192 28.4571 24.3995 28.556 24.3799 28.6542C24.371 28.699 24.3615 28.7438 24.3526 28.788C24.3317 28.89 24.3096 28.9914 24.288 29.0928C24.2849 29.1065 24.2823 29.1208 24.2792 29.1345C24.2728 29.1624 24.2671 29.1904 24.2608 29.2184C24.2589 29.2265 24.257 29.2346 24.2551 29.2427C23.7958 29.099 23.3277 28.9416 22.8539 28.7724L22.8552 28.7731ZM24.0986 29.9213C24.0929 29.945 24.0872 29.9686 24.0809 29.9922C24.0638 30.0631 24.0461 30.1334 24.0283 30.2037C24.0201 30.2367 24.0112 30.2696 24.003 30.3026C23.9859 30.3679 23.9694 30.4332 23.9523 30.4986C23.9434 30.5328 23.9346 30.5664 23.9251 30.6006C23.908 30.6659 23.8902 30.7306 23.8725 30.7953C23.8636 30.827 23.8554 30.8587 23.8465 30.8904C23.8269 30.9601 23.8079 31.0291 23.7876 31.0988C23.78 31.1243 23.773 31.1504 23.7654 31.1759C23.7129 31.3588 23.659 31.5392 23.6033 31.7177C22.3344 31.3482 21.0257 30.8867 19.6986 30.3418C19.7069 30.3381 19.7157 30.3337 19.724 30.33C19.9032 30.2485 20.0825 30.1658 20.2624 30.0818C20.3061 30.0613 20.3498 30.0407 20.3929 30.0202C20.5576 29.9425 20.7223 29.8641 20.887 29.7838C20.9085 29.7733 20.9294 29.7633 20.951 29.7534C21.1309 29.6657 21.3108 29.5761 21.4907 29.4859C21.5357 29.4635 21.58 29.4405 21.625 29.4181C21.7599 29.3497 21.8942 29.2812 22.0285 29.2116C22.7291 29.4735 23.4234 29.7123 24.098 29.9226L24.0986 29.9213ZM22.0291 10.7884C21.8942 10.7181 21.7586 10.6491 21.6231 10.58C21.5794 10.5583 21.5363 10.5359 21.4926 10.5141C21.3114 10.4227 21.1302 10.3325 20.9484 10.2441C20.9301 10.2354 20.9117 10.2267 20.8933 10.2174C20.8116 10.1776 20.7293 10.1378 20.6475 10.0986C20.5614 10.0575 20.4752 10.0165 20.3891 9.97605C20.3479 9.95677 20.3061 9.93686 20.2649 9.91758C20.0838 9.83236 19.9026 9.74901 19.7214 9.66691C19.7138 9.6638 19.7069 9.66006 19.6993 9.65695C21.0238 9.11268 22.3325 8.65176 23.6039 8.28103C23.6305 8.36687 23.6565 8.45271 23.6824 8.53979C23.6856 8.55037 23.6888 8.56094 23.6919 8.5709C23.7167 8.653 23.7407 8.73573 23.7648 8.81846C23.7743 8.85143 23.7838 8.8844 23.7927 8.91736C23.8104 8.97832 23.8275 9.0399 23.8446 9.10148C23.8554 9.13943 23.8655 9.17799 23.8763 9.21594C23.8921 9.27379 23.908 9.33163 23.9232 9.38948C23.9339 9.42929 23.9441 9.46848 23.9548 9.50829C23.97 9.56676 23.9852 9.62523 24.0004 9.6837C24.0106 9.72289 24.0207 9.76145 24.0302 9.80064C24.0461 9.86409 24.0619 9.92816 24.0777 9.99222C24.0847 10.0202 24.0917 10.0482 24.0986 10.0762C23.417 10.2883 22.7228 10.5272 22.0291 10.7872V10.7884ZM24.2564 10.7561C24.2583 10.7642 24.2602 10.7722 24.2621 10.7803C24.2671 10.8033 24.2722 10.8264 24.2773 10.8488C24.2823 10.8711 24.2868 10.8935 24.2918 10.9159C24.3127 11.0123 24.3336 11.1094 24.3539 11.207C24.3634 11.2537 24.3736 11.3003 24.3831 11.3476C24.4027 11.4447 24.4223 11.5423 24.4413 11.64C24.4483 11.6748 24.4553 11.7096 24.4616 11.7445C24.4641 11.7582 24.4667 11.7718 24.4698 11.7861C24.4914 11.8987 24.5123 12.0113 24.5332 12.1245C24.537 12.1438 24.5402 12.1631 24.544 12.1824C24.5313 12.1749 24.5192 12.1681 24.5066 12.1606C24.416 12.1071 24.3254 12.0542 24.2348 12.0014C24.1917 11.9759 24.148 11.9504 24.105 11.9255C23.9909 11.8595 23.8776 11.7942 23.7635 11.7295C23.7445 11.7183 23.7249 11.7072 23.7059 11.6966C23.5716 11.6207 23.4373 11.5454 23.3024 11.4702C23.2549 11.444 23.2074 11.4179 23.1592 11.3918C23.0724 11.3439 22.9856 11.296 22.8989 11.2487C22.8849 11.2413 22.871 11.2332 22.8571 11.2257C23.3271 11.0578 23.7958 10.901 24.2583 10.7561H24.2564ZM21.8403 11.4745C21.9981 11.5572 22.1564 11.6412 22.3154 11.7264C22.6613 11.9118 23.0078 12.1028 23.3511 12.2975C23.4696 12.3646 23.5881 12.4324 23.7065 12.5009C23.7471 12.5239 23.787 12.5481 23.8275 12.5711C23.9061 12.6166 23.984 12.6626 24.0625 12.7086C24.1088 12.736 24.155 12.7634 24.2013 12.7907C24.2728 12.8336 24.345 12.8759 24.4166 12.9189C24.4654 12.9481 24.5142 12.9773 24.563 13.0072C24.6067 13.0339 24.651 13.0607 24.6947 13.0868C24.6985 13.1111 24.7023 13.1359 24.7061 13.1602C24.7308 13.3188 24.7543 13.4787 24.7771 13.6398C24.7809 13.6647 24.784 13.6895 24.7878 13.7144C24.8132 13.8961 24.8372 14.0789 24.8607 14.2624C24.8658 14.3047 24.8708 14.347 24.8765 14.3893C24.8962 14.5492 24.9152 14.7103 24.9329 14.8714C24.9361 14.9013 24.9399 14.9317 24.943 14.9616C24.9633 15.147 24.9823 15.3329 25.0007 15.5195C25.0019 15.5351 25.0038 15.5506 25.0051 15.5662C24.9867 15.5538 24.9677 15.5419 24.9487 15.5301C24.7631 15.4094 24.5763 15.2894 24.3875 15.1706C24.3583 15.1526 24.3292 15.1339 24.3001 15.1159C24.1259 15.0064 23.9504 14.8981 23.7743 14.7905C23.7414 14.77 23.7084 14.7501 23.6748 14.7296C23.4835 14.6133 23.291 14.4982 23.0971 14.3843C23.0553 14.3601 23.0141 14.3358 22.9723 14.311C22.9115 14.2755 22.8514 14.2394 22.7899 14.204C22.6512 14.1231 22.5112 14.0435 22.3718 13.9639C22.2325 13.8849 22.0925 13.8065 21.9525 13.7287C21.6953 13.5863 21.4375 13.4463 21.1784 13.3089C20.7305 13.0706 20.2801 12.8392 19.8298 12.6172C19.8228 12.6134 19.8158 12.6103 19.8082 12.6066C19.5928 12.5002 19.3775 12.3964 19.1621 12.2943C19.1 12.2651 19.0379 12.2353 18.9758 12.206L18.8238 12.1345H18.8232C18.6072 12.0343 18.3905 11.9348 18.1739 11.8378C18.0396 11.7781 17.9059 11.719 17.7716 11.6605C17.1014 11.3688 16.4306 11.0957 15.7674 10.8444C15.7655 10.8444 15.7642 10.8432 15.7623 10.8425L15.6166 10.7872H15.616C15.495 10.7424 15.374 10.6976 15.253 10.6541C15.2296 10.6454 15.2061 10.6366 15.1827 10.6286C15.0193 10.5695 14.8558 10.5116 14.693 10.455C14.6645 10.4451 14.636 10.4351 14.6075 10.4258C14.4447 10.3698 14.2819 10.3151 14.1204 10.2616C14.0976 10.2541 14.0748 10.2466 14.052 10.2392C13.9874 10.218 13.9221 10.1962 13.8575 10.1757C13.7555 10.1428 13.6535 10.111 13.5522 10.0793C13.5503 10.0793 13.5484 10.0781 13.5471 10.0774C13.5807 9.93873 13.6155 9.80126 13.651 9.66504C13.6599 9.63145 13.6681 9.59848 13.677 9.56489C13.7099 9.43862 13.7435 9.31359 13.777 9.18919C13.7802 9.17861 13.7827 9.16804 13.7859 9.15684C13.8227 9.02373 13.86 8.89248 13.898 8.76124C13.9075 8.72889 13.917 8.69592 13.9265 8.66358C13.9601 8.5485 13.995 8.43467 14.0298 8.32146C14.0342 8.3084 14.038 8.29472 14.0418 8.28103C14.0494 8.28352 14.057 8.28539 14.0646 8.28787C14.2414 8.3395 14.4194 8.393 14.5974 8.44836C14.6018 8.4496 14.6062 8.45084 14.6107 8.45209C14.7874 8.50683 14.9648 8.56343 15.1434 8.6219C15.1605 8.6275 15.1783 8.6331 15.1954 8.6387C15.3664 8.69468 15.5381 8.75315 15.7104 8.81224C15.7344 8.82033 15.7585 8.82841 15.7819 8.83712C15.9511 8.89559 16.1208 8.95593 16.2906 9.01751C16.3172 9.02684 16.3438 9.03679 16.3704 9.04612C16.5402 9.1077 16.71 9.17115 16.8804 9.23584C16.9063 9.24579 16.9323 9.25575 16.9589 9.2657C17.1312 9.33163 17.3035 9.39881 17.4764 9.46723C17.4993 9.47594 17.5214 9.48527 17.5442 9.4946C17.7216 9.56552 17.8996 9.63767 18.0782 9.71169C18.0928 9.71791 18.1067 9.72351 18.1213 9.72973C18.3082 9.80748 18.4951 9.88648 18.6826 9.96734C19.7284 10.4177 20.7913 10.9246 21.8422 11.4739L21.8403 11.4745ZM13.8866 10.9172C13.8987 10.9209 13.9107 10.9253 13.9227 10.929C14.0792 10.9806 14.2369 11.0341 14.3947 11.0889C14.4238 11.0988 14.4529 11.1088 14.4821 11.1193C14.5841 11.1548 14.6861 11.1915 14.788 11.2276C14.5049 11.3812 14.2211 11.538 13.9398 11.6972C13.6567 11.8577 13.3773 12.02 13.1024 12.183C13.1214 12.0779 13.1398 11.9728 13.1601 11.8683C13.1658 11.8396 13.1708 11.811 13.1765 11.7818C13.2076 11.6201 13.2392 11.4596 13.2715 11.3003C13.2747 11.286 13.2772 11.2724 13.2804 11.258C13.3121 11.1057 13.3444 10.9545 13.3773 10.8046C13.3811 10.7884 13.3843 10.7729 13.3881 10.7567C13.3995 10.7604 13.4109 10.7642 13.4223 10.7673C13.5769 10.8158 13.7314 10.8655 13.8873 10.9166L13.8866 10.9172ZM14.2933 12.2975C14.7469 12.0406 15.2061 11.7893 15.661 11.5498C15.7047 11.5666 15.7484 11.5834 15.7921 11.6002C15.8497 11.6226 15.908 11.6449 15.9656 11.668C16.0366 11.696 16.1075 11.7239 16.1791 11.7526C16.2361 11.7756 16.2931 11.798 16.3508 11.821C16.423 11.8502 16.4959 11.8801 16.5681 11.9093C16.6244 11.9323 16.6802 11.9553 16.7366 11.9784C16.8107 12.0088 16.8848 12.0399 16.9589 12.0717C17.0134 12.0947 17.0685 12.1177 17.123 12.1407C17.199 12.173 17.275 12.206 17.351 12.239C17.4042 12.262 17.4568 12.2844 17.51 12.3074C17.5892 12.3416 17.6678 12.3771 17.7469 12.4119C17.797 12.4343 17.847 12.4561 17.8971 12.4785C17.9325 12.494 17.968 12.5108 18.0035 12.5264C17.0869 12.9736 16.1715 13.4557 15.2733 13.9651C14.3744 14.4745 13.492 15.012 12.64 15.5674C12.6438 15.5307 12.647 15.4934 12.6501 15.4567C12.6558 15.3958 12.6628 15.3354 12.6685 15.2751C12.6761 15.198 12.6843 15.1202 12.6926 15.0431C12.6995 14.9796 12.7065 14.9168 12.7135 14.854C12.7217 14.78 12.7299 14.7059 12.7388 14.6319C12.7464 14.5678 12.754 14.5038 12.7622 14.4397C12.7711 14.3669 12.78 14.2942 12.7895 14.2214C12.7977 14.1586 12.806 14.0951 12.8142 14.0323C12.8237 13.9589 12.8338 13.8855 12.8433 13.8127C12.8516 13.7511 12.8604 13.6902 12.8693 13.6286C12.8801 13.5539 12.8902 13.4799 12.9016 13.4059C12.9105 13.3474 12.9193 13.289 12.9282 13.2305C12.9352 13.1826 12.9428 13.1353 12.9504 13.088C13.3837 12.8237 13.8347 12.5587 14.2933 12.2987V12.2975ZM15.6267 14.5654C16.677 13.9701 17.7507 13.4115 18.8213 12.9039C18.8688 12.9263 18.9163 12.9493 18.9644 12.9717C19.0278 13.0022 19.0911 13.0327 19.1551 13.0632C19.2299 13.0992 19.3046 13.1359 19.38 13.1726C19.4421 13.2031 19.5042 13.2336 19.5662 13.2641C19.6429 13.302 19.7195 13.3406 19.7962 13.3785C19.8564 13.409 19.9172 13.4389 19.9773 13.4693C20.0559 13.5092 20.1338 13.5496 20.2124 13.5894C20.2713 13.6193 20.3295 13.6497 20.3885 13.6796C20.4689 13.7213 20.5487 13.7636 20.6292 13.8059C20.6856 13.8357 20.7419 13.865 20.7983 13.8948C20.8819 13.939 20.9649 13.9838 21.0485 14.0292C21.1011 14.0578 21.1543 14.0858 21.2069 14.1144C21.2994 14.1648 21.3919 14.2158 21.4843 14.2662C21.5274 14.2898 21.5705 14.3134 21.6136 14.3371C21.7491 14.4123 21.8841 14.4876 22.0184 14.5641C22.1533 14.6406 22.2882 14.7178 22.4225 14.7961C22.4624 14.8191 22.5017 14.8428 22.541 14.8658C22.6353 14.9205 22.7297 14.9759 22.8228 15.0313C22.8723 15.0605 22.9217 15.0904 22.9717 15.1202C23.0547 15.17 23.1377 15.2191 23.2207 15.2695C23.2751 15.3025 23.3296 15.3361 23.3847 15.3696C23.4614 15.4163 23.538 15.4629 23.6147 15.5102C23.6729 15.5463 23.7306 15.5824 23.7889 15.6184C23.8611 15.6632 23.9333 15.708 24.0049 15.7534C24.0651 15.7914 24.1252 15.8299 24.1854 15.8679C24.2538 15.9114 24.3222 15.955 24.3907 15.9991C24.4527 16.0389 24.5142 16.0794 24.5763 16.1192C24.6415 16.1615 24.7068 16.2038 24.772 16.2467C24.8353 16.2884 24.8981 16.33 24.9608 16.3717C25.0013 16.3985 25.0419 16.4258 25.0824 16.4526C25.0862 16.5005 25.0894 16.5484 25.0932 16.5957C25.0982 16.6697 25.1039 16.7443 25.109 16.819C25.1141 16.8942 25.1191 16.9701 25.1236 17.046C25.128 17.1194 25.1331 17.1934 25.1369 17.2674C25.1413 17.3446 25.1451 17.4223 25.1495 17.5001C25.1533 17.5729 25.1571 17.6456 25.1609 17.7184C25.1647 17.798 25.1679 17.8783 25.1717 17.9579C25.1749 18.0288 25.178 18.0997 25.1806 18.1712C25.1837 18.2546 25.1863 18.3386 25.1894 18.4225C25.192 18.4903 25.1939 18.5581 25.1964 18.6259C25.1989 18.7149 25.2008 18.8038 25.2028 18.8928C25.204 18.9562 25.2059 19.0191 25.2072 19.0825C25.2091 19.1833 25.2104 19.2847 25.2116 19.3861C25.2123 19.4377 25.2135 19.4887 25.2135 19.5403C25.2148 19.6933 25.2161 19.8464 25.2161 20C25.2161 20.1536 25.2154 20.3067 25.2135 20.4597C25.2135 20.5113 25.2123 20.5629 25.2116 20.6146C25.2104 20.7153 25.2091 20.8167 25.2072 20.9175C25.2059 20.9809 25.204 21.0444 25.2028 21.1078C25.2008 21.1968 25.1989 21.2857 25.1964 21.3747C25.1945 21.4431 25.192 21.5109 25.1894 21.5787C25.1869 21.6621 25.1837 21.746 25.1806 21.8294C25.178 21.9009 25.1749 21.9718 25.1717 22.0427C25.1685 22.1224 25.1647 22.2026 25.1609 22.2822C25.1578 22.355 25.1533 22.4278 25.1495 22.5005C25.1457 22.5783 25.1413 22.6561 25.1369 22.7332C25.1324 22.8066 25.128 22.88 25.1236 22.9534C25.1185 23.0293 25.1141 23.1058 25.109 23.1817C25.1039 23.2557 25.0989 23.3297 25.0932 23.4031C25.09 23.451 25.0862 23.4995 25.0824 23.5474C25.0393 23.576 24.9956 23.6053 24.9525 23.6339C24.8936 23.6731 24.8353 23.7116 24.7764 23.7508C24.708 23.7956 24.6396 23.8404 24.5712 23.8846C24.5123 23.9231 24.4534 23.9611 24.3945 23.999C24.3248 24.0438 24.2545 24.0886 24.1841 24.1334C24.1252 24.1707 24.0663 24.2086 24.0074 24.2453C23.9358 24.2907 23.8636 24.3355 23.792 24.3803C23.7338 24.4164 23.6755 24.4531 23.6166 24.4892C23.5425 24.5346 23.4683 24.58 23.3936 24.6254C23.3366 24.6602 23.2796 24.6951 23.2219 24.7299C23.144 24.7772 23.0648 24.8238 22.9863 24.8711C22.9324 24.9034 22.8786 24.9358 22.8241 24.9675C22.7354 25.0198 22.6467 25.0714 22.5581 25.1236C22.5131 25.1498 22.4687 25.1765 22.4238 25.202C22.2895 25.2798 22.1552 25.3569 22.0203 25.4334C21.8853 25.5099 21.7504 25.5858 21.6148 25.6604C21.5737 25.6835 21.5325 25.7058 21.4907 25.7282C21.3963 25.7799 21.3019 25.8321 21.2075 25.8831C21.1568 25.9105 21.1062 25.9379 21.0549 25.9652C20.9693 26.0113 20.8845 26.0573 20.7989 26.1027C20.7432 26.1326 20.6875 26.1612 20.6317 26.191C20.5513 26.2333 20.4708 26.2756 20.3904 26.3173C20.3308 26.3484 20.2713 26.3789 20.2117 26.4094C20.1344 26.4492 20.0578 26.4884 19.9805 26.5275C19.9184 26.5593 19.8564 26.5904 19.7936 26.6215C19.7487 26.6439 19.7037 26.6663 19.6587 26.6886C19.6289 26.7036 19.5992 26.7185 19.57 26.7328C19.5067 26.7645 19.4427 26.795 19.3794 26.8267C19.3059 26.8628 19.2318 26.8989 19.1583 26.9343C19.0943 26.9654 19.031 26.9953 18.967 27.0258C18.9195 27.0488 18.872 27.0712 18.8238 27.0936C17.7533 26.586 16.6789 26.0274 15.6293 25.4322C14.5777 24.8363 13.549 24.2018 12.5678 23.5462C12.564 23.4927 12.5595 23.4392 12.5557 23.3863C12.5507 23.3204 12.5462 23.2538 12.5418 23.1873C12.5361 23.1033 12.531 23.0193 12.526 22.9353C12.5222 22.8694 12.5177 22.8035 12.5139 22.7375C12.5089 22.6523 12.5044 22.5671 12.5 22.4819C12.4968 22.4166 12.493 22.3506 12.4899 22.2853C12.4854 22.1989 12.4823 22.1118 12.4785 22.0247C12.4759 21.96 12.4728 21.8953 12.4702 21.8306C12.4671 21.7411 12.4639 21.6521 12.4607 21.5625C12.4588 21.4997 12.4563 21.4375 12.4544 21.3747C12.4519 21.2814 12.45 21.1874 12.4474 21.0941C12.4462 21.0351 12.4443 20.976 12.443 20.9169C12.4411 20.8136 12.4398 20.711 12.4385 20.6077C12.4385 20.558 12.4366 20.5082 12.4366 20.4578C12.4354 20.3048 12.4341 20.1518 12.4341 19.9981C12.4341 19.8445 12.4347 19.6915 12.4366 19.5385C12.4366 19.4887 12.4379 19.4389 12.4385 19.3892C12.4398 19.2859 12.4411 19.1827 12.443 19.0794C12.4443 19.0209 12.4455 18.9618 12.4468 18.9034C12.4487 18.8094 12.4512 18.7149 12.4538 18.621C12.4557 18.5594 12.4576 18.4978 12.4601 18.4362C12.4633 18.3454 12.4658 18.2546 12.4696 18.1644C12.4721 18.101 12.4747 18.0381 12.4778 17.9747C12.4816 17.8864 12.4854 17.7974 12.4899 17.7091C12.493 17.6456 12.4962 17.5822 12.5 17.5181C12.5044 17.4304 12.5089 17.3427 12.5139 17.2556C12.5177 17.1922 12.5215 17.1287 12.5253 17.0653C12.531 16.9782 12.5361 16.8917 12.5418 16.8053C12.5462 16.7418 12.5507 16.679 12.5551 16.6156C12.5589 16.5602 12.5633 16.5048 12.5678 16.4495C13.5496 15.7932 14.5784 15.1594 15.6293 14.5635L15.6267 14.5654ZM15.2739 26.0349C16.1722 26.5443 17.0875 27.0264 18.0041 27.4736C17.9686 27.4898 17.9325 27.506 17.8971 27.5222C17.8489 27.5433 17.8014 27.5645 17.7533 27.5856C17.6722 27.6217 17.5911 27.6578 17.5107 27.6926C17.4581 27.7156 17.4061 27.738 17.3536 27.7604C17.2769 27.7934 17.2003 27.8263 17.1236 27.8593C17.0685 27.8823 17.014 27.9053 16.9589 27.9283C16.8848 27.9594 16.8113 27.9905 16.7372 28.021C16.6808 28.0447 16.6238 28.0677 16.5674 28.0907C16.4952 28.1199 16.4236 28.1498 16.3514 28.1784C16.2938 28.2014 16.2361 28.2244 16.1785 28.2474C16.1082 28.2754 16.0372 28.3034 15.9669 28.3314C15.908 28.3544 15.8491 28.3774 15.7908 28.3998C15.7477 28.4166 15.7047 28.4328 15.6616 28.4496C15.2074 28.2107 14.7481 27.9594 14.294 27.7019C13.8353 27.4419 13.3843 27.1769 12.951 26.9126C12.944 26.8678 12.9371 26.8224 12.9301 26.777C12.9206 26.7148 12.9111 26.6532 12.9022 26.5904C12.8915 26.5188 12.8813 26.4473 12.8712 26.3758C12.8623 26.3123 12.8528 26.2483 12.8446 26.1848C12.8351 26.1139 12.8256 26.0424 12.8161 25.9708C12.8079 25.9061 12.799 25.8421 12.7908 25.7774C12.7819 25.7058 12.773 25.6337 12.7641 25.5622C12.7565 25.4975 12.7483 25.4328 12.7407 25.3675C12.7318 25.2947 12.7242 25.2213 12.716 25.1479C12.709 25.0838 12.7014 25.0198 12.6945 24.9557C12.6862 24.8792 12.6786 24.8027 12.671 24.7262C12.6647 24.6652 12.6584 24.6036 12.652 24.5427C12.6482 24.506 12.6451 24.4686 12.6419 24.4319C13.4933 24.9868 14.3763 25.5242 15.2752 26.0343L15.2739 26.0349ZM13.9405 28.3034C14.2217 28.4627 14.5055 28.6194 14.788 28.7731C14.6848 28.8098 14.5822 28.8471 14.4796 28.8825C14.4491 28.8931 14.4194 28.9031 14.389 28.9136C14.2325 28.9677 14.076 29.0206 13.9208 29.0716C13.9075 29.076 13.8936 29.0803 13.8803 29.0847C13.7295 29.1345 13.58 29.1823 13.4318 29.229C13.4172 29.2334 13.4027 29.2383 13.3881 29.2427C13.3843 29.2265 13.3811 29.211 13.3773 29.1948C13.3444 29.0461 13.3127 28.8962 13.281 28.7451C13.2779 28.7295 13.2747 28.714 13.2709 28.6978C13.2386 28.5392 13.2069 28.3799 13.1765 28.2195C13.1708 28.1896 13.1651 28.1604 13.1594 28.1305C13.1398 28.0266 13.1214 27.9215 13.1024 27.817C13.3773 27.98 13.6573 28.1423 13.9405 28.3028V28.3034ZM28.5835 19.5434C28.5835 19.4943 28.5823 19.4445 28.5816 19.3954C28.5804 19.2915 28.5791 19.1876 28.5772 19.0844C28.5772 19.0707 28.5772 19.057 28.5772 19.0439C28.9604 19.3606 29.3335 19.6797 29.6921 20C29.6851 20.0062 29.6788 20.0118 29.6718 20.018C29.6547 20.0336 29.6376 20.0485 29.6199 20.0641C29.6034 20.0784 29.5869 20.0933 29.5704 20.1076C29.4951 20.1748 29.4191 20.2413 29.3418 20.3079C29.305 20.3396 29.2683 20.3714 29.2316 20.4031C29.1568 20.4678 29.0814 20.5318 29.006 20.5959C28.9775 20.6202 28.949 20.6444 28.9205 20.6681C28.9091 20.6774 28.8977 20.6873 28.8863 20.6967C28.7995 20.7694 28.7127 20.8422 28.6253 20.915C28.6089 20.9287 28.5924 20.9424 28.5759 20.9561C28.5759 20.9424 28.5759 20.9293 28.5759 20.9156C28.5778 20.8124 28.5791 20.7091 28.5804 20.6052C28.5804 20.5555 28.5816 20.5063 28.5823 20.4566C28.5835 20.3042 28.5842 20.1518 28.5842 19.9994C28.5842 19.847 28.5835 19.6946 28.5823 19.5422L28.5835 19.5434ZM28.5493 18.1227C28.5436 17.9734 28.5373 17.8242 28.5297 17.6749C28.5271 17.6263 28.5252 17.5772 28.5227 17.5287C28.5126 17.3296 28.5012 17.1312 28.4885 16.9334C28.4872 16.9116 28.4853 16.8899 28.4841 16.8681C28.472 16.6858 28.4594 16.5048 28.4454 16.3238C28.4416 16.2778 28.4385 16.2318 28.4347 16.1857C28.4188 15.9898 28.4024 15.7945 28.384 15.5998C28.3833 15.5917 28.3827 15.583 28.3821 15.5749C29.5242 16.4296 30.5859 17.3122 31.5481 18.2073C31.486 18.2726 31.424 18.3373 31.3606 18.4026C31.3517 18.4113 31.3435 18.4201 31.3346 18.4294C31.2751 18.4903 31.2155 18.5513 31.1547 18.6129C31.1313 18.6365 31.1079 18.6602 31.0844 18.6832C31.0382 18.7298 30.9913 18.7765 30.9444 18.8231C30.9172 18.8499 30.8906 18.8766 30.8633 18.9034C30.819 18.9475 30.774 18.9911 30.729 19.0352C30.7012 19.0626 30.6727 19.09 30.6448 19.1173C30.5992 19.1615 30.5529 19.2057 30.5067 19.2498C30.4795 19.276 30.4516 19.3021 30.4237 19.3288C30.373 19.3767 30.3224 19.424 30.2717 19.4719C30.2521 19.4906 30.2318 19.5092 30.2121 19.5279C29.6851 19.0558 29.1277 18.5849 28.5506 18.1233L28.5493 18.1227ZM35.5883 10.5197C35.5908 10.5496 35.5927 10.58 35.5946 10.6099C35.5965 10.6429 35.5991 10.6758 35.6003 10.7088C35.6016 10.7393 35.6016 10.771 35.6022 10.8021C35.6022 10.8357 35.6035 10.8687 35.6029 10.9022C35.6029 10.934 35.6016 10.9657 35.6003 10.9974C35.5991 11.031 35.5984 11.0652 35.5965 11.0988C35.5946 11.1312 35.5921 11.1641 35.5902 11.1971C35.5877 11.2313 35.5851 11.2655 35.582 11.2997C35.5788 11.3333 35.575 11.3669 35.5706 11.4005C35.5668 11.4353 35.5623 11.4695 35.5573 11.5044C35.5528 11.5386 35.5471 11.5728 35.5414 11.607C35.5357 11.6418 35.53 11.6773 35.5237 11.7121C35.5174 11.747 35.5104 11.7818 35.5034 11.8172C35.4965 11.8527 35.4895 11.8882 35.4813 11.9236C35.4737 11.9591 35.4654 11.9945 35.4566 12.0306C35.4483 12.0667 35.4394 12.1028 35.4299 12.1388C35.4204 12.1749 35.4109 12.211 35.4008 12.2477C35.3907 12.2844 35.3805 12.3205 35.3698 12.3572C35.359 12.3939 35.3476 12.4306 35.3362 12.4679C35.3248 12.5046 35.3134 12.5419 35.3007 12.5786C35.2887 12.6159 35.276 12.6533 35.2627 12.6912C35.25 12.7285 35.2367 12.7658 35.2234 12.8032C35.2095 12.8411 35.1956 12.879 35.181 12.9176C35.1664 12.9556 35.1519 12.9935 35.1373 13.0314C35.1221 13.07 35.1069 13.1086 35.091 13.1471C35.0752 13.1851 35.0594 13.2236 35.0429 13.2622C35.0264 13.3014 35.0093 13.34 34.9922 13.3792C34.9827 13.4009 34.9726 13.4233 34.9625 13.4451C34.9549 13.4619 34.9473 13.4787 34.9396 13.4955C34.9219 13.5347 34.9035 13.5745 34.8845 13.6143C34.8662 13.6535 34.8465 13.6933 34.8275 13.7325C34.8079 13.7723 34.7883 13.8121 34.7686 13.8519C34.7483 13.8917 34.7281 13.9315 34.7072 13.9719C34.6863 14.0118 34.6654 14.0522 34.6438 14.0926C34.6223 14.1331 34.6001 14.1741 34.5773 14.2145C34.5551 14.255 34.533 14.2948 34.5108 14.3352C34.4874 14.3763 34.4639 14.4179 34.4398 14.4596C34.4164 14.5 34.393 14.5405 34.3695 14.5809C34.3448 14.6226 34.3195 14.6649 34.2942 14.7066C34.2695 14.747 34.2447 14.788 34.2194 14.8285C34.1934 14.8708 34.1662 14.9137 34.139 14.956C34.113 14.997 34.0876 15.0375 34.061 15.0785C34.0332 15.1215 34.0047 15.165 33.9755 15.2085C33.9483 15.2496 33.9217 15.29 33.8944 15.3311C33.8647 15.3752 33.8343 15.4194 33.8039 15.4636C33.776 15.504 33.7481 15.5444 33.7196 15.5855C33.6879 15.6303 33.6556 15.6757 33.6233 15.7205C33.5942 15.7609 33.5657 15.8013 33.5365 15.8418C33.503 15.8878 33.4688 15.9338 33.4346 15.9798C33.4048 16.0203 33.3756 16.0601 33.3452 16.1005C33.3098 16.1478 33.273 16.1951 33.2369 16.2423C33.2065 16.2822 33.1767 16.3213 33.1457 16.3611C33.1083 16.4097 33.0697 16.4582 33.031 16.5067C33 16.5459 32.9696 16.5845 32.9379 16.6236C32.898 16.6734 32.8568 16.7232 32.8157 16.7729C32.7846 16.8109 32.7536 16.8494 32.7219 16.8874C32.6788 16.9396 32.6345 16.9919 32.5901 17.0435C32.5597 17.0796 32.5293 17.1163 32.4983 17.1524C32.4502 17.2083 32.4014 17.265 32.352 17.3209C32.3235 17.3539 32.2956 17.3862 32.2665 17.4192C32.2082 17.4851 32.1486 17.5517 32.0891 17.6176C32.0682 17.6407 32.0479 17.6643 32.027 17.6873C32.0251 17.6898 32.0226 17.6917 32.0207 17.6941C30.8956 16.6485 29.6395 15.6209 28.2801 14.6344C28.2605 14.4646 28.2408 14.2948 28.2193 14.1268C28.2098 14.0528 28.1996 13.98 28.1895 13.906C28.1705 13.7617 28.1515 13.6174 28.1306 13.4743C28.1179 13.3866 28.1046 13.3002 28.0913 13.2137C28.0723 13.0856 28.0527 12.9574 28.0324 12.8299C28.0178 12.7378 28.002 12.647 27.9868 12.5556C27.9665 12.4343 27.9463 12.3136 27.9254 12.1936C27.9089 12.1003 27.8918 12.0076 27.8747 11.9149C27.8531 11.798 27.8316 11.681 27.8088 11.5653C27.7911 11.472 27.7721 11.38 27.7537 11.2873C27.7309 11.1728 27.7074 11.059 27.6834 10.9458C27.6637 10.8537 27.6441 10.7623 27.6238 10.6709C27.5991 10.5589 27.5738 10.4469 27.5484 10.3356C27.5275 10.2454 27.5066 10.1558 27.4857 10.0662C27.4743 10.019 27.4636 9.97045 27.4522 9.9238C31.1212 9.18297 33.9901 9.38388 35.582 10.4942C35.5826 10.5023 35.5839 10.5098 35.5845 10.5178L35.5883 10.5197ZM35.1829 9.21345C35.2475 9.32355 35.3045 9.43862 35.3539 9.55743C33.5353 8.66607 30.7265 8.55472 27.2837 9.25264C27.278 9.23087 27.2723 9.20972 27.2659 9.18857C27.2482 9.12263 27.2305 9.05608 27.2121 8.99076C27.2019 8.95469 27.1918 8.91861 27.1817 8.88253C27.1646 8.82095 27.1475 8.75999 27.1297 8.69903C27.1196 8.66296 27.1088 8.62688 27.0987 8.5908C27.0803 8.52735 27.062 8.46453 27.0429 8.40108C27.0334 8.36936 27.0239 8.33764 27.0151 8.30653C26.9885 8.21883 26.9619 8.13175 26.9353 8.04528C26.9334 8.03969 26.9315 8.03347 26.9302 8.02787C26.9017 7.93643 26.8725 7.84561 26.8434 7.75542C26.8339 7.72556 26.8244 7.69633 26.8143 7.66709C26.8003 7.62355 26.7858 7.58001 26.7718 7.53709C31.0553 6.78506 34.1092 7.39029 35.1823 9.21469L35.1829 9.21345ZM20.1553 0.693559C22.3668 0.693559 24.4882 3.13066 25.9743 7.38034C26.2321 8.11619 26.4703 8.91177 26.6831 9.74404C26.7845 10.1434 26.8801 10.5502 26.9695 10.9638C27.2368 12.206 27.4477 13.5123 27.5985 14.8627C27.7081 15.8399 27.786 16.8482 27.8322 17.8671C27.8386 18.0126 27.8449 18.1582 27.85 18.3044C27.8696 18.8604 27.8797 19.4308 27.8797 20C27.8797 20.1356 27.8791 20.2718 27.8778 20.4074C27.8778 20.4541 27.8766 20.5001 27.8759 20.5468C27.8747 20.6357 27.874 20.7247 27.8721 20.8136C27.8715 20.869 27.8702 20.9237 27.869 20.9791C27.8671 21.0587 27.8658 21.1389 27.8639 21.2185C27.8626 21.2764 27.8607 21.3336 27.8588 21.3909C27.8576 21.44 27.8557 21.4885 27.8544 21.537C27.8329 21.5538 27.8113 21.5706 27.7898 21.5874C27.6663 21.6844 27.5415 21.7809 27.4154 21.8773C27.392 21.8953 27.3692 21.9134 27.3457 21.9308C27.2 22.0415 27.0531 22.1522 26.9042 22.2623C26.8675 22.2897 26.8301 22.317 26.7927 22.3444C26.6648 22.4383 26.5362 22.5323 26.407 22.6256C26.3791 22.6455 26.3512 22.666 26.3233 22.6859C26.1719 22.7948 26.0186 22.9024 25.8653 23.01C25.8514 23.0199 25.8375 23.0293 25.8235 23.0392C25.8248 23.0168 25.8261 22.9938 25.8273 22.9714C25.8406 22.7543 25.8533 22.536 25.8634 22.317C25.8653 22.2835 25.8666 22.2492 25.8679 22.215C25.8774 22.0116 25.885 21.8082 25.892 21.6036C25.8932 21.5663 25.8945 21.5283 25.8958 21.491C25.9027 21.2702 25.9078 21.0481 25.9116 20.826C25.9122 20.7782 25.9129 20.7309 25.9135 20.683C25.9167 20.4553 25.9186 20.227 25.9186 19.9988C25.9186 19.6809 25.9154 19.3637 25.9091 19.0464C25.8951 18.3417 25.866 17.6413 25.8216 16.9502L25.828 16.9546L25.771 16.2318C25.771 16.228 25.771 16.2249 25.7703 16.2212L25.7577 16.0663H25.757C25.7374 15.8306 25.7165 15.5961 25.6937 15.3628C25.6335 14.7557 25.5619 14.1554 25.4783 13.5658L25.4865 13.5707L25.3668 12.8212C25.3668 12.8212 25.3655 12.815 25.3655 12.8119L25.3421 12.6644H25.3415C25.3136 12.4953 25.2857 12.3267 25.256 12.1594C25.1394 11.5013 25.0076 10.8562 24.8619 10.2336L24.7771 9.87031H24.7752C24.5946 9.13507 24.3938 8.42285 24.1753 7.74796L24.0714 7.42699H24.0695C24.0663 7.4189 24.0638 7.41082 24.0606 7.40211C24.048 7.36479 24.0353 7.32809 24.0226 7.29139C23.996 7.21488 23.97 7.13837 23.9434 7.06311C23.9282 7.02018 23.9124 6.97727 23.8972 6.93435C23.8725 6.8653 23.8471 6.79688 23.8224 6.72845C23.806 6.68491 23.7901 6.64137 23.7737 6.59783C23.7483 6.53127 23.723 6.46472 23.6977 6.39878C23.6812 6.35648 23.6647 6.31419 23.6482 6.27189C23.6216 6.20409 23.5944 6.13691 23.5672 6.06973C23.552 6.03179 23.5361 5.99322 23.5209 5.95528C23.4892 5.87815 23.4569 5.80164 23.4246 5.72575C23.4132 5.69962 23.4025 5.67288 23.3917 5.64675C23.348 5.54536 23.3036 5.44459 23.2593 5.34507C23.2504 5.32516 23.2409 5.30526 23.2321 5.28535C23.1966 5.20698 23.1605 5.12923 23.1244 5.05209C23.1085 5.01851 23.0927 4.98554 23.0769 4.95257C23.0471 4.88975 23.0167 4.82692 22.9863 4.76534C22.9685 4.72926 22.9508 4.69381 22.9331 4.65835C22.9039 4.59988 22.8748 4.54203 22.845 4.48481C22.8266 4.44935 22.8083 4.4139 22.7899 4.37844C22.7601 4.32121 22.7297 4.26461 22.6993 4.20863C22.6816 4.17566 22.6638 4.14207 22.6455 4.1091C22.6125 4.04877 22.5796 3.98967 22.546 3.9312C22.5308 3.90383 22.515 3.87584 22.4998 3.8491C22.4548 3.77072 22.4092 3.69297 22.3636 3.61646C22.3598 3.61024 22.356 3.6034 22.3522 3.59655C22.3021 3.5132 22.2515 3.4311 22.2008 3.35023C22.1869 3.32846 22.1729 3.30731 22.1596 3.28554C22.1229 3.22769 22.0855 3.17047 22.0481 3.11386C22.0298 3.08649 22.0114 3.05912 21.993 3.03238C21.9594 2.98261 21.9259 2.93347 21.8923 2.88496C21.8727 2.85634 21.853 2.82835 21.8334 2.80098C21.8004 2.75433 21.7669 2.70768 21.7339 2.66227C21.7143 2.6349 21.694 2.60815 21.6744 2.58141C21.6395 2.53476 21.6053 2.48935 21.5705 2.44394C21.5515 2.41968 21.5331 2.39542 21.5141 2.37116C21.4748 2.32078 21.4349 2.27102 21.395 2.2225C21.3811 2.20508 21.3672 2.18767 21.3526 2.17025C21.2981 2.10431 21.243 2.03962 21.1879 1.97618C21.1822 1.96996 21.1765 1.96374 21.1708 1.95689C21.1214 1.90091 21.072 1.84617 21.0226 1.79268C21.0048 1.7734 20.9871 1.75536 20.9693 1.7367C20.9313 1.69626 20.8933 1.65646 20.8553 1.61789C20.8344 1.59674 20.8141 1.57621 20.7932 1.55569C20.7578 1.52023 20.7217 1.48478 20.6856 1.45056C20.664 1.43004 20.6418 1.40889 20.6203 1.38898C20.5842 1.35539 20.5487 1.32243 20.5126 1.2907C20.4911 1.27142 20.4695 1.25214 20.448 1.23348C20.41 1.19989 20.3714 1.16754 20.3327 1.13582C20.3131 1.11965 20.2941 1.10285 20.2744 1.0873C20.2269 1.04874 20.1788 1.01141 20.1313 0.974093C20.1211 0.966006 20.1104 0.95792 20.1002 0.949834C20.042 0.90567 19.983 0.86275 19.9241 0.821696C19.9089 0.811122 19.8931 0.800547 19.8773 0.789973C19.8412 0.765714 19.8057 0.740833 19.7696 0.717196C19.8988 0.700401 20.0287 0.692315 20.1579 0.692315L20.1553 0.693559ZM17.9566 1.51277C17.987 1.48975 18.0174 1.46736 18.0478 1.44559C18.0732 1.42755 18.0979 1.40951 18.1232 1.39209C18.1536 1.37095 18.1847 1.3498 18.2151 1.32989C18.2404 1.3131 18.2651 1.29692 18.2904 1.28075C18.3215 1.26085 18.3525 1.24219 18.3836 1.22353C18.4089 1.2086 18.4336 1.19305 18.4589 1.17874C18.4906 1.1607 18.5223 1.14328 18.554 1.12587C18.5787 1.11218 18.604 1.0985 18.6287 1.08606C18.661 1.06926 18.6933 1.05371 18.7263 1.03816C18.751 1.02634 18.775 1.01452 18.7997 1.00271C18.8073 0.999596 18.8149 0.996486 18.8219 0.992753C18.8289 0.995864 18.8359 0.998974 18.8428 1.00208C18.8707 1.01452 18.8986 1.02883 18.9264 1.04189C18.9562 1.0562 18.9866 1.07113 19.0164 1.08606C19.0443 1.10036 19.0715 1.11591 19.0994 1.13084C19.1291 1.14702 19.1589 1.16319 19.1887 1.18061C19.2159 1.19616 19.2438 1.21295 19.271 1.22975C19.3008 1.24778 19.3306 1.26582 19.3597 1.28448C19.387 1.3019 19.4142 1.31994 19.4414 1.33798C19.4706 1.35788 19.5004 1.37717 19.5295 1.39769C19.5567 1.41635 19.5833 1.43626 19.6106 1.45616C19.6397 1.47731 19.6689 1.49908 19.698 1.52085C19.7246 1.54138 19.7518 1.56253 19.7784 1.58368C19.8076 1.60669 19.8361 1.62971 19.8652 1.65334C19.8918 1.67512 19.9184 1.69813 19.945 1.72052C19.9735 1.74478 20.0027 1.76966 20.0312 1.79517C20.0578 1.8188 20.0838 1.84244 20.1104 1.8667C20.1389 1.89283 20.1674 1.91957 20.1959 1.94632C20.2219 1.9712 20.2478 1.9967 20.2744 2.02221C20.3029 2.0502 20.3308 2.07819 20.3587 2.1068C20.3847 2.13293 20.4106 2.1603 20.4366 2.18704C20.4645 2.21628 20.4923 2.24614 20.5202 2.27661C20.5456 2.30461 20.5715 2.3326 20.5969 2.36121C20.6247 2.39231 20.652 2.42341 20.6799 2.45514C20.7052 2.48437 20.7305 2.51423 20.7559 2.54409C20.7831 2.57643 20.8103 2.6094 20.8382 2.64299C20.8636 2.67347 20.8883 2.70457 20.9136 2.73567C20.9408 2.76988 20.9681 2.80409 20.9947 2.83893C21.0194 2.87065 21.0441 2.903 21.0688 2.93596C21.0954 2.97142 21.1226 3.00812 21.1492 3.04419C21.174 3.07778 21.198 3.11075 21.2227 3.14496C21.2493 3.18228 21.2759 3.21961 21.3019 3.25817C21.326 3.29301 21.3501 3.32784 21.3741 3.36329C21.4001 3.40186 21.4267 3.44167 21.4527 3.48086C21.4767 3.51693 21.5002 3.55301 21.5236 3.58971C21.5496 3.63014 21.5756 3.6712 21.6015 3.71225C21.625 3.74957 21.6484 3.78689 21.6719 3.82484C21.6972 3.86651 21.7232 3.90881 21.7485 3.95173C21.7719 3.9903 21.7947 4.02886 21.8175 4.06867C21.8429 4.11221 21.8682 4.15576 21.8929 4.19992C21.9157 4.23973 21.9385 4.27954 21.9613 4.31997C21.9867 4.36476 22.0114 4.41079 22.0361 4.45682C22.0583 4.49787 22.0804 4.5383 22.1026 4.57998C22.1273 4.62663 22.152 4.6739 22.1767 4.72118C22.1989 4.76347 22.2204 4.80515 22.2426 4.84807C22.2673 4.89597 22.2914 4.94511 22.3154 4.99362C22.337 5.03717 22.3585 5.08009 22.3801 5.12363C22.4041 5.17339 22.4282 5.2244 22.4523 5.27478C22.4732 5.31894 22.4941 5.36311 22.515 5.40727C22.5391 5.4589 22.5625 5.51177 22.5866 5.56402C22.6068 5.60943 22.6277 5.65359 22.648 5.69962C22.6714 5.75312 22.6949 5.80786 22.7183 5.86197C22.738 5.908 22.7582 5.95341 22.7779 5.99944C22.8013 6.0548 22.8247 6.1114 22.8475 6.16739C22.8666 6.21404 22.8862 6.26007 22.9052 6.30734C22.9286 6.36519 22.9521 6.42428 22.9749 6.48338C22.9932 6.53003 23.0116 6.57606 23.03 6.62271C23.0534 6.68367 23.0769 6.74587 23.1003 6.80807C23.1174 6.8541 23.1351 6.89951 23.1522 6.94616C23.1763 7.01148 23.2004 7.07803 23.2245 7.14459C23.2403 7.18875 23.2568 7.2323 23.272 7.27646C23.2986 7.35235 23.3252 7.42886 23.3518 7.50599C23.3645 7.54206 23.3771 7.57814 23.3892 7.61422C23.3898 7.61671 23.3911 7.61982 23.3917 7.62231C21.9069 8.05524 20.3726 8.61008 18.8238 9.27316C18.6826 9.21283 18.5413 9.15311 18.4007 9.09464C18.3842 9.0878 18.3677 9.08096 18.3513 9.07411C18.172 9.00009 17.9934 8.92732 17.8147 8.85578C17.79 8.84583 17.7653 8.83588 17.7406 8.82655C17.5664 8.7575 17.3928 8.6897 17.2199 8.62377C17.192 8.61319 17.1635 8.602 17.1356 8.59142C16.964 8.52611 16.7923 8.46266 16.6213 8.39984C16.5934 8.38989 16.5655 8.37931 16.5377 8.36936C16.3654 8.30716 16.1943 8.2462 16.0227 8.18711C15.998 8.1784 15.9739 8.17031 15.9492 8.1616C15.7743 8.10127 15.5995 8.04217 15.4253 7.98495C15.4088 7.97935 15.3924 7.97437 15.3759 7.96877C15.1941 7.90968 15.0136 7.85121 14.833 7.79585C14.8311 7.79585 14.8292 7.79461 14.828 7.79399C14.6487 7.73863 14.4701 7.68513 14.2921 7.63288C14.28 7.62915 14.268 7.62542 14.2559 7.62168C14.2566 7.61982 14.2572 7.61795 14.2578 7.61609C14.2686 7.58374 14.28 7.55139 14.2914 7.51905C14.3187 7.44005 14.3453 7.36105 14.3731 7.2833C14.3883 7.23976 14.4042 7.19684 14.42 7.1533C14.4434 7.08799 14.4669 7.02205 14.491 6.95736C14.5081 6.91071 14.5258 6.8653 14.5429 6.81927C14.5657 6.75893 14.5885 6.6986 14.6113 6.6395C14.6297 6.59161 14.6487 6.54496 14.6671 6.49768C14.6892 6.44108 14.712 6.38447 14.7342 6.32849C14.7532 6.2806 14.7728 6.23394 14.7925 6.18667C14.8147 6.13255 14.8375 6.07844 14.8596 6.02494C14.8793 5.97767 14.8995 5.93164 14.9198 5.88499C14.9426 5.83274 14.9648 5.78049 14.9876 5.72886C15.0079 5.68283 15.0288 5.6368 15.049 5.59077C15.0718 5.54038 15.0946 5.49 15.1174 5.44024C15.1384 5.39483 15.1593 5.35005 15.1808 5.30526C15.2036 5.25612 15.227 5.2076 15.2505 5.15971C15.272 5.11554 15.2935 5.07138 15.3151 5.02784C15.3385 4.98056 15.362 4.93329 15.3854 4.88664C15.4069 4.84372 15.4291 4.8008 15.4506 4.7585C15.4747 4.71247 15.4982 4.66644 15.5222 4.62103C15.5444 4.57936 15.5666 4.53768 15.5887 4.49663C15.6128 4.45184 15.6375 4.40768 15.6616 4.36351C15.6838 4.32308 15.7059 4.28265 15.7287 4.24284C15.7534 4.1993 15.7781 4.15638 15.8035 4.11346C15.8263 4.07489 15.8485 4.0357 15.8713 3.99776C15.8966 3.95484 15.9226 3.91317 15.9479 3.87087C15.9701 3.83417 15.9929 3.79685 16.0151 3.76015C16.0417 3.71785 16.0676 3.6768 16.0942 3.63512C16.1164 3.60029 16.1386 3.56545 16.1608 3.53062C16.1886 3.48832 16.2165 3.44665 16.2444 3.40497C16.2659 3.37325 16.2868 3.3409 16.3084 3.30918C16.3394 3.26377 16.3704 3.22023 16.4021 3.17606C16.4211 3.14932 16.4395 3.12257 16.4585 3.09645C16.5066 3.02989 16.5554 2.96458 16.6035 2.90051C16.6156 2.88496 16.6276 2.87003 16.6397 2.85448C16.6802 2.8016 16.7214 2.74873 16.7625 2.69773C16.7822 2.67347 16.8018 2.65045 16.8215 2.62682C16.8538 2.58763 16.8854 2.54844 16.9177 2.5105C16.9393 2.48499 16.9614 2.46011 16.9836 2.43523C17.014 2.4004 17.0444 2.36556 17.0748 2.33198C17.0976 2.30647 17.1211 2.28221 17.1439 2.25733C17.1737 2.22499 17.2034 2.19326 17.2332 2.16216C17.2566 2.1379 17.2807 2.11427 17.3041 2.09001C17.3339 2.06015 17.3637 2.03029 17.3935 2.00106C17.4175 1.97742 17.4416 1.95503 17.4663 1.93201C17.4961 1.90402 17.5252 1.87603 17.555 1.84928C17.5797 1.82689 17.6044 1.80512 17.6285 1.78335C17.6583 1.75722 17.688 1.7311 17.7178 1.7056C17.7425 1.68445 17.7672 1.66392 17.7919 1.64401C17.8217 1.61976 17.8521 1.5955 17.8819 1.57186C17.9066 1.55258 17.9319 1.53329 17.9566 1.51401V1.51277ZM2.46157 9.21283C3.23249 7.90097 5.02771 7.21986 7.56788 7.21986C8.56051 7.21986 9.6678 7.32436 10.872 7.53522C10.8663 7.55202 10.8612 7.56943 10.8555 7.58623C10.808 7.73054 10.7605 7.87609 10.7149 8.02351C10.7143 8.026 10.7136 8.02849 10.7124 8.03098C10.6655 8.18026 10.6205 8.33204 10.5755 8.48443C10.5673 8.51305 10.5584 8.54104 10.5502 8.56965C10.5071 8.71769 10.4653 8.86636 10.4241 9.01627C10.4165 9.04488 10.4083 9.07411 10.4007 9.10273C10.3874 9.15249 10.3735 9.20163 10.3602 9.25201C6.91795 8.5541 4.1092 8.66482 2.29053 9.55681C2.34058 9.438 2.39696 9.32355 2.46157 9.21283ZM2.05869 10.4973C3.02028 9.82552 4.44683 9.48527 6.23635 9.48527C7.40888 9.48527 8.73661 9.63083 10.1891 9.92442C10.1784 9.96859 10.1682 10.014 10.1575 10.0588C10.1473 10.0998 10.1372 10.1403 10.1277 10.1819C10.1169 10.2274 10.1068 10.274 10.0967 10.32C10.0719 10.4276 10.0472 10.5359 10.0232 10.6447C10.0118 10.6964 9.99973 10.7474 9.98833 10.7996C9.97946 10.84 9.97123 10.8817 9.96299 10.9228C9.94019 11.0285 9.91865 11.1349 9.89711 11.2419C9.88444 11.3041 9.87114 11.3657 9.8591 11.4285C9.85214 11.4633 9.8458 11.4988 9.83883 11.5336C9.81856 11.6387 9.79893 11.7451 9.77865 11.8508C9.76535 11.923 9.75142 11.9945 9.73811 12.0673C9.73305 12.0959 9.72798 12.1245 9.72291 12.1525C9.70391 12.2589 9.68617 12.3659 9.6678 12.4729C9.65386 12.5537 9.63993 12.6346 9.62663 12.7161C9.62282 12.7378 9.61966 12.759 9.61586 12.7801C9.59812 12.8902 9.58165 13.001 9.56454 13.1117C9.55188 13.1944 9.53857 13.2771 9.52654 13.3605C9.52337 13.3804 9.5202 13.4003 9.51767 13.4202C9.5145 13.4438 9.51133 13.4675 9.50817 13.4911C9.49423 13.5882 9.48093 13.6864 9.46763 13.7841C9.45812 13.8538 9.44799 13.9234 9.43912 13.9937C9.43595 14.0174 9.43279 14.0416 9.43025 14.0653C9.42138 14.1362 9.41251 14.2077 9.40428 14.2792C9.38971 14.3974 9.37451 14.5156 9.36057 14.635C9.33207 14.6556 9.30356 14.6767 9.27505 14.6972C9.23325 14.7277 9.1908 14.7588 9.149 14.7893C9.09832 14.8266 9.04828 14.8633 8.99823 14.9006C8.95833 14.9299 8.91842 14.9597 8.87914 14.989C8.86711 14.9983 8.85444 15.007 8.8424 15.0163C8.80249 15.0462 8.76322 15.076 8.72395 15.1053C8.68277 15.1364 8.64159 15.1675 8.60042 15.1986C8.55101 15.2359 8.50223 15.2732 8.45346 15.3112C8.42432 15.3336 8.39455 15.356 8.36541 15.3783C8.35844 15.3839 8.3521 15.3889 8.34514 15.3945C8.34007 15.3983 8.33563 15.402 8.33057 15.4057C8.28242 15.443 8.23428 15.4804 8.18614 15.5177C8.1456 15.5494 8.10505 15.5811 8.06451 15.6129C8.017 15.6502 7.96949 15.6881 7.92199 15.7254C7.91818 15.7285 7.91375 15.7317 7.90995 15.7348C7.89411 15.7472 7.87828 15.7597 7.86244 15.7727C7.84217 15.7889 7.8219 15.8051 7.80163 15.8212C7.75475 15.8586 7.70788 15.8965 7.661 15.9338C7.62109 15.9662 7.58055 15.9985 7.54064 16.0309C7.50454 16.0601 7.46906 16.0893 7.43359 16.1179C7.41395 16.1341 7.39431 16.1503 7.37468 16.1665C7.34427 16.1913 7.3145 16.2156 7.28473 16.2405C7.23912 16.2784 7.19351 16.3157 7.14853 16.3537C7.10989 16.386 7.07062 16.4184 7.03198 16.4507C7.00854 16.47 6.98573 16.4899 6.9623 16.5092C6.94329 16.5254 6.92492 16.5409 6.90592 16.5571C6.90338 16.5596 6.90022 16.5614 6.89768 16.5639C6.85904 16.5969 6.8204 16.6292 6.78176 16.6622C6.73742 16.7002 6.69307 16.7381 6.64937 16.776C6.61136 16.8084 6.57335 16.8414 6.53598 16.8737C6.52394 16.8843 6.51191 16.8948 6.49987 16.9048C6.48847 16.9148 6.4777 16.9247 6.4663 16.9347C6.44539 16.9527 6.42449 16.9714 6.40358 16.9894C6.36684 17.0217 6.32947 17.0541 6.29273 17.0864C6.24839 17.1256 6.20468 17.1648 6.16034 17.204C6.1255 17.2351 6.09002 17.2668 6.05518 17.2979C6.05265 17.3004 6.05011 17.3023 6.04758 17.3048C6.00387 17.344 5.9608 17.3838 5.91709 17.4229C5.88415 17.4528 5.85057 17.4827 5.81827 17.5131C5.76886 17.5585 5.72008 17.604 5.67131 17.6487C5.66434 17.6556 5.65674 17.6618 5.64977 17.6686C5.6409 17.6767 5.6314 17.6848 5.62253 17.6935C3.1343 14.9442 1.87815 12.4051 2.06059 10.4954L2.05869 10.4973ZM9.05968 20.4323C9.05968 20.4404 9.05968 20.4485 9.05968 20.4566C9.05968 20.5063 9.06095 20.5561 9.06158 20.6059C9.06285 20.7091 9.06411 20.8124 9.06601 20.915C9.06601 20.9287 9.06601 20.9424 9.06601 20.9561C8.6815 20.6388 8.3084 20.3191 7.95049 19.9994C7.95683 19.9938 7.96316 19.9882 7.96949 19.982C7.9866 19.967 8.00307 19.9521 8.02017 19.9372C8.03791 19.9216 8.05564 19.9061 8.07338 19.8905C8.1475 19.8246 8.22225 19.7593 8.29826 19.6933C8.33564 19.661 8.37301 19.628 8.41102 19.5957C8.4845 19.5322 8.55925 19.4688 8.63336 19.4053C8.6606 19.3817 8.68847 19.3587 8.71571 19.3351C8.73028 19.3226 8.74485 19.3108 8.75942 19.2984C8.84367 19.2274 8.92792 19.1572 9.0128 19.0869C9.03054 19.0726 9.04764 19.0576 9.06538 19.0433C9.06538 19.057 9.06538 19.0707 9.06538 19.0844C9.06348 19.1876 9.06221 19.2909 9.06095 19.3941C9.06095 19.4439 9.05968 19.4937 9.05904 19.5434C9.05778 19.6958 9.05715 19.8482 9.05715 20.0006C9.05715 20.1449 9.05714 20.2892 9.05904 20.4336L9.05968 20.4323ZM9.09452 21.8773C9.10022 22.0266 9.10719 22.1765 9.11416 22.3251C9.11669 22.3737 9.11859 22.4222 9.12112 22.4707C9.13126 22.6697 9.14266 22.8682 9.15533 23.066C9.1566 23.0877 9.1585 23.1089 9.15976 23.1307C9.1718 23.3123 9.18447 23.4933 9.19841 23.6743C9.20221 23.721 9.20537 23.7676 9.20917 23.8143C9.22501 24.009 9.24148 24.203 9.25922 24.3959C9.25985 24.4052 9.26048 24.4145 9.26175 24.4238C8.11899 23.5686 7.05731 22.6859 6.09572 21.7908C6.15844 21.7255 6.22115 21.6596 6.28449 21.5943C6.29526 21.5831 6.30666 21.5719 6.31743 21.5607C6.37444 21.5016 6.43272 21.4431 6.49037 21.384C6.51444 21.3597 6.53851 21.3355 6.56258 21.3119C6.60882 21.2658 6.65507 21.2192 6.70131 21.1731C6.72855 21.1464 6.75579 21.1196 6.78303 21.0929C6.82737 21.0494 6.87234 21.0052 6.91732 20.9617C6.94519 20.9343 6.97306 20.9075 7.00094 20.8802C7.04718 20.8354 7.09342 20.7912 7.1403 20.7464C7.1669 20.7209 7.19351 20.6954 7.22011 20.6699C7.27269 20.6202 7.3259 20.5698 7.37974 20.52C7.39685 20.5038 7.41395 20.4883 7.43105 20.4721C7.95683 20.943 8.5149 21.4145 9.09325 21.8767L9.09452 21.8773ZM1.12814 11.4807C1.19275 11.3706 1.2656 11.2649 1.34541 11.1635C1.46894 13.1558 2.77576 15.5998 5.11196 18.1775C5.09676 18.1924 5.08219 18.2067 5.06699 18.2216C5.01631 18.2708 4.96627 18.3199 4.91686 18.369C4.89088 18.3946 4.86491 18.4201 4.83957 18.4462C4.79333 18.4922 4.74709 18.5382 4.70085 18.5849C4.67487 18.611 4.6489 18.6371 4.62293 18.6633C4.57542 18.7112 4.52854 18.7591 4.48167 18.8076C4.45886 18.8306 4.43606 18.8542 4.41389 18.8772C4.35054 18.9426 4.28783 19.0085 4.22512 19.0738C4.22005 19.0794 4.21498 19.0844 4.20992 19.09C4.14277 19.1603 4.07689 19.2312 4.01164 19.3015C3.99074 19.3239 3.97047 19.3456 3.9502 19.368C3.91789 19.4029 3.88558 19.4377 3.85328 19.4725C1.04895 16.2056 0.0556906 13.3058 1.12814 11.4807ZM1.96747 26.4386C1.9548 26.4678 1.94213 26.4971 1.92946 26.5263C1.90539 26.5829 1.88322 26.6395 1.86042 26.6955C1.85155 26.7185 1.84205 26.7415 1.83318 26.7639C1.80277 26.8423 1.773 26.9207 1.74576 26.9984C1.74133 27.0115 1.73689 27.0245 1.73246 27.0376C1.70965 27.1017 1.68811 27.1657 1.66721 27.2298C1.65834 27.2572 1.65011 27.2845 1.64124 27.3125C1.62604 27.3617 1.61083 27.4108 1.59626 27.4593C1.58739 27.4898 1.57916 27.5203 1.57029 27.5508C1.55762 27.5962 1.54559 27.6416 1.53355 27.6864C1.52532 27.7175 1.51771 27.7486 1.51011 27.7797C1.49934 27.8238 1.48921 27.868 1.47907 27.9122C1.47211 27.9426 1.46514 27.9731 1.4588 28.0036C1.4493 28.049 1.44043 28.0944 1.4322 28.1392C1.42713 28.1672 1.42143 28.1952 1.41636 28.2232C1.40686 28.2767 1.39926 28.3302 1.39166 28.383C1.38912 28.4017 1.38532 28.421 1.38342 28.4396C1.37392 28.5099 1.36568 28.5802 1.35935 28.6499C1.35682 28.6729 1.35555 28.6959 1.35365 28.7189C1.35048 28.7581 1.34668 28.7967 1.34415 28.8353C1.26496 28.7339 1.19275 28.6275 1.12814 28.518C0.0227507 26.637 1.11103 23.6146 4.1149 20.2264C4.63877 19.6355 5.22155 19.0352 5.84614 18.4412C5.9627 18.3305 6.08179 18.2198 6.20151 18.1097C6.22051 18.0922 6.23952 18.0742 6.25916 18.0568C6.37444 17.951 6.491 17.8453 6.60946 17.7396C6.63163 17.7203 6.65317 17.7004 6.67534 17.6811C6.7957 17.5741 6.91732 17.4671 7.04084 17.3601C7.05288 17.3495 7.06492 17.339 7.07758 17.329C7.19794 17.2251 7.31957 17.1213 7.44309 17.018C7.45829 17.0056 7.47286 16.9925 7.48807 16.9801C7.61349 16.8749 7.74018 16.7704 7.86814 16.6653C7.89285 16.6454 7.91755 16.6249 7.94226 16.605C8.06895 16.5017 8.19691 16.3991 8.3255 16.2971C8.34767 16.2797 8.36984 16.2622 8.39201 16.2442C8.52124 16.1416 8.65236 16.0396 8.78412 15.9382C8.79173 15.9326 8.79869 15.927 8.80629 15.9214C8.94059 15.8181 9.07678 15.7149 9.21361 15.6122C9.23008 15.5998 9.24592 15.588 9.26239 15.5755C9.26175 15.5849 9.26048 15.5948 9.25985 15.6041C9.24275 15.7864 9.22691 15.9699 9.21234 16.154C9.20854 16.2013 9.20474 16.2492 9.20094 16.2965C9.18954 16.4464 9.17813 16.5969 9.168 16.748C9.16483 16.7941 9.16167 16.8395 9.1585 16.8855C9.14646 17.0709 9.13569 17.2575 9.12556 17.4435C9.12366 17.4845 9.12176 17.525 9.11922 17.566C9.11162 17.7203 9.10465 17.8745 9.09832 18.0288C9.09705 18.0599 9.09515 18.0904 9.09389 18.1215C9.06728 18.1426 9.04068 18.1644 9.01407 18.1856C8.9938 18.2017 8.97289 18.2185 8.95262 18.2347C8.93615 18.2478 8.92032 18.2608 8.90448 18.2739C8.8557 18.3137 8.80693 18.3535 8.75815 18.3933C8.72141 18.4232 8.68467 18.453 8.64856 18.4835C8.59979 18.5233 8.55164 18.5631 8.5035 18.6036C8.46739 18.6334 8.43129 18.6633 8.39581 18.6931C8.34704 18.7342 8.29889 18.7746 8.25075 18.8157C8.21655 18.8449 8.1817 18.8741 8.1475 18.9027C8.09809 18.945 8.04868 18.9873 7.99927 19.0296C7.9733 19.0514 7.94732 19.0738 7.92199 19.0956C7.91692 19.0999 7.91185 19.1049 7.90615 19.1093C7.90488 19.1105 7.90361 19.1117 7.90235 19.113C7.8504 19.1578 7.79973 19.2026 7.74842 19.2473C7.71928 19.2729 7.69014 19.2984 7.66163 19.3232C7.60526 19.373 7.54951 19.4228 7.49377 19.4725C7.47096 19.493 7.44752 19.5136 7.42409 19.5341C7.34554 19.6044 7.26762 19.6747 7.19097 19.745C7.19097 19.745 7.19034 19.745 7.18971 19.7456L6.91225 19.9988L6.91352 20C6.8432 20.0659 6.77289 20.1312 6.70321 20.1972C6.22368 20.6519 5.76696 21.1128 5.34064 21.5712L5.10943 21.82L5.11069 21.8213C5.10436 21.8281 5.09866 21.835 5.09232 21.8418C5.06635 21.8711 5.04038 21.8997 5.01441 21.9283C4.9593 21.9892 4.90482 22.0508 4.85098 22.1118C4.8212 22.146 4.79206 22.1796 4.76229 22.2132C4.71351 22.2691 4.66474 22.3258 4.6166 22.3817C4.58682 22.4172 4.55642 22.452 4.52728 22.4875C4.4804 22.5428 4.43416 22.5982 4.38792 22.6536C4.37081 22.6741 4.35371 22.6946 4.33661 22.7145C4.3252 22.7282 4.31444 22.7425 4.30303 22.7562C4.25552 22.814 4.20865 22.8719 4.16241 22.9291C4.13707 22.9602 4.11236 22.9913 4.08766 23.0224C4.03381 23.0902 3.98124 23.1574 3.92929 23.2246C3.91346 23.2451 3.89635 23.2663 3.88052 23.2868C3.8121 23.3751 3.74559 23.4634 3.67971 23.5518C3.66767 23.5679 3.65627 23.5835 3.64487 23.5997C3.59229 23.6712 3.53972 23.7427 3.48841 23.8136C3.4675 23.8423 3.44786 23.8709 3.42696 23.9001C3.38579 23.9586 3.34461 24.0164 3.30407 24.0749C3.2819 24.1066 3.26036 24.139 3.23819 24.1707C3.20081 24.226 3.16344 24.2808 3.1267 24.3355C3.10516 24.3679 3.08363 24.4002 3.06272 24.4326C3.02661 24.4879 2.99114 24.5427 2.95567 24.5974C2.93603 24.6285 2.91576 24.6596 2.89675 24.6901C2.85938 24.7492 2.82327 24.8076 2.7878 24.8661C2.77196 24.8922 2.75549 24.9184 2.73966 24.9445C2.69151 25.0241 2.64527 25.1031 2.59966 25.1821C2.59713 25.1871 2.59396 25.1921 2.59143 25.1964C2.54265 25.281 2.49578 25.365 2.45017 25.4483C2.4375 25.4713 2.42546 25.4937 2.41343 25.5167C2.38112 25.5765 2.34881 25.6368 2.31841 25.6959C2.3032 25.7257 2.288 25.755 2.27343 25.7842C2.24683 25.8371 2.22022 25.89 2.19425 25.9422C2.17905 25.9739 2.16384 26.005 2.14864 26.0361C2.12457 26.0871 2.1005 26.1375 2.07706 26.1879C2.06249 26.219 2.04855 26.2507 2.03398 26.2818C2.01118 26.3335 1.98837 26.3845 1.96684 26.4355L1.96747 26.4386ZM2.05615 29.4815C2.05362 29.4511 2.05172 29.4193 2.04982 29.3882C2.04792 29.3565 2.04539 29.3242 2.04412 29.2918C2.04285 29.2601 2.04222 29.2284 2.04222 29.1967C2.04222 29.1643 2.04095 29.1313 2.04158 29.099C2.04158 29.0667 2.04285 29.0337 2.04412 29.0013C2.04539 28.9684 2.04602 28.9354 2.04792 28.9018C2.04982 28.8688 2.05235 28.8353 2.05489 28.8023C2.05742 28.7687 2.05996 28.7351 2.06312 28.7009C2.06629 28.6673 2.07009 28.6331 2.07452 28.5995C2.07833 28.5653 2.08276 28.5311 2.08719 28.4963C2.09163 28.462 2.09733 28.4272 2.10303 28.393C2.10873 28.3582 2.11443 28.3233 2.12013 28.2885C2.12647 28.2537 2.13344 28.2182 2.1404 28.1834C2.14737 28.1479 2.15434 28.1125 2.16258 28.077C2.17018 28.0416 2.17841 28.0055 2.18728 27.9694C2.19552 27.9333 2.20438 27.8979 2.21389 27.8618C2.22339 27.8257 2.23289 27.789 2.24303 27.7529C2.25316 27.7162 2.2633 27.6802 2.27406 27.6435C2.28483 27.6068 2.2956 27.5701 2.307 27.5327C2.31841 27.496 2.33044 27.4587 2.34248 27.4214C2.35451 27.3841 2.36718 27.3468 2.37985 27.3094C2.39252 27.2721 2.40582 27.2342 2.41976 27.1968C2.4337 27.1589 2.44763 27.121 2.46157 27.083C2.47614 27.0451 2.49071 27.0071 2.50591 26.9692C2.52111 26.9306 2.53632 26.8927 2.55215 26.8541C2.56799 26.8155 2.58446 26.777 2.60093 26.7384C2.6174 26.6998 2.6345 26.6607 2.65161 26.6221C2.66871 26.5835 2.68645 26.5443 2.70418 26.5051C2.72192 26.466 2.74029 26.4268 2.75929 26.387C2.77766 26.3478 2.7973 26.308 2.81631 26.2688C2.83594 26.229 2.85495 26.1892 2.87522 26.1493C2.89549 26.1095 2.91576 26.0691 2.93666 26.0293C2.95757 25.9895 2.97847 25.9491 3.00001 25.9086C3.02155 25.8682 3.04372 25.8278 3.06589 25.7873C3.08806 25.7469 3.11023 25.7065 3.13303 25.6654C3.15584 25.6244 3.17991 25.5833 3.20335 25.5429C3.22679 25.5018 3.25023 25.4614 3.27493 25.4203C3.29963 25.3787 3.32434 25.3376 3.34968 25.2959C3.37438 25.2549 3.39909 25.2138 3.42506 25.1721C3.45103 25.1305 3.47764 25.0882 3.50424 25.0465C3.53021 25.0048 3.55682 24.9638 3.58342 24.9221C3.61066 24.8798 3.63917 24.8375 3.66704 24.7946C3.69428 24.7529 3.72215 24.7112 3.75002 24.6695C3.77853 24.6266 3.8083 24.5837 3.83807 24.5408C3.86721 24.4985 3.89572 24.4568 3.92549 24.4145C3.9559 24.3716 3.98694 24.3281 4.01798 24.2845C4.04775 24.2422 4.07816 24.2005 4.10856 24.1582C4.14087 24.1141 4.17381 24.0699 4.20675 24.0258C4.23779 23.9841 4.26819 23.9418 4.29987 23.9001C4.33344 23.8553 4.36828 23.8099 4.40312 23.7651C4.43543 23.7234 4.46647 23.6818 4.49941 23.6395C4.53488 23.5934 4.57162 23.5474 4.60836 23.502C4.6413 23.4603 4.67361 23.4193 4.70718 23.3776C4.74519 23.3309 4.78383 23.2837 4.82247 23.2364C4.85604 23.1953 4.88898 23.1549 4.92319 23.1139C4.9631 23.0653 5.00491 23.0168 5.04545 22.9683C5.07902 22.9285 5.11259 22.8881 5.1468 22.8483C5.19051 22.7973 5.23549 22.7462 5.27983 22.6946C5.31277 22.6567 5.34507 22.6194 5.37865 22.5814C5.42869 22.5242 5.48063 22.467 5.53194 22.4097C5.56108 22.3774 5.58896 22.3457 5.61809 22.3133C5.62 22.3114 5.6219 22.3096 5.6238 22.3071C6.74819 23.3521 8.00434 24.3797 9.36437 25.3675C9.38401 25.5379 9.40428 25.7083 9.42582 25.8769C9.43532 25.9515 9.44609 26.0249 9.45559 26.099C9.47459 26.2433 9.4936 26.3876 9.5145 26.5307C9.52717 26.6177 9.54047 26.7042 9.55378 26.7907C9.57278 26.9194 9.59242 27.0482 9.61269 27.1757C9.62726 27.2671 9.64246 27.3573 9.65766 27.4481C9.67793 27.5701 9.69821 27.692 9.71974 27.8126C9.73621 27.9053 9.75332 27.9968 9.76979 28.0888C9.79132 28.2064 9.81349 28.324 9.83567 28.4409C9.8534 28.533 9.87177 28.625 9.89078 28.7164C9.91422 28.8315 9.93765 28.946 9.96172 29.0592C9.98136 29.1506 10.001 29.2414 10.0206 29.3316C10.0453 29.4442 10.0707 29.5562 10.0967 29.6681C10.1176 29.7577 10.1378 29.8467 10.1594 29.935C10.1708 29.9823 10.1815 30.0302 10.1929 30.0774C6.52457 30.8189 3.65564 30.618 2.06312 29.5077C2.06249 29.5002 2.06122 29.4921 2.06059 29.4847L2.05615 29.4815ZM2.46157 30.7866C2.39632 30.6758 2.33994 30.5608 2.2899 30.4419C3.318 30.9464 4.66094 31.2021 6.25726 31.2021C7.48553 31.2021 8.86331 31.0509 10.3602 30.7474C10.3659 30.7691 10.3722 30.7909 10.3779 30.8127C10.395 30.8767 10.4121 30.9408 10.4299 31.0049C10.44 31.0422 10.4508 31.0801 10.4609 31.1175C10.4774 31.1772 10.4945 31.2369 10.5116 31.296C10.5223 31.3333 10.5331 31.3706 10.5432 31.4073C10.5616 31.4702 10.58 31.5324 10.5984 31.5946C10.6079 31.6263 10.6174 31.6586 10.6269 31.6904C10.6535 31.7787 10.6801 31.8658 10.7073 31.9529C10.7092 31.9578 10.7105 31.9634 10.7124 31.9684C10.7415 32.0611 10.7707 32.1538 10.8004 32.2452C10.8087 32.2713 10.8175 32.2975 10.8258 32.3236C10.841 32.3709 10.8562 32.4181 10.872 32.4648C6.58855 33.2162 3.53465 32.6116 2.46157 30.7866ZM17.4885 39.3058C15.2771 39.3058 13.1563 36.8687 11.6695 32.6197C11.4098 31.8776 11.171 31.082 10.9607 30.2547C10.5553 28.6648 10.2474 26.9424 10.0447 25.1367C9.91992 24.0202 9.83503 22.8619 9.79386 21.6956C9.77422 21.1396 9.76408 20.5692 9.76408 20C9.76408 19.4308 9.77422 18.8604 9.79386 18.3044C9.83567 17.1374 9.91992 15.9798 10.0447 14.8633C10.0954 14.4117 10.1524 13.9657 10.2164 13.5253C10.2563 13.2498 10.2994 12.9779 10.3443 12.7074C10.5147 11.6804 10.72 10.6889 10.9607 9.74404C10.9924 9.61901 11.0253 9.49523 11.0582 9.37144C11.2438 8.67913 11.4485 8.01045 11.6695 7.37972C13.1563 3.13003 15.2771 0.692937 17.4885 0.692937C17.6177 0.692937 17.7476 0.701645 17.8768 0.71844C17.8413 0.741455 17.8065 0.765714 17.771 0.789973C17.7545 0.801169 17.7381 0.811744 17.7216 0.82294C17.6627 0.863994 17.6044 0.906292 17.5461 0.950456C17.5347 0.959164 17.5233 0.968494 17.5119 0.977203C17.465 1.01328 17.4188 1.04936 17.3719 1.0873C17.3517 1.10347 17.3314 1.12089 17.3111 1.13769C17.2737 1.16879 17.2357 1.20051 17.1984 1.23348C17.1762 1.25276 17.154 1.27267 17.1318 1.29257C17.0964 1.32429 17.0615 1.35602 17.0261 1.38898C17.0033 1.41013 16.9811 1.43128 16.9589 1.45243C16.9241 1.48602 16.8886 1.52023 16.8538 1.55506C16.8322 1.57684 16.8107 1.59798 16.7891 1.61976C16.7518 1.6577 16.715 1.69626 16.6783 1.73483C16.6593 1.75474 16.6403 1.77464 16.6219 1.79454C16.5744 1.84555 16.5275 1.8978 16.4807 1.9513C16.4731 1.96 16.4648 1.96871 16.4572 1.97742C16.4021 2.04025 16.3476 2.10431 16.2938 2.16963C16.2786 2.18829 16.2634 2.20757 16.2475 2.22623C16.2089 2.2735 16.1703 2.3214 16.1322 2.36992C16.1126 2.3948 16.093 2.42092 16.0733 2.44581C16.0391 2.48997 16.0056 2.53413 15.972 2.57954C15.9511 2.60753 15.9308 2.63552 15.9099 2.66352C15.8776 2.7083 15.8453 2.75309 15.813 2.79849C15.7927 2.82773 15.7718 2.85634 15.7515 2.88558C15.7186 2.93285 15.6863 2.98075 15.6534 3.02927C15.6344 3.05788 15.6153 3.08587 15.5957 3.11448C15.5596 3.16922 15.5235 3.22458 15.488 3.28057C15.4728 3.3042 15.4582 3.32659 15.443 3.35023C15.3924 3.43047 15.3423 3.51196 15.2923 3.59469C15.2872 3.6034 15.2815 3.61273 15.2764 3.62144C15.2321 3.69546 15.1884 3.7701 15.1447 3.84661C15.1282 3.87522 15.1124 3.90446 15.0959 3.93307C15.0636 3.9903 15.0313 4.04814 14.999 4.10724C14.9806 4.14083 14.9622 4.17504 14.9439 4.20925C14.9141 4.26461 14.8843 4.32059 14.8546 4.37657C14.8356 4.41265 14.8172 4.44873 14.7982 4.48481C14.769 4.54141 14.7399 4.59864 14.7114 4.65649C14.693 4.69256 14.6753 4.72864 14.6569 4.76534C14.6271 4.8263 14.5974 4.88788 14.5676 4.95008C14.5511 4.98429 14.5353 5.01788 14.5188 5.05209C14.4834 5.12736 14.4485 5.20387 14.4137 5.28038C14.4035 5.30215 14.394 5.3233 14.3839 5.34507C14.3396 5.44397 14.2952 5.54412 14.2515 5.64551C14.2401 5.67288 14.2287 5.70025 14.2167 5.72761C14.185 5.80226 14.1533 5.87752 14.1216 5.95403C14.1058 5.9926 14.09 6.03116 14.0748 6.06973C14.0482 6.13629 14.0209 6.20284 13.995 6.27002C13.9785 6.31232 13.9614 6.35524 13.9449 6.39816C13.9196 6.46347 13.8949 6.52878 13.8695 6.59472C13.8531 6.63888 13.8366 6.68305 13.8201 6.72783C13.7954 6.79501 13.7707 6.86281 13.746 6.93061C13.7302 6.97415 13.7143 7.01832 13.6985 7.06248C13.6725 7.13588 13.6466 7.21053 13.6212 7.28517C13.6079 7.32436 13.594 7.36292 13.5807 7.40273C13.5781 7.41082 13.575 7.4189 13.5724 7.42699H13.5705L13.4679 7.74422C13.4679 7.74547 13.4673 7.74671 13.4667 7.74733L13.3564 8.08758H13.359C13.1816 8.66047 13.0169 9.25761 12.8668 9.87031H12.8649L12.78 10.2323C12.78 10.2323 12.78 10.2329 12.78 10.2336L12.7071 10.5477H12.7084C12.5551 11.2338 12.4189 11.9435 12.3005 12.6644H12.2998L12.2751 12.8187C12.2751 12.8193 12.2751 12.82 12.2751 12.8212C12.2529 12.9593 12.2314 13.098 12.2105 13.238C12.1066 13.9352 12.0186 14.6468 11.9476 15.3659C11.9248 15.5985 11.9039 15.8318 11.8849 16.0657H11.8843L11.871 16.2311C11.7728 17.4596 11.7234 18.7273 11.7234 19.9981C11.7234 20.1568 11.724 20.316 11.7259 20.4746C11.7278 20.6413 11.7303 20.808 11.7335 20.9747C11.7525 21.9165 11.7981 22.852 11.871 23.7651C11.871 23.7676 11.871 23.7707 11.8716 23.7732L11.8843 23.9306C11.9628 24.8873 12.0718 25.8358 12.2099 26.7583C12.2308 26.8976 12.2523 27.0364 12.2745 27.1751C12.2745 27.1782 12.2758 27.1813 12.2758 27.185L12.2992 27.3318H12.2998C12.3093 27.3903 12.3188 27.4488 12.3283 27.5072C12.4398 28.1684 12.5665 28.8191 12.7071 29.4486H12.7059L12.7787 29.7627C12.7787 29.7627 12.7787 29.7633 12.7787 29.7639L12.8636 30.1266H12.8655C13.015 30.7368 13.1797 31.3333 13.3577 31.9087H13.3552L13.4654 32.2496L13.5693 32.5705H13.5712C13.5743 32.5786 13.5769 32.5867 13.58 32.5954C13.5927 32.6327 13.606 32.67 13.6187 32.7074C13.6447 32.7839 13.6713 32.8598 13.6979 32.935C13.7131 32.9786 13.7289 33.0215 13.7441 33.0644C13.7688 33.1328 13.7935 33.2013 13.8189 33.2691C13.8353 33.3132 13.8518 33.3574 13.8683 33.4009C13.893 33.4675 13.9183 33.5328 13.9436 33.5981C13.9601 33.641 13.9766 33.6833 13.9937 33.7256C14.0203 33.7928 14.0469 33.8594 14.0735 33.9253C14.0893 33.9645 14.1052 34.0031 14.121 34.0416C14.1527 34.1175 14.1844 34.1928 14.216 34.268C14.2274 34.2954 14.2388 34.3228 14.2509 34.3495C14.2946 34.4509 14.3383 34.5511 14.3833 34.65C14.3934 34.6717 14.4029 34.6935 14.413 34.7153C14.4479 34.7918 14.4827 34.8683 14.5182 34.9436C14.534 34.9778 14.5505 35.0114 14.5663 35.0449C14.5961 35.1071 14.6259 35.1693 14.6557 35.2303C14.6734 35.267 14.6918 35.3025 14.7095 35.3385C14.7386 35.3964 14.7678 35.4542 14.7969 35.5108C14.8153 35.5469 14.8337 35.5824 14.852 35.6178C14.8818 35.6751 14.9122 35.7317 14.942 35.7876C14.9597 35.8212 14.9781 35.8542 14.9958 35.8872C15.0288 35.9469 15.0617 36.006 15.0946 36.0651C15.1105 36.0924 15.1257 36.1204 15.1415 36.1478C15.1871 36.2274 15.2327 36.3058 15.279 36.3829C15.2821 36.3885 15.2853 36.3941 15.2891 36.3997C15.3392 36.4831 15.3898 36.5652 15.4405 36.646C15.4544 36.6678 15.4678 36.689 15.4817 36.7101C15.5184 36.768 15.5558 36.8258 15.5932 36.8824C15.6109 36.9098 15.6293 36.9365 15.6477 36.9633C15.6812 37.013 15.7148 37.0628 15.749 37.1119C15.7686 37.1399 15.7876 37.1679 15.8073 37.1953C15.8409 37.2426 15.8744 37.2892 15.908 37.3352C15.9276 37.362 15.9473 37.3887 15.9669 37.4155C16.0018 37.4621 16.0366 37.5082 16.0721 37.5536C16.0904 37.5772 16.1088 37.6015 16.1272 37.6251C16.1671 37.6761 16.2076 37.7265 16.2482 37.7763C16.2615 37.7931 16.2748 37.8098 16.2887 37.826C16.3432 37.892 16.3983 37.9573 16.454 38.0207C16.4591 38.0269 16.4648 38.0325 16.4699 38.0381C16.5193 38.0947 16.5693 38.1495 16.6194 38.2036C16.6365 38.2223 16.6542 38.2403 16.672 38.2589C16.71 38.2994 16.7486 38.3398 16.7872 38.379C16.8075 38.4002 16.8284 38.4201 16.8487 38.4406C16.8848 38.4767 16.9209 38.5121 16.957 38.5463C16.9785 38.5669 17.0001 38.5874 17.0216 38.6073C17.0577 38.6409 17.0938 38.6738 17.1306 38.7068C17.1521 38.7261 17.173 38.7448 17.1946 38.7634C17.2332 38.797 17.2718 38.83 17.3105 38.8617C17.3295 38.8779 17.3485 38.894 17.3681 38.9096C17.4163 38.9488 17.465 38.9867 17.5138 39.024C17.5233 39.0315 17.5328 39.039 17.5423 39.0464C17.6006 39.0906 17.6595 39.1335 17.7191 39.1746C17.7349 39.1858 17.7507 39.1957 17.7666 39.2063C17.802 39.2306 17.8375 39.2554 17.8736 39.2785C17.7444 39.2952 17.6145 39.3033 17.4853 39.3033L17.4885 39.3058ZM19.6112 38.5438C19.584 38.5637 19.5574 38.583 19.5301 38.6023C19.501 38.6228 19.4712 38.6421 19.4421 38.662C19.4148 38.6801 19.3876 38.6987 19.3604 38.7161C19.3312 38.7348 19.3014 38.7528 19.2717 38.7709C19.2444 38.7877 19.2166 38.8045 19.1893 38.82C19.1596 38.8368 19.1298 38.853 19.1 38.8692C19.0721 38.8841 19.0443 38.8996 19.017 38.9139C18.9872 38.9295 18.9575 38.9438 18.9277 38.9581C18.8998 38.9718 18.872 38.9855 18.8441 38.9979C18.8371 39.001 18.8302 39.0041 18.8232 39.0072C18.8156 39.0041 18.8086 39.001 18.801 38.9973C18.7763 38.9861 18.7516 38.9737 18.7269 38.9618C18.6946 38.9463 18.6623 38.9307 18.63 38.9139C18.6046 38.9009 18.5799 38.8872 18.5546 38.8735C18.5229 38.8561 18.4913 38.8393 18.4602 38.8213C18.4349 38.807 18.4095 38.7914 18.3842 38.7765C18.3532 38.7578 18.3221 38.7392 18.2911 38.7192C18.2657 38.7031 18.2404 38.6863 18.2151 38.6701C18.1847 38.6496 18.1536 38.6291 18.1232 38.6079C18.0979 38.5905 18.0725 38.5725 18.0478 38.5544C18.0174 38.5326 17.987 38.5102 17.9572 38.4872C17.9319 38.4679 17.9066 38.4487 17.8819 38.4294C17.8521 38.4057 17.8223 38.3821 17.7925 38.3572C17.7672 38.3367 17.7425 38.3162 17.7178 38.295C17.688 38.2701 17.6583 38.244 17.6291 38.2179C17.6044 38.1961 17.5797 38.1744 17.555 38.152C17.5252 38.1252 17.4961 38.0972 17.4663 38.0699C17.4416 38.0468 17.4175 38.0238 17.3928 38.0002C17.3631 37.9716 17.3339 37.9417 17.3048 37.9119C17.2807 37.8876 17.2566 37.864 17.2332 37.8391C17.2034 37.808 17.1737 37.7763 17.1439 37.7445C17.1204 37.7197 17.0976 37.6948 17.0742 37.6693C17.0438 37.6357 17.0134 37.6008 16.983 37.566C16.9608 37.5411 16.9386 37.5163 16.9171 37.4907C16.8848 37.4528 16.8525 37.4136 16.8202 37.3744C16.8005 37.3508 16.7809 37.3278 16.7619 37.3035C16.7201 37.2513 16.6783 37.1978 16.6371 37.1443C16.6276 37.1318 16.6181 37.12 16.6086 37.1076C16.5579 37.0416 16.5079 36.9738 16.4585 36.9048C16.4401 36.8793 16.4211 36.8519 16.4027 36.8258C16.3711 36.7816 16.34 36.7375 16.3084 36.6921C16.2868 36.661 16.2659 36.6292 16.245 36.5975C16.2165 36.5558 16.1886 36.5142 16.1608 36.4712C16.1386 36.4377 16.1164 36.4028 16.0949 36.368C16.0683 36.3263 16.0417 36.2846 16.0151 36.2417C15.9929 36.2056 15.9707 36.1689 15.9479 36.1322C15.9219 36.0899 15.896 36.0476 15.8706 36.0041C15.8485 35.9662 15.8263 35.9282 15.8041 35.8897C15.7788 35.8461 15.7534 35.8026 15.7287 35.7584C15.7066 35.7192 15.6844 35.6794 15.6629 35.6396C15.6382 35.5948 15.6134 35.55 15.5887 35.5046C15.5666 35.4636 15.545 35.4225 15.5229 35.3815C15.4988 35.3354 15.4747 35.2894 15.4506 35.2434C15.4291 35.2011 15.4076 35.1588 15.386 35.1159C15.362 35.0686 15.3385 35.0213 15.3151 34.9734C15.2935 34.9299 15.2726 34.8869 15.2511 34.8428C15.2277 34.7943 15.2042 34.7451 15.1808 34.6954C15.1599 34.6512 15.139 34.6064 15.1181 34.5616C15.0946 34.5112 15.0718 34.4602 15.049 34.4092C15.0288 34.3638 15.0085 34.319 14.9882 34.273C14.9654 34.2208 14.9426 34.1679 14.9198 34.115C14.9002 34.069 14.8805 34.0236 14.8609 33.9769C14.8381 33.9228 14.8153 33.8674 14.7925 33.8127C14.7735 33.7667 14.7545 33.7206 14.7355 33.6734C14.7127 33.6168 14.6899 33.5589 14.6671 33.5011C14.6487 33.455 14.6303 33.409 14.6126 33.3624C14.5891 33.302 14.5663 33.2411 14.5435 33.1801C14.5264 33.1347 14.5093 33.0893 14.4922 33.0439C14.4682 32.9786 14.4441 32.912 14.4206 32.8461C14.4054 32.8032 14.3896 32.7609 14.3744 32.7179C14.3472 32.6402 14.3199 32.5612 14.2927 32.4822C14.2813 32.4499 14.2699 32.4181 14.2591 32.3852C14.2585 32.3833 14.2578 32.3814 14.2572 32.3796C14.2673 32.3764 14.2781 32.3733 14.2882 32.3702C14.4688 32.3174 14.6493 32.2632 14.8311 32.2066C14.8318 32.2066 14.8324 32.2066 14.833 32.206C15.0142 32.15 15.1954 32.0916 15.3778 32.0318C15.3949 32.0263 15.4114 32.0207 15.4285 32.0151C15.602 31.9578 15.7762 31.8994 15.9504 31.839C15.9758 31.8303 16.0011 31.8216 16.0271 31.8129C16.1975 31.7538 16.3679 31.6935 16.5389 31.6313C16.5681 31.6207 16.5966 31.6101 16.6257 31.5995C16.7961 31.5373 16.9665 31.4739 17.1375 31.4092C17.1661 31.398 17.1952 31.3874 17.2243 31.3762C17.3966 31.3103 17.5696 31.2431 17.7431 31.1741C17.7685 31.1641 17.7932 31.1542 17.8185 31.1442C17.9965 31.0733 18.1752 31.0012 18.3538 30.9271C18.3703 30.9203 18.3874 30.9128 18.4038 30.906C18.5445 30.8475 18.6851 30.7884 18.8257 30.7281C20.3777 31.3924 21.9119 31.9466 23.3936 32.3789C23.393 32.3814 23.3917 32.3845 23.3911 32.387C23.379 32.4219 23.367 32.4561 23.3549 32.4903C23.3277 32.5687 23.3011 32.6477 23.2739 32.7248C23.2587 32.7677 23.2428 32.8094 23.2276 32.8523C23.2029 32.9201 23.1788 32.9885 23.1541 33.0557C23.137 33.1011 23.1199 33.1453 23.1035 33.1907C23.0794 33.2535 23.056 33.317 23.0319 33.3792C23.0141 33.4252 22.9958 33.4706 22.978 33.516C22.9546 33.5757 22.9312 33.6361 22.9071 33.6945C22.8887 33.7406 22.8697 33.7853 22.8507 33.8307C22.8273 33.888 22.8032 33.9458 22.7791 34.0024C22.7601 34.0478 22.7405 34.092 22.7209 34.1368C22.6968 34.1921 22.6727 34.2481 22.6486 34.3022C22.629 34.3464 22.6087 34.3906 22.5891 34.4341C22.565 34.4876 22.541 34.5417 22.5163 34.5946C22.496 34.6381 22.4757 34.6811 22.4548 34.724C22.4301 34.7756 22.406 34.8272 22.3813 34.8782C22.3604 34.9212 22.3395 34.9635 22.3186 35.0058C22.2939 35.0555 22.2692 35.1053 22.2445 35.1544C22.223 35.1967 22.2014 35.2378 22.1799 35.2794C22.1552 35.3273 22.1298 35.3752 22.1051 35.4225C22.083 35.4636 22.0614 35.504 22.0393 35.5444C22.0139 35.5905 21.9886 35.6371 21.9632 35.6825C21.9411 35.7223 21.9189 35.7615 21.8961 35.8007C21.8708 35.8455 21.8448 35.8903 21.8194 35.9344C21.7966 35.973 21.7738 36.0109 21.751 36.0489C21.7251 36.0918 21.6997 36.1354 21.6737 36.1777C21.6509 36.215 21.6275 36.2523 21.6041 36.289C21.5781 36.3307 21.5521 36.3717 21.5255 36.4128C21.5021 36.4489 21.4786 36.4849 21.4552 36.5204C21.4286 36.5602 21.4026 36.6 21.376 36.6392C21.352 36.674 21.3285 36.7089 21.3044 36.7431C21.2778 36.7816 21.2512 36.8196 21.2246 36.8569C21.2006 36.8905 21.1765 36.9241 21.1518 36.9571C21.1252 36.9938 21.0979 37.0298 21.0707 37.0659C21.046 37.0983 21.0213 37.1306 20.9972 37.1623C20.97 37.1972 20.9427 37.232 20.9155 37.2662C20.8908 37.2973 20.8661 37.3278 20.8407 37.3583C20.8135 37.3918 20.7856 37.4248 20.7584 37.4578C20.7331 37.4876 20.7084 37.5169 20.683 37.5461C20.6551 37.5778 20.6279 37.6096 20.6 37.6407C20.5747 37.6693 20.5494 37.6973 20.5234 37.7246C20.4955 37.7551 20.4676 37.7843 20.4398 37.8142C20.4138 37.8409 20.3885 37.8677 20.3625 37.8944C20.3346 37.9231 20.3061 37.951 20.2776 37.979C20.2516 38.0045 20.2257 38.03 20.1997 38.0549C20.1712 38.0817 20.1427 38.1084 20.1142 38.1345C20.0876 38.1588 20.0616 38.1824 20.035 38.2061C20.0065 38.2316 19.978 38.2558 19.9488 38.2807C19.9222 38.3037 19.8956 38.3261 19.869 38.3479C19.8405 38.3715 19.8114 38.3946 19.7822 38.4176C19.7556 38.4387 19.7284 38.4599 19.7018 38.4804C19.6727 38.5022 19.6435 38.5239 19.6144 38.5451L19.6112 38.5438ZM26.6033 30.5632C26.566 30.7051 26.5267 30.845 26.488 30.9844C26.329 31.5504 26.1574 32.0984 25.9756 32.6197L25.9743 32.6228C24.4876 36.87 22.3674 39.3052 20.1566 39.3052C20.0274 39.3052 19.8982 39.2965 19.7683 39.2803C19.8038 39.2573 19.8386 39.233 19.8741 39.2088C19.8906 39.1976 19.907 39.187 19.9229 39.1758C19.9818 39.1348 20.0401 39.0918 20.099 39.0483C20.1097 39.0402 20.1205 39.0315 20.1313 39.0234C20.1788 38.9867 20.2263 38.95 20.2738 38.9115C20.2934 38.8953 20.3131 38.8785 20.3327 38.8623C20.3707 38.8306 20.4094 38.7982 20.4474 38.7647C20.4689 38.746 20.4904 38.7267 20.512 38.7074C20.5481 38.6751 20.5842 38.6421 20.6203 38.6085C20.6418 38.588 20.664 38.5675 20.6856 38.5469C20.7217 38.5127 20.7578 38.4773 20.7932 38.4418C20.8141 38.4213 20.8344 38.4008 20.8553 38.3796C20.894 38.3404 20.932 38.3006 20.97 38.2596C20.9877 38.2409 21.0048 38.2229 21.0226 38.2042C21.0732 38.1501 21.1233 38.0941 21.1733 38.0375C21.1784 38.0319 21.1835 38.0269 21.1879 38.0213C21.2436 37.9579 21.2987 37.8932 21.3532 37.8266C21.3665 37.8105 21.3798 37.7937 21.3938 37.7769C21.4343 37.7271 21.4748 37.6767 21.5154 37.6251C21.5338 37.6021 21.5515 37.5778 21.5699 37.5542C21.6053 37.5082 21.6408 37.4621 21.6756 37.4149C21.6953 37.3887 21.7143 37.362 21.7339 37.3359C21.7675 37.2892 21.8017 37.2426 21.8353 37.1953C21.8543 37.1679 21.8739 37.1405 21.8929 37.1132C21.9271 37.0634 21.9613 37.0137 21.9955 36.9626C22.0133 36.9365 22.031 36.9104 22.0488 36.8837C22.0868 36.8258 22.1248 36.7673 22.1621 36.7082C22.1754 36.6877 22.1881 36.6678 22.2014 36.6473C22.2527 36.5658 22.3034 36.4837 22.3535 36.3997C22.3554 36.396 22.3579 36.3923 22.3598 36.3891C22.4073 36.3101 22.4542 36.2293 22.501 36.1478C22.5156 36.1217 22.5308 36.0955 22.5454 36.0688C22.5796 36.0085 22.6132 35.9481 22.6467 35.8865C22.6638 35.8548 22.6816 35.8225 22.6987 35.7908C22.7297 35.7335 22.7608 35.6757 22.7912 35.6172C22.8089 35.583 22.8266 35.5488 22.8444 35.514C22.8742 35.4555 22.9046 35.3964 22.9337 35.3373C22.9508 35.3025 22.9685 35.2682 22.9856 35.2328C23.0167 35.17 23.0471 35.1059 23.0775 35.0425C23.0927 35.0101 23.1085 34.9784 23.1237 34.946C23.1605 34.8677 23.1972 34.788 23.2333 34.7084C23.2416 34.6898 23.2504 34.6717 23.2587 34.6524C23.3036 34.5529 23.348 34.4521 23.3917 34.3501C23.4025 34.3259 23.4126 34.301 23.4227 34.2761C23.4557 34.1984 23.4886 34.1206 23.5209 34.0422C23.5361 34.0049 23.5513 33.9676 23.5665 33.9296C23.5938 33.8618 23.621 33.794 23.6482 33.7256C23.6647 33.6839 23.6805 33.6423 23.697 33.6006C23.723 33.534 23.7483 33.4675 23.7737 33.4003C23.7901 33.3574 23.806 33.3138 23.8218 33.2709C23.8471 33.2025 23.8725 33.1328 23.8972 33.0632C23.9124 33.0209 23.9276 32.9792 23.9428 32.9369C23.97 32.861 23.996 32.7839 24.0226 32.7067C24.0353 32.67 24.048 32.634 24.0606 32.5973C24.0638 32.5886 24.0663 32.5805 24.0695 32.5718H24.0714L24.1753 32.2514C24.3932 31.5771 24.5946 30.8643 24.7752 30.1278H24.7771L24.8619 29.7652C24.8854 29.6644 24.9088 29.563 24.9316 29.461C24.9392 29.4262 24.9468 29.3907 24.9544 29.3559C24.969 29.2887 24.9842 29.2215 24.9988 29.1537C25.0076 29.1114 25.0165 29.0685 25.0254 29.0262C25.038 28.9653 25.0507 28.9049 25.0634 28.8433C25.0729 28.7973 25.0818 28.7513 25.0913 28.7046C25.1027 28.6468 25.1147 28.5883 25.1261 28.5305C25.1356 28.4826 25.1451 28.434 25.154 28.3855C25.1647 28.3289 25.1761 28.2717 25.1863 28.2145C25.1958 28.1653 25.2046 28.1156 25.2135 28.0664C25.2237 28.0098 25.2344 27.9532 25.2446 27.896C25.2534 27.8462 25.2623 27.7959 25.2712 27.7461C25.2813 27.6889 25.2908 27.6323 25.3009 27.575C25.3092 27.5253 25.3174 27.4761 25.3263 27.4264C25.3313 27.3953 25.337 27.3648 25.3421 27.3337C25.3687 27.3169 25.3953 27.3001 25.4219 27.2833C25.555 27.2006 25.6873 27.1178 25.8191 27.0345C25.8539 27.0127 25.8888 26.9909 25.923 26.9686C26.0833 26.8665 26.2429 26.7633 26.4013 26.6594C26.438 26.6358 26.4741 26.6115 26.5102 26.5879C26.6426 26.5008 26.7744 26.4131 26.9049 26.3254C26.941 26.3011 26.9771 26.2769 27.0132 26.2526C27.1715 26.1456 27.328 26.0386 27.4838 25.9304C27.4902 25.926 27.4965 25.9217 27.5028 25.9173C27.4813 26.0809 27.4598 26.2439 27.4363 26.4056C27.4325 26.4305 27.4294 26.4554 27.4262 26.4803C27.3964 26.6849 27.3654 26.8877 27.3331 27.0899C27.3223 27.1552 27.3115 27.2199 27.3008 27.2845C27.278 27.422 27.2552 27.5595 27.2311 27.6957C27.2178 27.7722 27.2038 27.8475 27.1899 27.9234C27.1671 28.0478 27.1437 28.1722 27.1202 28.296C27.105 28.3737 27.0898 28.4515 27.0746 28.5292C27.0499 28.6518 27.0252 28.7737 26.9992 28.8943C26.9834 28.969 26.9682 29.043 26.9517 29.117C26.9232 29.247 26.8941 29.3758 26.8643 29.5046C26.8497 29.5668 26.8358 29.6302 26.8212 29.6918C26.7763 29.8809 26.7307 30.0687 26.6838 30.2547C26.6572 30.358 26.6306 30.4612 26.6033 30.5632ZM35.1829 30.7866C34.1105 32.6116 31.0565 33.2168 26.7725 32.4648C26.7775 32.4486 26.7826 32.4324 26.7883 32.4163C26.8364 32.2701 26.8846 32.1227 26.9308 31.9728C26.9308 31.9721 26.9308 31.9709 26.9315 31.9703C26.9783 31.8197 27.0239 31.6673 27.0689 31.5143C27.0772 31.4863 27.0854 31.459 27.0936 31.431C27.1367 31.2829 27.1791 31.133 27.2203 30.9825C27.2279 30.9539 27.2362 30.9253 27.2438 30.8967C27.2571 30.8469 27.271 30.7971 27.2843 30.7467C28.7818 31.0503 30.1589 31.2014 31.3878 31.2014C32.9842 31.2014 34.3271 30.9458 35.3552 30.4413C35.3052 30.5601 35.2481 30.6758 35.1835 30.7859L35.1829 30.7866ZM35.5858 29.5033C33.9933 30.6143 31.1243 30.8152 27.4553 30.0737C27.4661 30.0295 27.4762 29.9848 27.4864 29.9406C27.4965 29.8989 27.5066 29.8579 27.5168 29.8162C27.5275 29.7695 27.5377 29.7223 27.5484 29.675C27.5732 29.5686 27.5972 29.4623 27.6207 29.3553C27.6321 29.303 27.6441 29.2514 27.6555 29.1991C27.6644 29.1575 27.6732 29.1145 27.6821 29.0722C27.7043 28.9684 27.7258 28.8639 27.7467 28.7594C27.7594 28.6965 27.7727 28.6337 27.7854 28.5703C27.7923 28.5342 27.7993 28.4975 27.8063 28.4614C27.8265 28.3588 27.8455 28.2549 27.8645 28.1516C27.8785 28.0783 27.8924 28.0055 27.9057 27.9315C27.9108 27.9016 27.9165 27.8717 27.9216 27.8419C27.9399 27.7386 27.957 27.6347 27.9748 27.5309C27.9887 27.4481 28.0033 27.366 28.0166 27.2827C28.0204 27.2597 28.0242 27.2373 28.028 27.2143C28.0451 27.1079 28.0609 27.0009 28.0774 26.8939C28.0907 26.8075 28.104 26.7216 28.1167 26.6352C28.1192 26.6165 28.1224 26.5985 28.1249 26.5798C28.13 26.5431 28.135 26.5064 28.1401 26.4697C28.1515 26.3876 28.1629 26.3055 28.1737 26.2234C28.1838 26.1493 28.1946 26.0766 28.2041 26.0026C28.2072 25.9802 28.2098 25.9578 28.2129 25.9354C28.2231 25.8589 28.232 25.7811 28.2415 25.7046C28.2554 25.5908 28.27 25.4776 28.2833 25.3631C28.308 25.3451 28.3327 25.327 28.3574 25.309C28.4055 25.2735 28.4537 25.2387 28.5018 25.2032C28.5468 25.1703 28.5918 25.1367 28.6367 25.1037C28.6804 25.0714 28.7241 25.039 28.7672 25.0067C28.7786 24.9986 28.79 24.9899 28.8008 24.9818C28.8382 24.9538 28.8755 24.9258 28.9123 24.8978C28.9566 24.8642 29.0016 24.8307 29.0459 24.7971C29.0928 24.7616 29.1391 24.7262 29.1853 24.6907C29.2163 24.6671 29.248 24.6428 29.2791 24.6192C29.2841 24.6154 29.2892 24.6111 29.2943 24.6073C29.3006 24.6024 29.3076 24.5974 29.3139 24.5918C29.3614 24.5551 29.4083 24.5184 29.4558 24.4817C29.497 24.4494 29.5381 24.4176 29.5793 24.3853C29.6275 24.348 29.675 24.31 29.7225 24.2727C29.7269 24.269 29.732 24.2652 29.7364 24.2615C29.751 24.2497 29.7662 24.2379 29.7808 24.226C29.801 24.2099 29.8213 24.1937 29.8416 24.1775C29.8897 24.139 29.9379 24.1004 29.9854 24.0625C30.024 24.0314 30.0626 24.0002 30.1007 23.9691C30.1374 23.9393 30.1741 23.9088 30.2115 23.879C30.2305 23.8634 30.2495 23.8479 30.2692 23.8323C30.2989 23.808 30.3281 23.7838 30.3572 23.7601C30.406 23.7197 30.4541 23.6799 30.5029 23.6395C30.539 23.6096 30.5751 23.5798 30.6106 23.5499C30.6353 23.5294 30.6594 23.5088 30.6841 23.4883C30.7018 23.4734 30.7189 23.4591 30.736 23.4442C30.743 23.4386 30.7493 23.433 30.7557 23.4274C30.7905 23.3975 30.8253 23.3683 30.8602 23.3384C30.9089 23.2967 30.9571 23.2557 31.0052 23.214C31.0394 23.1848 31.0736 23.1555 31.1072 23.1263C31.1205 23.1151 31.1332 23.1039 31.1465 23.0921C31.156 23.0834 31.1661 23.0753 31.1756 23.0666C31.2022 23.0436 31.2282 23.0206 31.2548 22.9975C31.2865 22.9696 31.3188 22.9416 31.3498 22.9142C31.4005 22.8694 31.4499 22.8252 31.5 22.7805C31.5297 22.7537 31.5601 22.727 31.5893 22.7002C31.5893 22.7002 31.5906 22.6996 31.5906 22.699C31.5918 22.6977 31.5937 22.6959 31.5956 22.6946C31.645 22.6498 31.6944 22.605 31.7432 22.5609C31.7705 22.536 31.7983 22.5111 31.8249 22.4862C31.8807 22.4352 31.9352 22.3848 31.9903 22.3338L31.9966 22.3282C32.0048 22.3202 32.0137 22.3127 32.0226 22.3046C34.5114 25.0546 35.7682 27.5943 35.5845 29.5039L35.5858 29.5033ZM36.5163 28.5186C36.4517 28.6287 36.3782 28.7345 36.299 28.8359C36.1755 26.8435 34.8687 24.3996 32.5319 21.8219C32.549 21.8057 32.5654 21.7889 32.5825 21.7728C32.6294 21.7267 32.6769 21.6813 32.7232 21.6353C32.7517 21.6073 32.7802 21.5793 32.8087 21.5507C32.8524 21.5078 32.8955 21.4642 32.9385 21.4207C32.9671 21.3921 32.9949 21.3641 33.0228 21.3355C33.0671 21.2901 33.1115 21.2453 33.1558 21.1999C33.1812 21.1738 33.2065 21.1483 33.2312 21.1221C33.2882 21.063 33.3452 21.004 33.4016 20.9449C33.4124 20.933 33.4238 20.9218 33.4352 20.91C33.5011 20.841 33.5657 20.7713 33.6303 20.7023C33.6544 20.6761 33.6784 20.65 33.7025 20.6245C33.7323 20.5922 33.7627 20.5598 33.7925 20.5275C36.5968 23.7937 37.59 26.6936 36.5176 28.5186H36.5163Z" fill="url(#paint0_linear_563_10)"/>
<path d="M54.681 21.375H50.075L56.2085 13.5965V13.338L50.075 5.63H54.681L59.099 11.2465H59.3575L63.611 5.63H68.217L62.107 13.4085V13.667L68.217 21.375H63.611L59.2165 15.688H58.958L54.681 21.375ZM73.0279 21.375H69.5029V5.63H77.7279C81.3704 5.63 83.7204 7.698 83.7204 11.317C83.7204 14.936 81.3704 17.0275 77.7279 17.0275H73.0279V21.375ZM77.3519 8.8025H73.0279V13.855H77.3519C79.3024 13.855 80.2189 13.291 80.2189 11.317C80.2189 9.39 79.3024 8.8025 77.3519 8.8025ZM88.9657 21.375H85.4407V5.63H94.1357C98.0132 5.63 100.222 7.3455 100.222 10.3535C100.222 12.915 98.7417 14.4425 95.7807 14.7245V14.9125C97.1907 15.2885 97.7312 16.0405 98.3187 17.145L100.598 21.375H96.5092L94.3472 17.286C93.7127 16.064 93.1252 15.6645 91.2922 15.6645H88.9657V21.375ZM88.9657 8.8025V13.009H94.1122C95.7807 13.009 96.5327 12.539 96.5327 10.894C96.5327 9.343 95.7807 8.8025 94.1122 8.8025H88.9657Z" fill="black"/>
<path d="M109.645 21.375H107.107V5.63H109.833L116.883 14.842L118.927 17.7795H119.115L118.998 14.936V5.63H121.536V21.375H118.81L111.713 12.1865L109.739 9.4135H109.551L109.645 12.1395V21.375ZM129.993 21.61C126.162 21.61 123.648 19.448 123.648 15.547C123.648 11.9045 126.139 9.4605 129.946 9.4605C133.565 9.4605 136.032 11.458 136.032 15.0065C136.032 15.4295 136.009 15.7585 135.938 16.111H126.021C126.115 18.367 127.22 19.5655 129.922 19.5655C132.366 19.5655 133.377 18.7665 133.377 17.38V17.192H135.915V17.4035C135.915 19.8945 133.471 21.61 129.993 21.61ZM129.899 11.458C127.314 11.458 126.186 12.6095 126.045 14.701H133.635V14.654C133.635 12.492 132.39 11.458 129.899 11.458ZM145.829 21.375H143.15C140.636 21.375 139.085 20.2705 139.085 17.427V11.8105H137.111V9.6955H139.085V7.134H141.599V9.6955H145.829V11.8105H141.599V17.286C141.599 18.7195 142.257 19.0955 143.714 19.0955H145.829V21.375ZM153.245 21.375H150.096L146.594 9.6955H149.226L151.177 16.3225L151.717 19.3305H151.905L152.775 16.0875L155.219 9.6955H158.462L160.929 16.0875L161.799 19.3305H161.987L162.527 16.3225L164.478 9.6955H167.063L163.514 21.375H160.365L157.804 14.654L156.911 11.787H156.723L155.83 14.654L153.245 21.375ZM174.556 21.61C170.678 21.61 168.07 19.1425 168.07 15.547C168.07 11.9045 170.678 9.4605 174.556 9.4605C178.457 9.4605 181.065 11.9045 181.065 15.547C181.065 19.1425 178.457 21.61 174.556 21.61ZM174.556 19.354C177.399 19.354 178.574 18.0145 178.574 15.547C178.574 13.056 177.399 11.693 174.556 11.693C171.736 11.693 170.561 13.056 170.561 15.547C170.561 18.0145 171.736 19.354 174.556 19.354ZM185.68 21.375H183.142V9.6955H185.469V12.8445H185.633C185.986 10.9645 187.255 9.4605 189.652 9.4605C192.307 9.4605 193.459 11.364 193.459 13.573V15.1005H190.944V14.0665C190.944 12.398 190.239 11.6225 188.5 11.6225C186.503 11.6225 185.68 12.727 185.68 14.8185V21.375ZM197.826 21.375H195.288V5.63H197.826V14.325H201.163L204.664 9.6955H207.625L203.231 15.312L207.602 21.375H204.617L201.163 16.6045H197.826V21.375Z" fill="black"/>
<path d="M51.5394 34.625H50.4054V27.59H51.6234L54.7734 31.706L55.6869 33.0185H55.7709L55.7184 31.748V27.59H56.8524V34.625H55.6344L52.4634 30.5195L51.5814 29.2805H51.4974L51.5394 30.4985V34.625ZM59.455 34.625H58.321V27.59H63.9175V28.6085H59.455V30.7925H63.76V31.8005H59.455V34.625ZM68.6769 34.625H67.5534V28.6085H64.7814V27.59H71.4384V28.6085H68.6769V34.625ZM75.8703 34.625H74.7363V27.59H76.2798L78.3063 31.664L78.9468 33.1235H79.0308L79.6503 31.664L81.6558 27.59H83.1993V34.625H82.0653V30.3095L82.1073 29.291H82.0233L81.5928 30.3095L79.6503 34.205H78.2853L76.3428 30.3095L75.9123 29.291H75.8283L75.8703 30.3095V34.625ZM85.4069 34.625H84.1469L87.2864 27.59H88.8824L92.0219 34.625H90.7409L89.9324 32.798H86.2154L85.4069 34.625ZM87.6224 29.6375L86.6669 31.7795H89.4809L88.5254 29.6375L88.1159 28.64H88.0319L87.6224 29.6375ZM94.1009 34.625H92.9669V27.59H96.6209C98.2169 27.59 99.2039 28.346 99.2039 29.6585C99.2039 30.824 98.4374 31.538 97.1144 31.6115V31.685C97.6604 31.832 97.9124 32.147 98.1644 32.588L99.3404 34.625H98.0384L96.9149 32.6825C96.5999 32.126 96.2744 31.895 95.3924 31.895H94.1009V34.625ZM94.1009 28.6085V31.0235H96.6104C97.5554 31.0235 98.0279 30.698 98.0279 29.816C98.0279 28.955 97.5554 28.6085 96.6104 28.6085H94.1009ZM101.576 34.625H100.442V27.59H101.576V30.593H103.707L105.765 27.59H107.109L104.652 31.0655L107.099 34.625H105.755L103.728 31.685H101.576V34.625ZM113.76 34.625H108.132V27.59H113.76V28.6085H109.266V30.5825H113.602V31.5905H109.266V33.6065H113.76V34.625ZM118.559 34.625H117.436V28.6085H114.664V27.59H121.321V28.6085H118.559V34.625ZM127.149 34.856L126.572 35.381C125.616 34.478 124.461 33.1025 124.461 31.1075C124.461 29.1125 125.616 27.737 126.572 26.834L127.149 27.359C126.278 28.493 125.7 29.354 125.7 31.1075C125.7 32.861 126.278 33.722 127.149 34.856ZM132.229 34.625H128.144V27.59H132.082C133.426 27.59 134.234 28.2095 134.234 29.3225C134.234 30.152 133.772 30.7715 132.701 30.8975V30.971C133.898 31.1075 134.486 31.7585 134.486 32.6825C134.486 33.89 133.678 34.625 132.229 34.625ZM129.268 28.6085V30.5405H131.924C132.712 30.5405 133.111 30.236 133.111 29.5745C133.111 28.913 132.743 28.6085 131.956 28.6085H129.268ZM129.268 31.475V33.6065H132.103C132.943 33.6065 133.352 33.2915 133.352 32.525C133.352 31.79 132.932 31.475 132.103 31.475H129.268ZM141.269 34.625H135.641V27.59H141.269V28.6085H136.775V30.5825H141.111V31.5905H136.775V33.6065H141.269V34.625ZM146.068 34.625H144.945V28.6085H142.173V27.59H148.83V28.6085H146.068V34.625ZM150.648 34.625H149.388L152.528 27.59H154.124L157.263 34.625H155.982L155.174 32.798H151.457L150.648 34.625ZM152.864 29.6375L151.908 31.7795H154.722L153.767 29.6375L153.357 28.64H153.273L152.864 29.6375ZM157.946 27.359L158.513 26.834C159.479 27.737 160.623 29.1125 160.623 31.1075C160.623 33.1025 159.479 34.478 158.513 35.381L157.946 34.856C158.807 33.722 159.395 32.861 159.395 31.1075C159.395 29.354 158.807 28.493 157.946 27.359Z" fill="#6A00D4"/>
<defs>
<linearGradient id="paint0_linear_563_10" x1="4.88889" y1="40" x2="37.3333" y2="1.30717e-06" gradientUnits="userSpaceOnUse">
<stop stop-color="#6A00D4"/>
<stop offset="1" stop-color="#001FFF"/>
</linearGradient>
</defs>
</svg>
