<svg width="168" height="32" viewBox="0 0 168 32" fill="none" xmlns="http://www.w3.org/2000/svg">
<path d="M27.7986 15.9995C28.9675 14.6689 29.7775 13.4019 30.2052 12.231C30.6847 10.9188 30.658 9.80064 30.1255 8.90741C29.9441 8.60337 29.705 8.33216 29.4141 8.09928V8.09579L29.4105 8.0938C29.3473 7.73352 29.2245 7.39763 29.0435 7.09309C28.511 6.19986 27.5241 5.61814 26.1101 5.36435C24.8488 5.13793 23.3104 5.18322 21.5355 5.49821C20.9295 3.85258 20.2012 2.53986 19.3675 1.59537C18.4335 0.536435 17.4199 0 16.3544 0C15.9926 0 15.6307 0.0651883 15.2766 0.192082L15.273 0.190589L15.2694 0.192082C14.9147 0.0651883 14.5523 0 14.191 0C13.1255 0 12.1119 0.536435 11.1779 1.59487C10.3442 2.53936 9.61587 3.85208 9.00986 5.49771C7.23451 5.18272 5.6961 5.13744 4.43526 5.36385C3.02125 5.61764 2.03437 6.19936 1.50186 7.09259C1.31991 7.39763 1.19706 7.73552 1.13435 8.09679C0.842402 8.33017 0.602364 8.60187 0.420408 8.90741C-0.112096 9.80064 -0.138824 10.9188 0.340738 12.231C0.768386 13.4019 1.57845 14.6689 2.74729 15.9995C1.57845 17.3301 0.768386 18.5976 0.340738 19.7685C-0.138824 21.0807 -0.112096 22.1994 0.420408 23.0926C0.60185 23.3961 0.84086 23.6673 1.13178 23.9007V23.9047L1.13538 23.9067C1.1986 24.267 1.32145 24.6029 1.50238 24.9069C2.03488 25.8001 3.02176 26.3819 4.43578 26.6361C4.96314 26.7307 5.53882 26.7785 6.15973 26.7785C7.02428 26.7785 7.97775 26.6854 9.01038 26.5023C9.61638 28.1479 10.3447 29.4606 11.1784 30.4051C12.1129 31.4636 13.1265 32 14.1915 32C14.5534 32 14.9152 31.9348 15.2699 31.8079L15.2735 31.8094L15.2771 31.8079C15.6312 31.9348 15.9936 32 16.3549 32C17.4204 32 18.4341 31.4636 19.368 30.4051C20.2017 29.4611 20.93 28.1479 21.536 26.5023C22.5687 26.6854 23.5221 26.7785 24.3867 26.7785C25.0076 26.7785 25.5833 26.7312 26.1106 26.6361C27.5247 26.3819 28.5115 25.8001 29.044 24.9074C29.226 24.6029 29.3488 24.2655 29.4121 23.9037C29.704 23.6698 29.9441 23.3981 30.126 23.0936C30.6585 22.2004 30.6852 21.0817 30.2057 19.7695C29.778 18.5986 28.968 17.3311 27.7991 16.0005L27.7986 15.9995ZM29.4542 8.9313C29.5185 9.01241 29.5765 9.09701 29.629 9.18459C30.5259 10.6894 29.6423 13.1068 27.2055 15.8174C26.7783 16.2926 26.3055 16.7733 25.8002 17.246C25.6172 17.4172 25.4301 17.5879 25.2379 17.7581C25.1099 17.8716 24.9798 17.9845 24.8483 18.097C24.7825 18.1532 24.7162 18.2094 24.6488 18.2657C23.9801 18.827 23.2641 19.3793 22.509 19.9158L22.5029 19.9203C22.4114 19.9854 22.3189 20.0501 22.2258 20.1148C22.0799 20.2163 21.9318 20.3174 21.7833 20.4179C21.6548 20.5045 21.5258 20.5911 21.3952 20.6766C21.2832 20.7503 21.1701 20.8239 21.0565 20.8971C20.7578 21.0892 20.4546 21.2783 20.1482 21.4634C19.8805 21.6251 19.608 21.7853 19.3351 21.9416C19.2056 22.0157 19.0766 22.0894 18.947 22.1615C18.5394 22.3895 18.1272 22.6104 17.7211 22.8199C17.6147 22.8746 17.5083 22.9289 17.4014 22.9826C16.6546 23.3588 15.9011 23.7086 15.1568 24.0256C15.0052 24.0903 14.854 24.153 14.7034 24.2147C14.6911 24.2197 14.6788 24.2247 14.6669 24.2297C14.5225 24.2884 14.3786 24.3461 14.2352 24.4028C14.2167 24.4103 14.1982 24.4173 14.1797 24.4247C14.0399 24.4795 13.9001 24.5332 13.7603 24.5855C13.7387 24.5934 13.7176 24.6014 13.696 24.6093C13.5577 24.6611 13.42 24.7113 13.2827 24.7606C13.2612 24.7686 13.2396 24.776 13.218 24.784C13.0802 24.8333 12.9425 24.8815 12.8052 24.9283C12.7857 24.9348 12.7662 24.9417 12.7461 24.9482C12.6068 24.9955 12.4675 25.0418 12.3288 25.0866C12.3139 25.0915 12.2989 25.096 12.284 25.101C12.1406 25.1473 11.9972 25.1926 11.8543 25.2358C11.8487 25.2373 11.843 25.2393 11.8379 25.2408C11.696 25.2841 11.5552 25.3259 11.4149 25.3662C11.4066 25.3687 11.3989 25.3707 11.3907 25.3732C11.3866 25.3593 11.382 25.3453 11.3779 25.3319C11.3511 25.2458 11.3244 25.1587 11.2982 25.0711C11.2895 25.0418 11.2807 25.0129 11.272 24.9835C11.2417 24.881 11.2118 24.7775 11.1825 24.6735C11.1789 24.6611 11.1759 24.6486 11.1723 24.6362C11.146 24.5412 11.1198 24.4456 11.0946 24.3491C11.0869 24.3202 11.0792 24.2909 11.0715 24.262C11.0432 24.154 11.0155 24.0455 10.9888 23.9366C10.9898 23.9366 10.9913 23.9356 10.9929 23.9356C11.1255 23.8948 11.2591 23.8525 11.3933 23.8092C11.4133 23.8027 11.4334 23.7962 11.4534 23.7898C11.5819 23.748 11.7114 23.7047 11.8415 23.6609C11.8677 23.6519 11.8939 23.643 11.9201 23.634C12.0497 23.5897 12.1802 23.5444 12.3108 23.4977C12.3329 23.4897 12.3545 23.4817 12.3766 23.4743C12.4737 23.4394 12.5709 23.4041 12.668 23.3683L12.7903 23.323C13.6102 23.017 14.4439 22.6696 15.2699 22.2904L15.3937 22.2337C16.3169 21.8062 17.2441 21.333 18.1493 20.8269C18.8817 20.4174 19.5998 19.9864 20.2911 19.5421V19.5485L20.8982 19.145V19.144C21.0591 19.0365 21.2184 18.9285 21.3762 18.819C21.7864 18.5354 22.1863 18.2463 22.5738 17.9547V17.9621L23.0616 17.5804C23.0616 17.5804 23.0626 17.5799 23.0631 17.5794L23.1634 17.5008C23.2014 17.4705 23.2394 17.4406 23.277 17.4108C23.4003 17.3127 23.5221 17.2142 23.6429 17.1152C24.0115 16.8131 24.3682 16.5076 24.7079 16.2015C24.7079 16.2015 24.7085 16.2015 24.709 16.201L24.9341 15.9985L24.9331 15.9975C24.948 15.9836 24.9634 15.9696 24.9783 15.9557C25.1474 15.7995 25.3134 15.6422 25.4748 15.4855C25.4795 15.481 25.4841 15.4765 25.4887 15.472C25.7395 15.2277 25.9801 14.9834 26.2093 14.74L26.3964 14.541L26.3954 14.54C26.4041 14.5305 26.4129 14.5211 26.4216 14.5121C26.4221 14.5116 26.4226 14.5106 26.4232 14.5101C26.4314 14.5012 26.4396 14.4917 26.4478 14.4828C26.4489 14.4818 26.4499 14.4808 26.4509 14.4793C26.511 14.4136 26.5707 14.3479 26.6288 14.2822C26.6334 14.2767 26.638 14.2718 26.6426 14.2663C27.5565 13.2377 28.2617 12.2365 28.7418 11.285C29.171 10.4346 29.4085 9.64588 29.4527 8.9303L29.4542 8.9313ZM18.5451 23.0184C18.5554 23.013 18.5656 23.0075 18.5754 23.002C18.6484 22.9627 18.7219 22.9229 18.7949 22.8836C18.8319 22.8637 18.8689 22.8438 18.9054 22.8234C19.0149 22.7637 19.1238 22.7035 19.2328 22.6422C19.3413 22.5815 19.4492 22.5203 19.5577 22.4586C19.5921 22.4387 19.6265 22.4188 19.661 22.3989C19.7345 22.3566 19.808 22.3143 19.8815 22.2715C19.8918 22.2655 19.9026 22.2596 19.9128 22.2531C19.9097 22.2705 19.9061 22.2884 19.9031 22.3059C19.8871 22.3924 19.8707 22.479 19.8542 22.5646C19.8512 22.5795 19.8486 22.594 19.8455 22.6089C19.8404 22.6348 19.8352 22.6602 19.8301 22.686C19.8141 22.7657 19.7982 22.8448 19.7823 22.9234C19.7751 22.9592 19.7674 22.9951 19.7602 23.0304C19.7432 23.112 19.7252 23.1931 19.7077 23.2742C19.7052 23.2852 19.7031 23.2966 19.7005 23.3076C19.6954 23.33 19.6908 23.3523 19.6856 23.3747C19.6841 23.3812 19.6826 23.3877 19.681 23.3941C19.3084 23.2792 18.9285 23.1533 18.544 23.0179L18.5451 23.0184ZM19.5541 23.9371C19.5494 23.956 19.5448 23.9749 19.5397 23.9938C19.5258 24.0505 19.5114 24.1067 19.497 24.163C19.4903 24.1893 19.4831 24.2157 19.4764 24.2421C19.4626 24.2943 19.4492 24.3466 19.4353 24.3988C19.4281 24.4262 19.4209 24.4531 19.4132 24.4805C19.3993 24.5327 19.385 24.5845 19.3706 24.6362C19.3634 24.6616 19.3567 24.687 19.3495 24.7123C19.3336 24.7681 19.3181 24.8233 19.3017 24.879C19.2955 24.8994 19.2899 24.9204 19.2837 24.9408C19.241 25.0871 19.1973 25.2314 19.1521 25.3742C18.1226 25.0786 17.0606 24.7094 15.9838 24.2734C15.9905 24.2705 15.9977 24.267 16.0044 24.264C16.1498 24.1988 16.2953 24.1326 16.4413 24.0654C16.4767 24.049 16.5122 24.0326 16.5472 24.0162C16.6808 23.954 16.8144 23.8913 16.9481 23.8271C16.9656 23.8186 16.9825 23.8107 17 23.8027C17.146 23.7325 17.2919 23.6609 17.4379 23.5887C17.4744 23.5708 17.5104 23.5524 17.5469 23.5345C17.6564 23.4797 17.7653 23.425 17.8743 23.3693C18.4428 23.5788 19.0061 23.7699 19.5535 23.938L19.5541 23.9371ZM17.8748 8.63073C17.7653 8.5745 17.6553 8.51927 17.5453 8.46403C17.5099 8.44661 17.4749 8.4287 17.4395 8.41128C17.2925 8.33813 17.1455 8.26598 16.9979 8.19532C16.983 8.18835 16.9681 8.18138 16.9532 8.17392C16.8869 8.14207 16.8201 8.11022 16.7538 8.07887C16.6839 8.04603 16.614 8.01319 16.5441 7.98084C16.5107 7.96542 16.4767 7.94949 16.4433 7.93407C16.2963 7.86589 16.1493 7.79921 16.0023 7.73352C15.9962 7.73104 15.9905 7.72805 15.9843 7.72556C17.0591 7.29014 18.121 6.92141 19.1526 6.62483C19.1742 6.6935 19.1953 6.76217 19.2164 6.83183C19.2189 6.84029 19.2215 6.84875 19.2241 6.85672C19.2441 6.9224 19.2636 6.98859 19.2832 7.05477C19.2909 7.08114 19.2986 7.10752 19.3058 7.13389C19.3202 7.18266 19.3341 7.23192 19.3479 7.28119C19.3567 7.31154 19.3649 7.34239 19.3736 7.37275C19.3865 7.41903 19.3993 7.46531 19.4117 7.51159C19.4204 7.54343 19.4286 7.57478 19.4374 7.60663C19.4497 7.65341 19.4621 7.70018 19.4744 7.74696C19.4826 7.77831 19.4908 7.80916 19.4985 7.84051C19.5114 7.89127 19.5242 7.94252 19.5371 7.99378C19.5428 8.01617 19.5484 8.03857 19.5541 8.06096C19.001 8.23065 18.4377 8.42173 17.8748 8.62974V8.63073ZM19.682 8.60486C19.6836 8.61133 19.6851 8.6178 19.6867 8.62427C19.6908 8.64268 19.6949 8.66109 19.699 8.679C19.7031 8.69692 19.7067 8.71483 19.7108 8.73275C19.7278 8.80988 19.7448 8.88751 19.7612 8.96563C19.7689 9.00295 19.7771 9.04028 19.7848 9.0781C19.8008 9.15572 19.8167 9.23385 19.8321 9.31198C19.8378 9.33984 19.8434 9.36771 19.8486 9.39558C19.8506 9.40653 19.8527 9.41747 19.8553 9.42892C19.8727 9.51899 19.8897 9.60906 19.9067 9.69962C19.9097 9.71505 19.9123 9.73048 19.9154 9.7459C19.9051 9.73993 19.8954 9.73446 19.8851 9.72849C19.8116 9.68569 19.7381 9.64339 19.6646 9.6011C19.6296 9.58069 19.5942 9.56029 19.5592 9.54039C19.4667 9.48764 19.3747 9.43539 19.2822 9.38363C19.2667 9.37468 19.2508 9.36572 19.2354 9.35726C19.1264 9.29655 19.0174 9.23634 18.908 9.17613C18.8694 9.15523 18.8309 9.13433 18.7918 9.11343C18.7214 9.07511 18.651 9.03679 18.5805 8.99897C18.5692 8.993 18.5579 8.98653 18.5466 8.98056C18.928 8.8462 19.3084 8.7208 19.6836 8.60486H19.682ZM17.7216 9.17961C17.8496 9.24579 17.9781 9.31297 18.1071 9.38115C18.3878 9.52944 18.669 9.68221 18.9475 9.83796C19.0437 9.89171 19.1398 9.94595 19.2359 10.0007C19.2688 10.0191 19.3012 10.0385 19.3341 10.0569C19.3978 10.0932 19.461 10.1301 19.5248 10.1669C19.5623 10.1888 19.5998 10.2107 19.6373 10.2326C19.6954 10.2669 19.754 10.3008 19.8121 10.3351C19.8517 10.3585 19.8912 10.3819 19.9308 10.4057C19.9663 10.4271 20.0023 10.4485 20.0377 10.4694C20.0408 10.4889 20.0439 10.5088 20.047 10.5282C20.067 10.6551 20.086 10.7829 20.1046 10.9118C20.1076 10.9317 20.1102 10.9516 20.1133 10.9715C20.1339 11.1168 20.1534 11.2631 20.1724 11.4099C20.1765 11.4438 20.1806 11.4776 20.1853 11.5115C20.2012 11.6393 20.2166 11.7682 20.231 11.8971C20.2336 11.921 20.2367 11.9454 20.2392 11.9693C20.2557 12.1176 20.2711 12.2664 20.286 12.4156C20.287 12.4281 20.2886 12.4405 20.2896 12.453C20.2747 12.443 20.2593 12.4336 20.2438 12.4241C20.0932 12.3276 19.9416 12.2315 19.7884 12.1365C19.7648 12.122 19.7412 12.1071 19.7175 12.0927C19.5762 12.0051 19.4338 11.9185 19.2909 11.8324C19.2642 11.816 19.2374 11.8001 19.2102 11.7837C19.055 11.6906 18.8987 11.5985 18.7414 11.5075C18.7075 11.4881 18.6741 11.4687 18.6402 11.4488C18.5908 11.4204 18.542 11.3915 18.4921 11.3632C18.3796 11.2985 18.266 11.2348 18.1529 11.1711C18.0398 11.1079 17.9262 11.0452 17.8126 10.983C17.6039 10.869 17.3947 10.7571 17.1845 10.6471C16.8211 10.4565 16.4557 10.2714 16.0902 10.0937C16.0846 10.0908 16.0789 10.0883 16.0727 10.0853C15.898 10.0002 15.7232 9.91708 15.5485 9.83547C15.4981 9.81209 15.4477 9.7882 15.3973 9.76481L15.274 9.70759C15.0987 9.62747 14.9224 9.54785 14.7466 9.47022C14.6376 9.42245 14.5292 9.37518 14.4202 9.3284C13.8764 9.09502 13.3321 8.87656 12.7939 8.67552C12.7924 8.67552 12.7914 8.67453 12.7898 8.67403L12.6716 8.62974C12.5734 8.59391 12.4747 8.55808 12.3766 8.52325C12.3575 8.51628 12.3385 8.50932 12.3195 8.50285C12.1869 8.45557 12.0543 8.40929 11.9222 8.36401C11.8991 8.35605 11.8759 8.34809 11.8528 8.34062C11.7207 8.29584 11.5886 8.25205 11.4575 8.20925C11.439 8.20328 11.4205 8.19731 11.402 8.19134C11.3496 8.17442 11.2966 8.157 11.2442 8.14058C11.1615 8.1142 11.0787 8.08882 10.9965 8.06345C10.9949 8.06345 10.9934 8.06245 10.9924 8.06195C11.0196 7.95098 11.0479 7.84101 11.0767 7.73203C11.0839 7.70516 11.0905 7.67879 11.0977 7.65191C11.1245 7.5509 11.1517 7.45088 11.1789 7.35135C11.1815 7.34289 11.1836 7.33443 11.1861 7.32548C11.216 7.21899 11.2463 7.11399 11.2771 7.00899C11.2848 6.98311 11.2925 6.95674 11.3002 6.93086C11.3275 6.8388 11.3558 6.74774 11.384 6.65717C11.3876 6.64672 11.3907 6.63577 11.3938 6.62483C11.4 6.62682 11.4061 6.62831 11.4123 6.6303C11.5557 6.6716 11.7001 6.7144 11.8446 6.75869C11.8482 6.75968 11.8518 6.76068 11.8554 6.76167C11.9988 6.80546 12.1427 6.85075 12.2876 6.89752C12.3015 6.902 12.3159 6.90648 12.3298 6.91096C12.4686 6.95574 12.6079 7.00252 12.7477 7.04979C12.7672 7.05626 12.7867 7.06273 12.8058 7.0697C12.943 7.11647 13.0807 7.16474 13.2185 7.21401C13.2401 7.22147 13.2617 7.22943 13.2833 7.2369C13.421 7.28616 13.5588 7.33692 13.697 7.38867C13.7181 7.39663 13.7392 7.4046 13.7608 7.41256C13.9006 7.46531 14.0404 7.51905 14.1807 7.57379C14.1992 7.58075 14.2172 7.58822 14.2357 7.59568C14.3796 7.65241 14.5241 7.71014 14.669 7.76935C14.6808 7.77433 14.6921 7.77881 14.704 7.78378C14.8556 7.84599 15.0072 7.90918 15.1594 7.97388C16.008 8.33415 16.8705 8.73971 17.7232 9.17911L17.7216 9.17961ZM11.2679 8.73374C11.2776 8.73673 11.2874 8.74021 11.2972 8.7432C11.4241 8.7845 11.5521 8.8273 11.6801 8.87109C11.7037 8.87905 11.7274 8.88701 11.751 8.89547C11.8338 8.92383 11.9165 8.95319 11.9993 8.98205C11.7695 9.10497 11.5393 9.23037 11.311 9.35776C11.0813 9.48614 10.8546 9.61602 10.6315 9.7464C10.647 9.6623 10.6619 9.5782 10.6783 9.4946C10.6829 9.47171 10.687 9.44882 10.6917 9.42544C10.7169 9.29605 10.7426 9.16767 10.7688 9.04028C10.7713 9.02883 10.7734 9.01788 10.776 9.00644C10.8017 8.88452 10.8279 8.7636 10.8546 8.64367C10.8577 8.63073 10.8603 8.61829 10.8633 8.60536C10.8726 8.60834 10.8819 8.61133 10.8911 8.61382C11.0165 8.65263 11.1419 8.69244 11.2684 8.73324L11.2679 8.73374ZM11.5979 9.83796C11.9659 9.63244 12.3385 9.43141 12.7076 9.23982C12.743 9.25326 12.7785 9.26669 12.814 9.28013C12.8608 9.29804 12.908 9.31596 12.9548 9.33437C13.0124 9.35676 13.0699 9.37916 13.128 9.40205C13.1743 9.42046 13.2206 9.43837 13.2673 9.45678C13.3259 9.48017 13.385 9.50406 13.4436 9.52745C13.4894 9.54586 13.5346 9.56427 13.5804 9.58268C13.6405 9.60707 13.7006 9.63195 13.7608 9.65733C13.805 9.67574 13.8497 9.69415 13.8939 9.71256C13.9556 9.73844 14.0173 9.76481 14.0789 9.79119C14.1221 9.8096 14.1648 9.82751 14.2079 9.84592C14.2722 9.87329 14.3359 9.90166 14.4002 9.92952C14.4408 9.94744 14.4814 9.96486 14.522 9.98277C14.5508 9.99521 14.5796 10.0086 14.6084 10.0211C13.8646 10.3789 13.1219 10.7645 12.393 11.1721C11.6636 11.5796 10.9476 12.0096 10.2563 12.454C10.2594 12.4246 10.262 12.3947 10.2645 12.3654C10.2692 12.3166 10.2748 12.2683 10.2794 12.2201C10.2856 12.1584 10.2923 12.0962 10.299 12.0345C10.3046 11.9837 10.3103 11.9334 10.3159 11.8832C10.3226 11.824 10.3293 11.7648 10.3365 11.7055C10.3427 11.6543 10.3488 11.603 10.3555 11.5518C10.3627 11.4935 10.3699 11.4353 10.3776 11.3771C10.3843 11.3268 10.391 11.2761 10.3977 11.2258C10.4054 11.1671 10.4136 11.1084 10.4213 11.0502C10.428 11.0009 10.4352 10.9521 10.4424 10.9029C10.4511 10.8432 10.4593 10.7839 10.4686 10.7247C10.4758 10.6779 10.483 10.6312 10.4902 10.5844C10.4958 10.5461 10.502 10.5083 10.5082 10.4704C10.8597 10.259 11.2257 10.047 11.5979 9.83896V9.83796ZM12.6798 11.6523C13.532 11.1761 14.4033 10.7292 15.2719 10.3231C15.3105 10.3411 15.349 10.3595 15.3881 10.3774C15.4395 10.4018 15.4909 10.4261 15.5428 10.4505C15.6035 10.4794 15.6641 10.5088 15.7253 10.5381C15.7756 10.5625 15.826 10.5869 15.8764 10.6113C15.9386 10.6416 16.0008 10.6725 16.063 10.7028C16.1118 10.7272 16.1611 10.7511 16.21 10.7755C16.2737 10.8073 16.3369 10.8397 16.4007 10.8715C16.4485 10.8954 16.4958 10.9198 16.5436 10.9437C16.6088 10.977 16.6736 11.0109 16.7389 11.0447C16.7846 11.0686 16.8304 11.092 16.8761 11.1159C16.944 11.1512 17.0113 11.187 17.0791 11.2233C17.1218 11.2462 17.165 11.2686 17.2076 11.2915C17.2827 11.3318 17.3577 11.3726 17.4328 11.4129C17.4677 11.4318 17.5027 11.4508 17.5376 11.4697C17.6476 11.5299 17.7571 11.5901 17.8661 11.6513C17.9756 11.7125 18.085 11.7742 18.194 11.8369C18.2264 11.8553 18.2583 11.8742 18.2901 11.8926C18.3667 11.9364 18.4433 11.9807 18.5189 12.025C18.559 12.0484 18.599 12.0723 18.6397 12.0962C18.707 12.136 18.7743 12.1753 18.8417 12.2156C18.8859 12.242 18.9301 12.2688 18.9748 12.2957C19.037 12.333 19.0992 12.3704 19.1614 12.4082C19.2087 12.437 19.2554 12.4659 19.3027 12.4948C19.3613 12.5306 19.4199 12.5664 19.478 12.6027C19.5268 12.6331 19.5756 12.664 19.6245 12.6943C19.68 12.7291 19.7355 12.764 19.791 12.7993C19.8414 12.8312 19.8912 12.8635 19.9416 12.8953C19.9946 12.9292 20.0475 12.963 20.1004 12.9974C20.1518 13.0307 20.2027 13.064 20.2536 13.0974C20.2865 13.1188 20.3194 13.1407 20.3523 13.1621C20.3554 13.2004 20.358 13.2387 20.361 13.2765C20.3652 13.3357 20.3698 13.3955 20.3739 13.4552C20.378 13.5154 20.3821 13.5761 20.3857 13.6368C20.3893 13.6955 20.3934 13.7547 20.3965 13.814C20.4001 13.8757 20.4032 13.9379 20.4068 14.0001C20.4099 14.0583 20.413 14.1165 20.416 14.1747C20.4191 14.2384 20.4217 14.3026 20.4248 14.3663C20.4273 14.423 20.4299 14.4798 20.432 14.537C20.4345 14.6037 20.4366 14.6709 20.4392 14.738C20.4412 14.7923 20.4428 14.8465 20.4448 14.9008C20.4469 14.9719 20.4484 15.0431 20.45 15.1142C20.451 15.165 20.4525 15.2153 20.4536 15.266C20.4551 15.3466 20.4561 15.4277 20.4572 15.5088C20.4577 15.5502 20.4587 15.591 20.4587 15.6323C20.4597 15.7547 20.4608 15.8771 20.4608 16C20.4608 16.1229 20.4602 16.2453 20.4587 16.3677C20.4587 16.409 20.4577 16.4503 20.4572 16.4917C20.4561 16.5723 20.4551 16.6534 20.4536 16.734C20.4525 16.7847 20.451 16.8355 20.45 16.8863C20.4484 16.9574 20.4469 17.0286 20.4448 17.0997C20.4433 17.1545 20.4412 17.2087 20.4392 17.263C20.4371 17.3296 20.4345 17.3968 20.432 17.4635C20.4299 17.5207 20.4273 17.5775 20.4248 17.6342C20.4222 17.6979 20.4191 17.7621 20.416 17.8258C20.4135 17.884 20.4099 17.9422 20.4068 18.0004C20.4037 18.0626 20.4001 18.1248 20.3965 18.1865C20.3929 18.2453 20.3893 18.304 20.3857 18.3627C20.3816 18.4234 20.378 18.4846 20.3739 18.5453C20.3698 18.6045 20.3657 18.6638 20.361 18.7225C20.3585 18.7608 20.3554 18.7996 20.3523 18.8379C20.3174 18.8608 20.2819 18.8842 20.2469 18.9071C20.1991 18.9385 20.1518 18.9693 20.104 19.0007C20.0485 19.0365 19.993 19.0723 19.9375 19.1076C19.8897 19.1385 19.8419 19.1689 19.7941 19.1992C19.7376 19.235 19.6805 19.2709 19.6234 19.3067C19.5756 19.3365 19.5278 19.3669 19.48 19.3963C19.422 19.4326 19.3634 19.4684 19.3053 19.5042C19.258 19.5331 19.2107 19.5625 19.1629 19.5913C19.1028 19.6277 19.0426 19.664 18.982 19.7003C18.9357 19.7282 18.8895 19.756 18.8427 19.7839C18.7795 19.8217 18.7152 19.859 18.6515 19.8969C18.6078 19.9227 18.5641 19.9486 18.5199 19.974C18.4479 20.0158 18.376 20.0571 18.304 20.0989C18.2675 20.1198 18.2315 20.1412 18.195 20.1616C18.0861 20.2238 17.9771 20.2855 17.8676 20.3467C17.7581 20.4079 17.6487 20.4686 17.5387 20.5283C17.5053 20.5468 17.4718 20.5647 17.4379 20.5826C17.3613 20.6239 17.2847 20.6657 17.2082 20.7065C17.167 20.7284 17.1259 20.7503 17.0843 20.7722C17.0149 20.809 16.946 20.8458 16.8766 20.8822C16.8314 20.906 16.7862 20.9289 16.7409 20.9528C16.6757 20.9867 16.6104 21.0205 16.5451 21.0538C16.4968 21.0787 16.4485 21.1031 16.4002 21.1275C16.3374 21.1593 16.2753 21.1907 16.2125 21.222C16.1622 21.2474 16.1118 21.2723 16.0609 21.2972C16.0244 21.3151 15.9879 21.333 15.9514 21.3509C15.9273 21.3629 15.9031 21.3748 15.8795 21.3862C15.8281 21.4116 15.7762 21.436 15.7248 21.4614C15.6651 21.4903 15.605 21.5191 15.5454 21.5475C15.4935 21.5724 15.4421 21.5962 15.3901 21.6206C15.3516 21.639 15.313 21.657 15.274 21.6749C14.4053 21.2688 13.5336 20.8219 12.6819 20.3457C11.8286 19.869 10.9939 19.3614 10.1977 18.8369C10.1946 18.7941 10.191 18.7513 10.188 18.709C10.1838 18.6563 10.1802 18.6031 10.1766 18.5498C10.172 18.4826 10.1679 18.4155 10.1638 18.3483C10.1607 18.2955 10.1571 18.2428 10.154 18.19C10.1499 18.1219 10.1463 18.0537 10.1427 17.9855C10.1401 17.9333 10.1371 17.8805 10.1345 17.8283C10.1309 17.7591 10.1283 17.6894 10.1252 17.6198C10.1232 17.568 10.1206 17.5163 10.1186 17.4645C10.116 17.3928 10.1134 17.3217 10.1109 17.25C10.1093 17.1998 10.1073 17.15 10.1057 17.0997C10.1037 17.0251 10.1021 16.95 10.1001 16.8753C10.099 16.828 10.0975 16.7808 10.0965 16.7335C10.0949 16.6509 10.0939 16.5688 10.0929 16.4862C10.0929 16.4464 10.0913 16.4066 10.0913 16.3662C10.0903 16.2438 10.0893 16.1214 10.0893 15.9985C10.0893 15.8756 10.0898 15.7532 10.0913 15.6308C10.0913 15.591 10.0923 15.5511 10.0929 15.5113C10.0939 15.4287 10.0949 15.3461 10.0965 15.2635C10.0975 15.2167 10.0985 15.1695 10.0995 15.1227C10.1011 15.0476 10.1031 14.9719 10.1052 14.8968C10.1067 14.8475 10.1083 14.7982 10.1103 14.749C10.1129 14.6763 10.115 14.6037 10.118 14.5315C10.1201 14.4808 10.1222 14.4305 10.1247 14.3797C10.1278 14.3091 10.1309 14.2379 10.1345 14.1673C10.1371 14.1165 10.1396 14.0657 10.1427 14.0145C10.1463 13.9443 10.1499 13.8742 10.154 13.8045C10.1571 13.7537 10.1602 13.703 10.1633 13.6522C10.1679 13.5826 10.172 13.5134 10.1766 13.4442C10.1802 13.3935 10.1838 13.3432 10.1874 13.2924C10.1905 13.2482 10.1941 13.2039 10.1977 13.1596C10.9944 12.6346 11.8292 12.1275 12.6819 11.6508L12.6798 11.6523ZM12.3935 20.8279C13.1224 21.2355 13.8651 21.6211 14.6089 21.9789C14.5801 21.9919 14.5508 22.0048 14.522 22.0177C14.4829 22.0346 14.4444 22.0516 14.4053 22.0685C14.3395 22.0973 14.2737 22.1262 14.2085 22.1541C14.1658 22.1725 14.1236 22.1904 14.081 22.2083C14.0188 22.2347 13.9566 22.2611 13.8944 22.2874C13.8497 22.3059 13.8055 22.3243 13.7608 22.3427C13.7006 22.3676 13.641 22.3924 13.5809 22.4168C13.5351 22.4357 13.4889 22.4541 13.4431 22.4726C13.3845 22.4959 13.3264 22.5198 13.2678 22.5427C13.2211 22.5611 13.1743 22.5795 13.1275 22.598C13.0705 22.6203 13.0129 22.6427 12.9558 22.6651C12.908 22.6835 12.8602 22.702 12.8129 22.7199C12.778 22.7333 12.743 22.7462 12.7081 22.7597C12.3396 22.5686 11.9669 22.3676 11.5984 22.1615C11.2262 21.9535 10.8603 21.7415 10.5087 21.5301C10.503 21.4942 10.4974 21.4579 10.4917 21.4216C10.484 21.3718 10.4763 21.3226 10.4691 21.2723C10.4604 21.2151 10.4521 21.1578 10.4439 21.1006C10.4367 21.0499 10.429 20.9986 10.4223 20.9478C10.4146 20.8911 10.4069 20.8339 10.3992 20.7767C10.3925 20.7249 10.3853 20.6737 10.3786 20.6219C10.3714 20.5647 10.3643 20.507 10.3571 20.4497C10.3509 20.398 10.3442 20.3462 10.338 20.294C10.3308 20.2357 10.3247 20.177 10.318 20.1183C10.3123 20.0671 10.3062 20.0158 10.3005 19.9645C10.2938 19.9033 10.2877 19.8421 10.2815 19.7809C10.2764 19.7322 10.2712 19.6829 10.2661 19.6341C10.263 19.6048 10.2604 19.5749 10.2579 19.5455C10.9487 19.9894 11.6652 20.4194 12.3946 20.8274L12.3935 20.8279ZM11.3116 22.6427C11.5398 22.7701 11.77 22.8955 11.9993 23.0184C11.9155 23.0478 11.8322 23.0777 11.749 23.106C11.7243 23.1145 11.7001 23.1224 11.6755 23.1309C11.5485 23.1742 11.4216 23.2165 11.2956 23.2573C11.2848 23.2608 11.2735 23.2643 11.2627 23.2678C11.1404 23.3076 11.0191 23.3459 10.8988 23.3832C10.887 23.3867 10.8752 23.3907 10.8633 23.3941C10.8603 23.3812 10.8577 23.3688 10.8546 23.3558C10.8279 23.2369 10.8022 23.117 10.7765 22.9961C10.7739 22.9836 10.7713 22.9712 10.7683 22.9582C10.742 22.8313 10.7163 22.7039 10.6917 22.5756C10.687 22.5517 10.6824 22.5283 10.6778 22.5044C10.6619 22.4213 10.647 22.3372 10.6315 22.2536C10.8546 22.384 11.0818 22.5144 11.3116 22.6427ZM23.1932 15.6347C23.1932 15.5954 23.1922 15.5556 23.1916 15.5163C23.1906 15.4332 23.1896 15.3501 23.188 15.2675C23.188 15.2566 23.188 15.2456 23.188 15.2352C23.499 15.4884 23.8018 15.7437 24.0927 16C24.087 16.005 24.0819 16.0095 24.0762 16.0144C24.0624 16.0269 24.0485 16.0388 24.0341 16.0513C24.0207 16.0627 24.0074 16.0746 23.994 16.0861C23.9328 16.1398 23.8711 16.1931 23.8084 16.2463C23.7786 16.2717 23.7488 16.2971 23.719 16.3225C23.6584 16.3742 23.5972 16.4255 23.536 16.4767C23.5129 16.4961 23.4898 16.5155 23.4666 16.5344C23.4574 16.5419 23.4481 16.5499 23.4389 16.5573C23.3685 16.6156 23.298 16.6738 23.2271 16.732C23.2137 16.7429 23.2004 16.7539 23.187 16.7648C23.187 16.7539 23.187 16.7434 23.187 16.7325C23.1886 16.6499 23.1896 16.5673 23.1906 16.4842C23.1906 16.4444 23.1916 16.4051 23.1922 16.3653C23.1932 16.2433 23.1937 16.1214 23.1937 15.9995C23.1937 15.8776 23.1932 15.7557 23.1922 15.6338L23.1932 15.6347ZM23.1654 14.4982C23.1608 14.3788 23.1557 14.2593 23.1495 14.1399C23.1474 14.1011 23.1459 14.0618 23.1438 14.023C23.1356 13.8637 23.1264 13.705 23.1161 13.5467C23.1151 13.5293 23.1135 13.5119 23.1125 13.4945C23.1027 13.3487 23.0924 13.2039 23.0811 13.0591C23.078 13.0222 23.0755 12.9854 23.0724 12.9486C23.0595 12.7918 23.0462 12.6356 23.0313 12.4798C23.0308 12.4734 23.0302 12.4664 23.0297 12.4599C23.9565 13.1437 24.8179 13.8498 25.5987 14.5659C25.5483 14.6181 25.498 14.6699 25.4466 14.7221C25.4394 14.7291 25.4327 14.736 25.4255 14.7435C25.3772 14.7923 25.3288 14.841 25.2795 14.8903C25.2605 14.9092 25.2415 14.9281 25.2225 14.9465C25.1849 14.9839 25.1469 15.0212 25.1089 15.0585C25.0868 15.0799 25.0652 15.1013 25.0431 15.1227C25.0071 15.158 24.9706 15.1929 24.9341 15.2282C24.9115 15.2501 24.8884 15.272 24.8657 15.2939C24.8287 15.3292 24.7912 15.3645 24.7537 15.3999C24.7316 15.4208 24.709 15.4417 24.6864 15.4631C24.6452 15.5014 24.6041 15.5392 24.563 15.5775C24.5471 15.5925 24.5306 15.6074 24.5147 15.6223C24.087 15.2446 23.6347 14.8679 23.1665 14.4987L23.1654 14.4982ZM28.877 8.41576C28.879 8.43965 28.8806 8.46403 28.8821 8.48792C28.8837 8.51429 28.8857 8.54067 28.8868 8.56704C28.8878 8.59142 28.8878 8.6168 28.8883 8.64168C28.8883 8.66855 28.8893 8.69493 28.8888 8.7218C28.8888 8.74718 28.8878 8.77256 28.8868 8.79794C28.8857 8.82481 28.8852 8.85218 28.8837 8.87905C28.8821 8.90492 28.8801 8.9313 28.8785 8.95767C28.8765 8.98504 28.8744 9.01241 28.8718 9.03978C28.8693 9.06665 28.8662 9.09352 28.8626 9.12039C28.8595 9.14826 28.8559 9.17563 28.8518 9.2035C28.8482 9.23087 28.8436 9.25823 28.839 9.2856C28.8343 9.31347 28.8297 9.34183 28.8246 9.3697C28.8194 9.39757 28.8138 9.42543 28.8081 9.4538C28.8025 9.48216 28.7968 9.51053 28.7901 9.53889C28.784 9.56726 28.7773 9.59562 28.7701 9.62448C28.7634 9.65335 28.7562 9.68221 28.7485 9.71107C28.7408 9.73993 28.7331 9.76879 28.7248 9.79815C28.7166 9.82751 28.7084 9.85637 28.6997 9.88573C28.6909 9.91509 28.6817 9.94445 28.6724 9.97431C28.6632 10.0037 28.6539 10.0335 28.6436 10.0629C28.6339 10.0927 28.6236 10.1226 28.6128 10.153C28.6025 10.1828 28.5917 10.2127 28.5809 10.2425C28.5696 10.2729 28.5583 10.3032 28.5465 10.3341C28.5347 10.3644 28.5228 10.3948 28.511 10.4252C28.4987 10.456 28.4864 10.4869 28.4735 10.5177C28.4607 10.5481 28.4478 10.5789 28.4344 10.6098C28.4211 10.6411 28.4072 10.672 28.3933 10.7033C28.3856 10.7207 28.3774 10.7387 28.3692 10.7561C28.363 10.7695 28.3568 10.7829 28.3507 10.7964C28.3363 10.8277 28.3214 10.8596 28.3059 10.8914C28.291 10.9228 28.2751 10.9546 28.2597 10.986C28.2437 11.0178 28.2278 11.0497 28.2119 11.0815C28.1954 11.1134 28.179 11.1452 28.162 11.1776C28.1451 11.2094 28.1281 11.2418 28.1106 11.2741C28.0931 11.3064 28.0752 11.3393 28.0566 11.3716C28.0387 11.404 28.0207 11.4358 28.0027 11.4682C27.9837 11.501 27.9646 11.5344 27.9451 11.5677C27.9261 11.6 27.9071 11.6324 27.8881 11.6647C27.868 11.6981 27.8474 11.7319 27.8269 11.7652C27.8068 11.7976 27.7868 11.8304 27.7662 11.8628C27.7452 11.8966 27.7231 11.931 27.701 11.9648C27.6799 11.9976 27.6593 12.03 27.6377 12.0628C27.6151 12.0972 27.592 12.132 27.5683 12.1668C27.5462 12.1997 27.5247 12.232 27.5026 12.2649C27.4784 12.3002 27.4537 12.3355 27.4291 12.3709C27.4064 12.4032 27.3838 12.4355 27.3607 12.4684C27.335 12.5042 27.3088 12.5405 27.2826 12.5764C27.2589 12.6087 27.2358 12.6411 27.2121 12.6734C27.1849 12.7102 27.1571 12.7471 27.1294 12.7839C27.1052 12.8162 27.0816 12.8481 27.0569 12.8804C27.0281 12.9182 26.9983 12.9561 26.969 12.9939C26.9444 13.0257 26.9202 13.0571 26.895 13.0889C26.8647 13.1277 26.8333 13.1665 26.802 13.2054C26.7768 13.2367 26.7521 13.2676 26.7264 13.2989C26.694 13.3387 26.6606 13.3785 26.6272 13.4183C26.602 13.4487 26.5768 13.4796 26.5511 13.5099C26.5162 13.5517 26.4802 13.5935 26.4442 13.6348C26.4196 13.6637 26.3949 13.693 26.3697 13.7219C26.3306 13.7667 26.2911 13.812 26.251 13.8567C26.2278 13.8831 26.2052 13.909 26.1816 13.9354C26.1343 13.9881 26.086 14.0414 26.0377 14.0941C26.0207 14.1125 26.0042 14.1314 25.9873 14.1498C25.9857 14.1518 25.9837 14.1533 25.9821 14.1553C25.0693 13.3188 24.05 12.4968 22.947 11.7075C22.931 11.5717 22.9151 11.4358 22.8976 11.3015C22.8899 11.2422 22.8817 11.184 22.8735 11.1248C22.8581 11.0094 22.8426 10.8939 22.8257 10.7795C22.8154 10.7093 22.8046 10.6401 22.7938 10.571C22.7784 10.4684 22.7624 10.3659 22.746 10.2639C22.7342 10.1903 22.7213 10.1176 22.709 10.0445C22.6925 9.94744 22.6761 9.8509 22.6591 9.75486C22.6458 9.68022 22.6319 9.60607 22.618 9.53193C22.6005 9.43837 22.5831 9.34482 22.5646 9.25226C22.5502 9.17762 22.5347 9.10397 22.5198 9.02983C22.5013 8.93826 22.4823 8.8472 22.4628 8.75663C22.4469 8.68298 22.4309 8.60983 22.4145 8.53668C22.3944 8.44711 22.3739 8.35754 22.3533 8.26847C22.3363 8.19631 22.3194 8.12465 22.3024 8.053C22.2932 8.01518 22.2844 7.97636 22.2752 7.93904C25.2523 7.34638 27.5802 7.50711 28.8718 8.39536C28.8724 8.40183 28.8734 8.4078 28.8739 8.41427L28.877 8.41576ZM28.548 7.37076C28.6005 7.45884 28.6467 7.5509 28.6868 7.64594C27.2111 6.93285 24.932 6.84378 22.1385 7.40211C22.1338 7.38469 22.1292 7.36777 22.1241 7.35085C22.1097 7.29811 22.0953 7.24486 22.0804 7.19261C22.0721 7.16375 22.0639 7.13489 22.0557 7.10602C22.0418 7.05676 22.0279 7.00799 22.0135 6.95923C22.0053 6.93036 21.9966 6.9015 21.9884 6.87264C21.9735 6.82188 21.9586 6.77162 21.9431 6.72087C21.9354 6.69549 21.9277 6.67011 21.9205 6.64523C21.8989 6.57506 21.8773 6.5054 21.8558 6.43623C21.8542 6.43175 21.8527 6.42677 21.8516 6.42229C21.8285 6.34914 21.8049 6.27649 21.7812 6.20434C21.7735 6.18045 21.7658 6.15706 21.7576 6.13367C21.7463 6.09884 21.7344 6.06401 21.7231 6.02967C25.1988 5.42805 27.6768 5.91223 28.5475 7.37175L28.548 7.37076ZM16.3544 0.554847C18.1488 0.554847 19.8702 2.50453 21.076 5.90427C21.2852 6.49296 21.4785 7.12941 21.6512 7.79523C21.7334 8.1147 21.811 8.44015 21.8835 8.77106C22.1004 9.76481 22.2716 10.8098 22.3939 11.8902C22.4828 12.6719 22.5461 13.4786 22.5836 14.2937C22.5887 14.4101 22.5939 14.5265 22.598 14.6435C22.6139 15.0884 22.6221 15.5447 22.6221 16C22.6221 16.1085 22.6216 16.2175 22.6206 16.3259C22.6206 16.3633 22.6196 16.4001 22.619 16.4374C22.618 16.5086 22.6175 16.5797 22.616 16.6509C22.6154 16.6952 22.6144 16.739 22.6134 16.7833C22.6118 16.8469 22.6108 16.9111 22.6093 16.9748C22.6082 17.0211 22.6067 17.0669 22.6052 17.1127C22.6041 17.152 22.6026 17.1908 22.6016 17.2296C22.5841 17.2431 22.5666 17.2565 22.5491 17.2699C22.4489 17.3476 22.3476 17.4247 22.2454 17.5018C22.2263 17.5163 22.2078 17.5307 22.1888 17.5446C22.0706 17.6332 21.9514 17.7218 21.8306 17.8098C21.8008 17.8317 21.7704 17.8536 21.7401 17.8755C21.6363 17.9507 21.5319 18.0258 21.4271 18.1005C21.4045 18.1164 21.3818 18.1328 21.3592 18.1487C21.2364 18.2358 21.112 18.3219 20.9876 18.408C20.9763 18.4159 20.965 18.4234 20.9537 18.4314C20.9547 18.4135 20.9557 18.395 20.9568 18.3771C20.9676 18.2035 20.9778 18.0288 20.9861 17.8536C20.9876 17.8268 20.9886 17.7994 20.9897 17.772C20.9974 17.6093 21.0035 17.4466 21.0092 17.2829C21.0102 17.253 21.0112 17.2227 21.0123 17.1928C21.0179 17.0161 21.022 16.8385 21.0251 16.6608C21.0256 16.6225 21.0262 16.5847 21.0267 16.5464C21.0292 16.3643 21.0308 16.1816 21.0308 15.999C21.0308 15.7447 21.0282 15.4909 21.0231 15.2371C21.0118 14.6733 20.9881 14.113 20.9521 13.5602L20.9573 13.5636L20.911 12.9854C20.911 12.9824 20.911 12.9799 20.9105 12.977L20.9002 12.853C20.8843 12.6644 20.8668 12.4768 20.8483 12.2902C20.7995 11.8046 20.7414 11.3244 20.6736 10.8526L20.6802 10.8566L20.5831 10.257C20.5831 10.257 20.5821 10.252 20.5821 10.2495L20.563 10.1316C20.5404 9.99621 20.5173 9.86135 20.4931 9.72749C20.3986 9.20101 20.2916 8.68498 20.1734 8.18686L20.1046 7.89625H20.103C19.9565 7.30806 19.7936 6.73828 19.6163 6.19836L19.532 5.94159H19.5304C19.5278 5.93512 19.5258 5.92865 19.5232 5.92169C19.5129 5.89183 19.5027 5.86247 19.4924 5.83311C19.4708 5.7719 19.4497 5.7107 19.4281 5.65048C19.4158 5.61615 19.4029 5.58181 19.3906 5.54748C19.3706 5.49224 19.35 5.4375 19.33 5.38276C19.3166 5.34793 19.3037 5.3131 19.2904 5.27826C19.2698 5.22502 19.2493 5.17177 19.2287 5.11903C19.2153 5.08519 19.202 5.05135 19.1886 5.01751C19.167 4.96327 19.1449 4.90953 19.1228 4.85578C19.1105 4.82543 19.0976 4.79458 19.0853 4.76422C19.0596 4.70252 19.0334 4.64131 19.0072 4.5806C18.9979 4.5597 18.9892 4.5383 18.9804 4.5174C18.945 4.43629 18.909 4.35567 18.873 4.27606C18.8658 4.26013 18.8581 4.24421 18.8509 4.22828C18.8221 4.16558 18.7928 4.10338 18.7635 4.04168C18.7507 4.0148 18.7378 3.98843 18.725 3.96206C18.7008 3.9118 18.6761 3.86154 18.6515 3.81227C18.6371 3.78341 18.6227 3.75505 18.6083 3.72668C18.5847 3.67991 18.561 3.63363 18.5369 3.58785C18.5219 3.55948 18.507 3.53112 18.4921 3.50275C18.468 3.45697 18.4433 3.41169 18.4186 3.3669C18.4042 3.34053 18.3899 3.31366 18.3749 3.28728C18.3482 3.23901 18.3215 3.19174 18.2942 3.14496C18.2819 3.12307 18.2691 3.10068 18.2567 3.07928C18.2202 3.01658 18.1832 2.95437 18.1462 2.89317C18.1431 2.88819 18.14 2.88272 18.137 2.87724C18.0964 2.81056 18.0552 2.74488 18.0141 2.68019C18.0028 2.66277 17.9915 2.64585 17.9807 2.62843C17.9509 2.58215 17.9206 2.53637 17.8902 2.49109C17.8753 2.46919 17.8604 2.4473 17.8455 2.4259C17.8183 2.38609 17.791 2.34678 17.7638 2.30797C17.7479 2.28507 17.7319 2.26268 17.716 2.24079C17.6893 2.20346 17.662 2.16614 17.6353 2.12982C17.6194 2.10792 17.6029 2.08652 17.587 2.06513C17.5587 2.0278 17.531 1.99148 17.5027 1.95515C17.4873 1.93574 17.4724 1.91634 17.4569 1.89693C17.4251 1.85662 17.3927 1.81681 17.3603 1.778C17.349 1.76407 17.3377 1.75013 17.3259 1.7362C17.2817 1.68345 17.2369 1.6317 17.1922 1.58094C17.1876 1.57597 17.183 1.57099 17.1784 1.56551C17.1383 1.52073 17.0982 1.47694 17.0581 1.43414C17.0437 1.41872 17.0293 1.40429 17.0149 1.38936C16.9841 1.35701 16.9532 1.32516 16.9224 1.29431C16.9054 1.27739 16.889 1.26097 16.872 1.24455C16.8432 1.21619 16.8139 1.18782 16.7846 1.16045C16.7672 1.14403 16.7492 1.12711 16.7317 1.11119C16.7024 1.08432 16.6736 1.05794 16.6443 1.03256C16.6268 1.01714 16.6094 1.00171 16.5919 0.986782C16.561 0.95991 16.5297 0.934034 16.4983 0.908656C16.4824 0.895717 16.467 0.882282 16.451 0.869841C16.4125 0.838989 16.3734 0.809131 16.3349 0.779274C16.3267 0.772805 16.3179 0.766336 16.3097 0.759867C16.2624 0.724536 16.2146 0.6902 16.1668 0.657357C16.1545 0.648897 16.1416 0.640438 16.1288 0.631978C16.0995 0.612571 16.0707 0.592666 16.0414 0.573757C16.1462 0.560321 16.2516 0.553852 16.3565 0.553852L16.3544 0.554847ZM14.5703 1.21021C14.595 1.1918 14.6197 1.17389 14.6443 1.15647C14.6649 1.14204 14.6849 1.12761 14.7055 1.11368C14.7302 1.09676 14.7554 1.07984 14.78 1.06391C14.8006 1.05048 14.8206 1.03754 14.8412 1.0246C14.8664 1.00868 14.8916 0.993749 14.9168 0.97882C14.9373 0.966877 14.9574 0.954437 14.9779 0.942991C15.0036 0.92856 15.0293 0.914627 15.055 0.900694C15.0751 0.889746 15.0956 0.878798 15.1157 0.868846C15.1419 0.85541 15.1681 0.84297 15.1948 0.830529C15.2149 0.821074 15.2344 0.81162 15.2544 0.802165C15.2606 0.799677 15.2668 0.797188 15.2724 0.794203C15.2781 0.796691 15.2837 0.799179 15.2894 0.801667C15.312 0.811619 15.3346 0.823065 15.3572 0.833515C15.3814 0.84496 15.4061 0.856903 15.4302 0.868846C15.4529 0.880291 15.475 0.892732 15.4976 0.904675C15.5217 0.917613 15.5459 0.930551 15.57 0.944484C15.5921 0.956925 15.6148 0.970361 15.6369 0.983796C15.661 0.998227 15.6852 1.01266 15.7088 1.02759C15.7309 1.04152 15.753 1.05595 15.7751 1.07038C15.7988 1.08631 15.8229 1.10173 15.8466 1.11815C15.8687 1.13308 15.8903 1.14901 15.9124 1.16493C15.936 1.18185 15.9597 1.19927 15.9833 1.21668C16.0049 1.2331 16.027 1.25002 16.0486 1.26694C16.0722 1.28535 16.0954 1.30377 16.119 1.32268C16.1406 1.34009 16.1622 1.3585 16.1838 1.37642C16.2069 1.39583 16.2305 1.41573 16.2537 1.43613C16.2753 1.45504 16.2963 1.47395 16.3179 1.49336C16.341 1.51426 16.3642 1.53566 16.3873 1.55706C16.4084 1.57696 16.4295 1.59736 16.451 1.61776C16.4742 1.64016 16.4968 1.66255 16.5194 1.68544C16.5405 1.70634 16.5616 1.72824 16.5826 1.74963C16.6052 1.77302 16.6279 1.79691 16.6505 1.82129C16.671 1.84368 16.6921 1.86608 16.7127 1.88897C16.7353 1.91385 16.7574 1.93873 16.78 1.96411C16.8006 1.9875 16.8211 2.01138 16.8417 2.03527C16.8638 2.06115 16.8859 2.08752 16.9085 2.11439C16.9291 2.13877 16.9491 2.16366 16.9697 2.18854C16.9918 2.21591 17.0139 2.24327 17.0355 2.27114C17.0555 2.29652 17.0756 2.3224 17.0956 2.34877C17.1172 2.37713 17.1393 2.40649 17.1609 2.43536C17.1809 2.46223 17.2005 2.4886 17.2205 2.51597C17.2421 2.54583 17.2637 2.57569 17.2847 2.60654C17.3043 2.6344 17.3238 2.66227 17.3433 2.69064C17.3644 2.72149 17.386 2.75334 17.4071 2.78469C17.4266 2.81355 17.4456 2.84241 17.4646 2.87177C17.4857 2.90411 17.5068 2.93696 17.5279 2.9698C17.5469 2.99966 17.5659 3.02952 17.5849 3.05987C17.6055 3.09321 17.6266 3.12705 17.6471 3.16138C17.6661 3.19224 17.6846 3.22309 17.7031 3.25494C17.7237 3.28977 17.7443 3.3246 17.7643 3.35994C17.7828 3.39178 17.8013 3.42363 17.8198 3.45598C17.8404 3.4918 17.8604 3.52863 17.8805 3.56545C17.8985 3.5983 17.9165 3.63064 17.9344 3.66398C17.9545 3.7013 17.9745 3.73912 17.9946 3.77694C18.0126 3.81078 18.03 3.84412 18.048 3.87846C18.0681 3.91677 18.0876 3.95609 18.1071 3.9949C18.1246 4.02973 18.1421 4.06407 18.1596 4.0989C18.1791 4.13871 18.1986 4.17952 18.2182 4.21982C18.2351 4.25516 18.2521 4.29049 18.2691 4.32582C18.2886 4.36712 18.3076 4.40942 18.3271 4.45122C18.3436 4.48754 18.3606 4.52287 18.377 4.5597C18.396 4.60249 18.415 4.64628 18.4341 4.68958C18.45 4.7264 18.4664 4.76273 18.4824 4.79955C18.5014 4.84384 18.5204 4.88912 18.5389 4.93391C18.5543 4.97123 18.5703 5.00806 18.5857 5.04587C18.6047 5.09215 18.6237 5.13943 18.6422 5.1867C18.6571 5.22402 18.672 5.26085 18.6869 5.29817C18.706 5.34694 18.725 5.3967 18.744 5.44646C18.7579 5.48328 18.7723 5.51961 18.7861 5.55693C18.8057 5.60918 18.8252 5.66243 18.8447 5.71567C18.8576 5.751 18.871 5.78584 18.8833 5.82117C18.9049 5.88188 18.9265 5.94308 18.9481 6.00479C18.9583 6.03365 18.9686 6.06251 18.9784 6.09138C18.9789 6.09337 18.9799 6.09585 18.9804 6.09784C17.7756 6.44419 16.5307 6.88807 15.274 7.41853C15.1594 7.37026 15.0447 7.32249 14.9306 7.27571C14.9173 7.27024 14.9039 7.26477 14.8905 7.25929C14.7451 7.20008 14.6001 7.14185 14.4552 7.08463C14.4351 7.07666 14.4151 7.0687 14.395 7.06124C14.2537 7.006 14.1129 6.95176 13.9725 6.89901C13.9499 6.89055 13.9268 6.8816 13.9042 6.87314C13.7649 6.82089 13.6256 6.77013 13.4868 6.71987C13.4642 6.71191 13.4416 6.70345 13.419 6.69549C13.2791 6.64573 13.1404 6.59696 13.0011 6.54968C12.981 6.54272 12.9615 6.53625 12.9414 6.52928C12.7996 6.48101 12.6577 6.43374 12.5164 6.38796C12.503 6.38348 12.4896 6.3795 12.4763 6.37502C12.3288 6.32775 12.1823 6.28097 12.0358 6.23668C12.0342 6.23668 12.0327 6.23569 12.0317 6.23519C11.8862 6.1909 11.7413 6.1481 11.5968 6.1063C11.5871 6.10332 11.5773 6.10033 11.5675 6.09735C11.568 6.09585 11.5686 6.09436 11.5691 6.09287C11.5778 6.06699 11.5871 6.04112 11.5963 6.01524C11.6184 5.95204 11.64 5.88884 11.6626 5.82664C11.675 5.79181 11.6878 5.75747 11.7007 5.72264C11.7197 5.67039 11.7387 5.61764 11.7582 5.56589C11.7721 5.52857 11.7865 5.49224 11.8004 5.45542C11.8189 5.40715 11.8374 5.35888 11.8559 5.3116C11.8708 5.27329 11.8862 5.23597 11.9011 5.19815C11.9191 5.15286 11.9376 5.10758 11.9556 5.06279C11.971 5.02448 11.987 4.98716 12.0029 4.94934C12.0209 4.90604 12.0394 4.86275 12.0574 4.81995C12.0733 4.78214 12.0898 4.74531 12.1062 4.70799C12.1247 4.66619 12.1427 4.62439 12.1612 4.58309C12.1776 4.54626 12.1946 4.50944 12.2111 4.47262C12.2296 4.43231 12.2481 4.392 12.2666 4.35219C12.2835 4.31586 12.3005 4.28004 12.318 4.24421C12.3365 4.2049 12.3555 4.16608 12.3745 4.12776C12.392 4.09243 12.4095 4.0571 12.4269 4.02227C12.446 3.98445 12.465 3.94663 12.484 3.90931C12.5015 3.87497 12.5195 3.84064 12.5369 3.8068C12.5565 3.76997 12.5755 3.73315 12.595 3.69682C12.613 3.66348 12.631 3.63014 12.649 3.5973C12.6685 3.56147 12.6886 3.52614 12.7081 3.49081C12.7261 3.45846 12.7441 3.42612 12.7626 3.39427C12.7826 3.35944 12.8027 3.3251 12.8232 3.29077C12.8417 3.25991 12.8597 3.22856 12.8782 3.19821C12.8988 3.16387 12.9199 3.13053 12.9404 3.09669C12.9584 3.06733 12.9769 3.03748 12.9949 3.00812C13.0165 2.97428 13.0376 2.94144 13.0592 2.9081C13.0771 2.88023 13.0951 2.85236 13.1131 2.8245C13.1357 2.79066 13.1584 2.75732 13.181 2.72398C13.1984 2.6986 13.2154 2.67272 13.2329 2.64734C13.2581 2.61102 13.2833 2.57618 13.309 2.54085C13.3244 2.51945 13.3393 2.49806 13.3547 2.47716C13.3938 2.42391 13.4333 2.37166 13.4724 2.32041C13.4822 2.30797 13.4919 2.29602 13.5017 2.28358C13.5346 2.24128 13.568 2.19899 13.6014 2.15818C13.6174 2.13877 13.6333 2.12036 13.6492 2.10145C13.6754 2.0701 13.7011 2.03875 13.7274 2.0084C13.7448 1.988 13.7628 1.96809 13.7808 1.94819C13.8055 1.92032 13.8302 1.89245 13.8548 1.86558C13.8733 1.84518 13.8923 1.82577 13.9109 1.80587C13.935 1.77999 13.9592 1.75461 13.9833 1.72973C14.0023 1.71032 14.0219 1.69141 14.0409 1.67201C14.0651 1.64812 14.0892 1.62423 14.1134 1.60085C14.1329 1.58194 14.1524 1.56402 14.1725 1.54561C14.1966 1.52322 14.2203 1.50082 14.2444 1.47943C14.2645 1.46151 14.2845 1.4441 14.3041 1.42668C14.3282 1.40578 14.3524 1.38488 14.3765 1.36448C14.3966 1.34756 14.4166 1.33114 14.4367 1.31521C14.4608 1.2958 14.4855 1.2764 14.5097 1.25749C14.5297 1.24206 14.5503 1.22664 14.5703 1.21121V1.21021ZM1.99736 7.37026C2.6229 6.32078 4.07957 5.77588 6.14071 5.77588C6.94615 5.77588 7.84462 5.85948 8.82174 6.02818C8.81711 6.04161 8.813 6.05555 8.80837 6.06898C8.76982 6.18443 8.73127 6.30087 8.69427 6.41881C8.69375 6.4208 8.69324 6.42279 8.69221 6.42478C8.65418 6.54421 8.61768 6.66563 8.58119 6.78755C8.57451 6.81044 8.56731 6.83283 8.56063 6.85572C8.52568 6.97416 8.49175 7.09309 8.45834 7.21301C8.45217 7.2359 8.44549 7.25929 8.43932 7.28218C8.42853 7.32199 8.41722 7.3613 8.40643 7.40161C5.61335 6.84328 3.33427 6.93186 1.85858 7.64545C1.89919 7.5504 1.94493 7.45884 1.99736 7.37026ZM1.67046 8.39785C2.45071 7.86042 3.60824 7.58822 5.06029 7.58822C6.0117 7.58822 7.08904 7.70466 8.26765 7.93954C8.25891 7.97487 8.25068 8.0112 8.24195 8.04703C8.23372 8.07987 8.2255 8.11221 8.21779 8.14555C8.20905 8.18188 8.20083 8.2192 8.1926 8.25603C8.17256 8.34211 8.15251 8.4287 8.13298 8.51578C8.12373 8.55709 8.11396 8.59789 8.10471 8.63969C8.09751 8.67204 8.09083 8.70538 8.08415 8.73822C8.06565 8.82282 8.04817 8.90791 8.03069 8.9935C8.02041 9.04326 8.00962 9.09253 7.99985 9.14279C7.9942 9.17065 7.98906 9.19902 7.9834 9.22688C7.96696 9.31098 7.95102 9.39608 7.93458 9.48067C7.92378 9.5384 7.91247 9.59562 7.90168 9.65384C7.89757 9.67673 7.89345 9.69962 7.88934 9.72202C7.87392 9.80711 7.85953 9.8927 7.84463 9.97829C7.83332 10.043 7.82201 10.1077 7.81122 10.1729C7.80813 10.1903 7.80556 10.2072 7.80248 10.2241C7.78809 10.3122 7.77472 10.4008 7.76084 10.4893C7.75056 10.5555 7.73977 10.6217 7.73 10.6884C7.72743 10.7043 7.72486 10.7202 7.72281 10.7362C7.72024 10.7551 7.71767 10.774 7.7151 10.7929C7.70379 10.8705 7.693 10.9492 7.6822 11.0273C7.67449 11.083 7.66627 11.1387 7.65907 11.195C7.6565 11.2139 7.65393 11.2333 7.65187 11.2522C7.64468 11.3089 7.63748 11.3662 7.6308 11.4234C7.61898 11.5179 7.60664 11.6125 7.59534 11.708C7.57221 11.7244 7.54908 11.7414 7.52595 11.7578C7.49202 11.7822 7.45758 11.807 7.42366 11.8314C7.38254 11.8613 7.34193 11.8906 7.30133 11.9205C7.26895 11.9439 7.23656 11.9678 7.20469 11.9912C7.19493 11.9986 7.18465 12.0056 7.17488 12.0131C7.1425 12.0369 7.11063 12.0608 7.07877 12.0842C7.04536 12.1091 7.01194 12.134 6.97853 12.1589C6.93844 12.1887 6.89886 12.2186 6.85929 12.2489C6.83564 12.2668 6.81149 12.2848 6.78784 12.3027C6.78219 12.3072 6.77705 12.3111 6.77139 12.3156C6.76728 12.3186 6.76368 12.3216 6.75957 12.3246C6.72051 12.3544 6.68144 12.3843 6.64238 12.4141C6.60948 12.4395 6.57659 12.4649 6.54369 12.4903C6.50514 12.5201 6.46659 12.5505 6.42804 12.5804C6.42496 12.5828 6.42136 12.5853 6.41827 12.5878C6.40542 12.5978 6.39257 12.6077 6.37972 12.6182C6.36328 12.6311 6.34683 12.644 6.33038 12.657C6.29234 12.6868 6.25431 12.7172 6.21627 12.7471C6.18389 12.7729 6.15099 12.7988 6.11861 12.8247C6.08931 12.8481 6.06053 12.8715 6.03175 12.8943C6.01581 12.9073 5.99988 12.9202 5.98394 12.9332C5.95927 12.9531 5.93511 12.9725 5.91096 12.9924C5.87395 13.0227 5.83694 13.0526 5.80045 13.0829C5.76909 13.1088 5.73722 13.1347 5.70587 13.1606C5.68685 13.176 5.66835 13.1919 5.64933 13.2074C5.63391 13.2203 5.619 13.2327 5.60358 13.2457C5.60153 13.2477 5.59896 13.2492 5.5969 13.2511C5.56555 13.2775 5.53419 13.3034 5.50284 13.3298C5.46686 13.3601 5.43088 13.3905 5.39541 13.4208C5.36457 13.4467 5.33373 13.4731 5.30341 13.499C5.29364 13.5074 5.28388 13.5159 5.27411 13.5238C5.26486 13.5318 5.25612 13.5398 5.24687 13.5477C5.22991 13.5622 5.21294 13.5771 5.19598 13.5915C5.16617 13.6174 5.13584 13.6433 5.10603 13.6691C5.07005 13.7005 5.03459 13.7318 4.99861 13.7632C4.97034 13.7881 4.94155 13.8135 4.91328 13.8383C4.91123 13.8403 4.90917 13.8418 4.90711 13.8438C4.87165 13.8752 4.8367 13.907 4.80123 13.9384C4.7745 13.9622 4.74726 13.9861 4.72105 14.0105C4.68095 14.0468 4.64138 14.0832 4.6018 14.119C4.59614 14.1245 4.58998 14.1294 4.58432 14.1349C4.57713 14.1414 4.56942 14.1479 4.56222 14.1548C2.54323 11.9553 1.52397 9.92405 1.672 8.39635L1.67046 8.39785ZM7.35118 16.3458C7.35118 16.3523 7.35118 16.3588 7.35118 16.3653C7.35118 16.4051 7.35221 16.4449 7.35273 16.4847C7.35376 16.5673 7.35478 16.6499 7.35633 16.732C7.35633 16.7429 7.35633 16.7539 7.35633 16.7648C7.04433 16.5111 6.74158 16.2553 6.45117 15.9995C6.45631 15.995 6.46145 15.9905 6.46659 15.9856C6.48047 15.9736 6.49383 15.9617 6.50771 15.9497C6.5221 15.9373 6.53649 15.9249 6.55089 15.9124C6.61102 15.8597 6.67168 15.8074 6.73336 15.7547C6.76368 15.7288 6.79401 15.7024 6.82485 15.6765C6.88447 15.6258 6.94513 15.575 7.00526 15.5243C7.02737 15.5054 7.04998 15.487 7.07208 15.468C7.08391 15.4581 7.09573 15.4486 7.10755 15.4387C7.17591 15.382 7.24427 15.3257 7.31315 15.2695C7.32754 15.258 7.34142 15.2461 7.35581 15.2347C7.35581 15.2456 7.35581 15.2566 7.35581 15.2675C7.35427 15.3501 7.35324 15.4327 7.35221 15.5153C7.35221 15.5551 7.35119 15.5949 7.35067 15.6347C7.34964 15.7567 7.34913 15.8786 7.34913 16.0005C7.34913 16.1159 7.34913 16.2314 7.35067 16.3468L7.35118 16.3458ZM7.37946 17.5018C7.38408 17.6212 7.38973 17.7412 7.39539 17.8601C7.39744 17.8989 7.39899 17.9377 7.40104 17.9766C7.40927 18.1358 7.41852 18.2945 7.4288 18.4528C7.42983 18.4702 7.43137 18.4871 7.4324 18.5045C7.44216 18.6498 7.45244 18.7946 7.46375 18.9394C7.46683 18.9768 7.4694 19.0141 7.47249 19.0514C7.48534 19.2072 7.4987 19.3624 7.5131 19.5167C7.51361 19.5242 7.51412 19.5316 7.51515 19.5391C6.58789 18.8549 5.72643 18.1487 4.94618 17.4327C4.99706 17.3804 5.04795 17.3277 5.09935 17.2754C5.10809 17.2664 5.11734 17.2575 5.12608 17.2485C5.17234 17.2013 5.21963 17.1545 5.2664 17.1072C5.28593 17.0878 5.30546 17.0684 5.325 17.0495C5.36252 17.0127 5.40004 16.9753 5.43756 16.9385C5.45966 16.9171 5.48177 16.8957 5.50387 16.8743C5.53985 16.8395 5.57634 16.8042 5.61284 16.7693C5.63545 16.7474 5.65807 16.726 5.68068 16.7041C5.71821 16.6683 5.75573 16.633 5.79376 16.5971C5.81535 16.5767 5.83694 16.5563 5.85853 16.5359C5.90119 16.4961 5.94437 16.4558 5.98806 16.416C6.00193 16.4031 6.01581 16.3906 6.02969 16.3777C6.45631 16.7544 6.90915 17.1316 7.37843 17.5013L7.37946 17.5018ZM0.91539 9.18459C0.967818 9.09651 1.02693 9.01191 1.09169 8.9308C1.19192 10.5247 2.2523 12.4798 4.14794 14.542C4.1356 14.5539 4.12378 14.5654 4.11144 14.5773C4.07032 14.6166 4.02972 14.6559 3.98962 14.6952C3.96855 14.7156 3.94748 14.736 3.92692 14.7569C3.88939 14.7938 3.85187 14.8306 3.81435 14.8679C3.79328 14.8888 3.7722 14.9097 3.75113 14.9306C3.71258 14.9689 3.67454 15.0072 3.63651 15.0461C3.618 15.0645 3.5995 15.0834 3.58151 15.1018C3.53011 15.154 3.47922 15.2068 3.42834 15.259C3.42422 15.2635 3.42011 15.2675 3.416 15.272C3.36152 15.3282 3.30806 15.3849 3.25512 15.4412C3.23816 15.4591 3.22171 15.4765 3.20526 15.4944C3.17905 15.5223 3.15283 15.5502 3.12662 15.578C0.85114 12.9645 0.0451883 10.6446 0.91539 9.18459ZM1.59644 21.1509C1.58616 21.1743 1.57588 21.1977 1.5656 21.221C1.54607 21.2663 1.52808 21.3116 1.50957 21.3564C1.50238 21.3748 1.49467 21.3932 1.48747 21.4111C1.4628 21.4738 1.43864 21.5365 1.41654 21.5987C1.41294 21.6092 1.40934 21.6196 1.40575 21.6301C1.38724 21.6813 1.36977 21.7326 1.3528 21.7838C1.34561 21.8057 1.33893 21.8276 1.33173 21.85C1.31939 21.8893 1.30706 21.9287 1.29524 21.9675C1.28804 21.9919 1.28136 22.0162 1.27416 22.0406C1.26388 22.0769 1.25412 22.1133 1.24435 22.1491C1.23767 22.174 1.2315 22.1989 1.22533 22.2237C1.21659 22.2591 1.20837 22.2944 1.20015 22.3297C1.19449 22.3541 1.18884 22.3785 1.1837 22.4029C1.17599 22.4392 1.16879 22.4755 1.16211 22.5114C1.158 22.5338 1.15337 22.5562 1.14926 22.5785C1.14155 22.6213 1.13538 22.6641 1.12921 22.7064C1.12716 22.7214 1.12407 22.7368 1.12253 22.7517C1.11482 22.808 1.10814 22.8642 1.103 22.9199C1.10094 22.9383 1.09992 22.9567 1.09837 22.9752C1.0958 23.0065 1.09272 23.0374 1.09066 23.0682C1.02641 22.9871 0.967818 22.902 0.91539 22.8144C0.0184602 21.3096 0.901512 18.8917 3.3389 16.1811C3.76398 15.7084 4.23686 15.2282 4.74366 14.753C4.83824 14.6644 4.93487 14.5758 5.03202 14.4877C5.04744 14.4738 5.06286 14.4594 5.07879 14.4454C5.17234 14.3608 5.26691 14.2762 5.36303 14.1916C5.38102 14.1762 5.3985 14.1603 5.41649 14.1449C5.51415 14.0593 5.61284 13.9737 5.71307 13.8881C5.72283 13.8796 5.7326 13.8712 5.74288 13.8632C5.84054 13.7801 5.93923 13.697 6.03946 13.6144C6.05179 13.6045 6.06361 13.594 6.07595 13.5841C6.17772 13.5 6.28052 13.4164 6.38435 13.3323C6.4044 13.3163 6.42444 13.2999 6.44449 13.284C6.54729 13.2014 6.65112 13.1193 6.75546 13.0377C6.77345 13.0237 6.79144 13.0098 6.80943 12.9954C6.91429 12.9133 7.02068 12.8316 7.1276 12.7505C7.13376 12.7461 7.13942 12.7416 7.14558 12.7371C7.25455 12.6545 7.36506 12.5719 7.47609 12.4898C7.48945 12.4798 7.5023 12.4704 7.51567 12.4604C7.51515 12.4679 7.51412 12.4759 7.51361 12.4833C7.49973 12.6291 7.48688 12.7759 7.47506 12.9232C7.47197 12.961 7.46889 12.9993 7.46581 13.0372C7.45656 13.1571 7.4473 13.2775 7.43908 13.3984C7.43651 13.4353 7.43394 13.4716 7.43137 13.5084C7.4216 13.6567 7.41287 13.806 7.40464 13.9548C7.4031 13.9876 7.40156 14.02 7.3995 14.0528C7.39333 14.1762 7.38768 14.2996 7.38254 14.423C7.38151 14.4479 7.37997 14.4723 7.37894 14.4972C7.35735 14.5141 7.33577 14.5315 7.31418 14.5484C7.29773 14.5614 7.28077 14.5748 7.26432 14.5878C7.25096 14.5982 7.2381 14.6087 7.22525 14.6191C7.18568 14.651 7.1461 14.6828 7.10652 14.7146C7.07671 14.7385 7.0469 14.7624 7.0176 14.7868C6.97802 14.8186 6.93896 14.8505 6.89989 14.8828C6.87059 14.9067 6.8413 14.9306 6.81251 14.9545C6.77293 14.9873 6.73387 15.0197 6.69481 15.0525C6.66705 15.0759 6.63878 15.0993 6.61102 15.1222C6.57093 15.156 6.53084 15.1899 6.49075 15.2237C6.46967 15.2411 6.4486 15.259 6.42804 15.2765C6.42393 15.2799 6.41982 15.2839 6.41519 15.2874C6.41416 15.2884 6.41313 15.2894 6.41211 15.2904C6.36996 15.3262 6.32884 15.362 6.2872 15.3979C6.26356 15.4183 6.23992 15.4387 6.21679 15.4586C6.17104 15.4984 6.12581 15.5382 6.08058 15.578C6.06207 15.5944 6.04305 15.6109 6.02404 15.6273C5.9603 15.6835 5.89708 15.7397 5.83488 15.796C5.83488 15.796 5.83437 15.796 5.83386 15.7965L5.60872 15.999L5.60975 16C5.5527 16.0527 5.49564 16.105 5.4391 16.1577C5.05001 16.5215 4.67941 16.8902 4.33349 17.257L4.14588 17.456L4.14691 17.457C4.14177 17.4625 4.13714 17.468 4.132 17.4735C4.11093 17.4968 4.08985 17.5197 4.06878 17.5426C4.02406 17.5914 3.97986 17.6407 3.93617 17.6894C3.91201 17.7168 3.88837 17.7437 3.86421 17.7705C3.82463 17.8153 3.78505 17.8606 3.74599 17.9054C3.72183 17.9338 3.69716 17.9616 3.67351 17.99C3.63548 18.0343 3.59796 18.0786 3.56043 18.1229C3.54656 18.1393 3.53268 18.1557 3.5188 18.1716C3.50955 18.1826 3.50081 18.194 3.49156 18.205C3.45301 18.2512 3.41497 18.2975 3.37745 18.3433C3.35689 18.3682 3.33684 18.3931 3.3168 18.4179C3.27311 18.4722 3.23045 18.5259 3.1883 18.5797C3.17545 18.5961 3.16157 18.613 3.14872 18.6294C3.09321 18.7001 3.03924 18.7708 2.98578 18.8414C2.97602 18.8544 2.96676 18.8668 2.95751 18.8797C2.91485 18.937 2.87219 18.9942 2.83055 19.0509C2.81359 19.0738 2.79766 19.0967 2.7807 19.1201C2.74729 19.1669 2.71388 19.2131 2.68098 19.2599C2.66299 19.2853 2.64551 19.3112 2.62752 19.3365C2.5972 19.3808 2.56687 19.4246 2.53706 19.4684C2.51958 19.4943 2.50211 19.5202 2.48515 19.546C2.45585 19.5903 2.42706 19.6341 2.39828 19.6779C2.38235 19.7028 2.3659 19.7277 2.35048 19.7521C2.32015 19.7993 2.29085 19.8461 2.26207 19.8929C2.24922 19.9138 2.23586 19.9347 2.22301 19.9556C2.18394 20.0193 2.14642 20.0825 2.10941 20.1457C2.10736 20.1497 2.10479 20.1536 2.10273 20.1571C2.06315 20.2248 2.02512 20.292 1.98811 20.3587C1.97783 20.3771 1.96806 20.395 1.9583 20.4134C1.93208 20.4612 1.90587 20.5094 1.8812 20.5567C1.86886 20.5806 1.85652 20.604 1.8447 20.6274C1.82311 20.6697 1.80153 20.712 1.78045 20.7538C1.76812 20.7792 1.75578 20.804 1.74344 20.8289C1.72391 20.8697 1.70438 20.91 1.68536 20.9503C1.67354 20.9752 1.66223 21.0006 1.65041 21.0255C1.63191 21.0668 1.6134 21.1076 1.59593 21.1484L1.59644 21.1509ZM1.6684 23.5852C1.66634 23.5609 1.6648 23.5355 1.66326 23.5106C1.66172 23.4852 1.65966 23.4593 1.65863 23.4335C1.65761 23.4081 1.65709 23.3827 1.65709 23.3573C1.65709 23.3314 1.65606 23.3051 1.65658 23.2792C1.65658 23.2533 1.65761 23.2269 1.65863 23.2011C1.65966 23.1747 1.66018 23.1483 1.66172 23.1215C1.66326 23.0951 1.66532 23.0682 1.66737 23.0418C1.66943 23.015 1.67148 22.9881 1.67405 22.9607C1.67662 22.9338 1.67971 22.9065 1.68331 22.8796C1.68639 22.8522 1.68999 22.8249 1.69359 22.797C1.69718 22.7696 1.70181 22.7418 1.70644 22.7144C1.71106 22.6865 1.71569 22.6587 1.72031 22.6308C1.72545 22.6029 1.73111 22.5746 1.73676 22.5467C1.74242 22.5183 1.74807 22.49 1.75475 22.4616C1.76092 22.4332 1.7676 22.4044 1.7748 22.3755C1.78148 22.3467 1.78868 22.3183 1.79639 22.2894C1.8041 22.2606 1.81181 22.2312 1.82003 22.2023C1.82825 22.173 1.83648 22.1441 1.84522 22.1148C1.85395 22.0854 1.86269 22.056 1.87194 22.0262C1.8812 21.9968 1.89096 21.967 1.90073 21.9371C1.91049 21.9073 1.92077 21.8774 1.93105 21.8475C1.94133 21.8177 1.95213 21.7873 1.96344 21.7575C1.97474 21.7271 1.98605 21.6968 1.99736 21.6664C2.00918 21.6361 2.021 21.6057 2.03334 21.5753C2.04568 21.5445 2.05801 21.5141 2.07086 21.4833C2.08371 21.4524 2.09708 21.4216 2.11044 21.3907C2.1238 21.3599 2.13768 21.3285 2.15156 21.2977C2.16544 21.2668 2.17983 21.2355 2.19422 21.2041C2.20861 21.1728 2.22352 21.1414 2.23894 21.1096C2.25385 21.0782 2.26978 21.0464 2.2852 21.015C2.30113 20.9832 2.31655 20.9513 2.333 20.9195C2.34945 20.8876 2.3659 20.8553 2.38286 20.8234C2.39982 20.7916 2.41678 20.7592 2.43426 20.7269C2.45174 20.6946 2.46973 20.6622 2.48772 20.6299C2.50571 20.5975 2.5237 20.5652 2.5422 20.5323C2.5607 20.4995 2.58024 20.4666 2.59925 20.4343C2.61827 20.4015 2.63729 20.3691 2.65734 20.3363C2.67738 20.3029 2.69743 20.2701 2.71799 20.2367C2.73803 20.2039 2.75808 20.1711 2.77915 20.1377C2.80023 20.1044 2.82182 20.0705 2.8434 20.0372C2.86448 20.0039 2.88607 19.971 2.90765 19.9377C2.92976 19.9038 2.95289 19.87 2.9755 19.8357C2.9976 19.8023 3.02022 19.769 3.04284 19.7356C3.06597 19.7013 3.09012 19.667 3.11428 19.6326C3.13793 19.5988 3.16106 19.5655 3.18521 19.5316C3.20989 19.4973 3.23507 19.4624 3.26026 19.4276C3.28442 19.3938 3.30909 19.3604 3.33376 19.3266C3.35997 19.2913 3.3867 19.2559 3.41343 19.2206C3.43862 19.1873 3.46329 19.1534 3.48899 19.1201C3.51623 19.0843 3.5445 19.0479 3.57277 19.0121C3.59898 18.9788 3.62417 18.9454 3.6509 18.9116C3.67968 18.8748 3.70949 18.8379 3.73931 18.8016C3.76603 18.7683 3.79225 18.7354 3.81949 18.7021C3.85033 18.6648 3.88168 18.6269 3.91304 18.5891C3.94028 18.5563 3.96701 18.5239 3.99476 18.4911C4.02715 18.4523 4.06107 18.4135 4.09397 18.3746C4.12121 18.3428 4.14845 18.3105 4.17621 18.2786C4.21167 18.2378 4.24817 18.197 4.28415 18.1557C4.31087 18.1253 4.33709 18.0955 4.36433 18.0651C4.40494 18.0193 4.44708 17.9736 4.48872 17.9278C4.51236 17.9019 4.53498 17.8765 4.55862 17.8507C4.56016 17.8492 4.56171 17.8477 4.56325 17.8457C5.4756 18.6817 6.49486 19.5037 7.59842 20.294C7.61435 20.4303 7.6308 20.5667 7.64828 20.7015C7.65599 20.7612 7.66472 20.82 7.67243 20.8792C7.68785 20.9946 7.70328 21.1101 7.72024 21.2245C7.73052 21.2942 7.74131 21.3634 7.75211 21.4325C7.76753 21.5355 7.78346 21.6385 7.79991 21.7406C7.81173 21.8137 7.82406 21.8859 7.8364 21.9585C7.85285 22.056 7.8693 22.1536 7.88677 22.2501C7.90014 22.3243 7.91402 22.3974 7.92738 22.4711C7.94486 22.5651 7.96285 22.6592 7.98084 22.7527C7.99523 22.8264 8.01013 22.9 8.02555 22.9732C8.04457 23.0652 8.06359 23.1568 8.08312 23.2474C8.09906 23.3205 8.11499 23.3932 8.13092 23.4653C8.15097 23.5554 8.17153 23.6449 8.1926 23.7345C8.20957 23.8062 8.22601 23.8773 8.24349 23.948C8.25274 23.9858 8.26148 24.0241 8.27073 24.062C5.29416 24.6551 2.96625 24.4944 1.67405 23.6061C1.67354 23.6002 1.67251 23.5937 1.672 23.5877L1.6684 23.5852ZM1.99736 24.6292C1.94442 24.5407 1.89867 24.4486 1.85807 24.3536C2.69229 24.7571 3.78197 24.9617 5.07725 24.9617C6.07389 24.9617 7.19185 24.8407 8.40643 24.5979C8.41105 24.6153 8.41619 24.6327 8.42082 24.6501C8.4347 24.7014 8.44857 24.7527 8.46297 24.8039C8.47119 24.8338 8.47993 24.8641 8.48815 24.894C8.50152 24.9417 8.5154 24.9895 8.52927 25.0368C8.53801 25.0667 8.54675 25.0965 8.55497 25.1259C8.56988 25.1761 8.58479 25.2259 8.59969 25.2757C8.6074 25.301 8.61511 25.3269 8.62282 25.3523C8.64441 25.4229 8.666 25.4926 8.6881 25.5623C8.68964 25.5663 8.69067 25.5707 8.69221 25.5747C8.71586 25.6489 8.7395 25.723 8.76366 25.7962C8.77034 25.8171 8.77754 25.838 8.78422 25.8589C8.79655 25.8967 8.80889 25.9345 8.82174 25.9718C5.34607 26.5729 2.86808 26.0893 1.99736 24.6292ZM14.1905 31.4447C12.3961 31.4447 10.6752 29.495 9.46887 26.0957C9.25813 25.5021 9.06435 24.8656 8.8937 24.2038C8.56474 22.9319 8.31494 21.5539 8.15046 20.1094C8.0492 19.2161 7.98032 18.2896 7.94691 17.3565C7.93098 16.9116 7.92275 16.4553 7.92275 16C7.92275 15.5447 7.93098 15.0884 7.94691 14.6435C7.98084 13.7099 8.0492 12.7839 8.15046 11.8906C8.19158 11.5294 8.23784 11.1726 8.28975 10.8203C8.32213 10.5998 8.35708 10.3824 8.39358 10.1659C8.53184 9.34432 8.69838 8.55112 8.8937 7.79523C8.9194 7.69521 8.94613 7.59618 8.97285 7.49715C9.12346 6.9433 9.28948 6.40836 9.46887 5.90377C10.6752 2.50403 12.3961 0.55435 14.1905 0.55435C14.2953 0.55435 14.4007 0.561316 14.5056 0.574752C14.4768 0.593164 14.4485 0.612571 14.4197 0.631978C14.4064 0.640936 14.393 0.649395 14.3796 0.658352C14.3318 0.691195 14.2845 0.725033 14.2372 0.760365C14.228 0.767331 14.2187 0.774796 14.2095 0.781762C14.1715 0.810624 14.1339 0.839486 14.0959 0.869841C14.0794 0.882779 14.063 0.896713 14.0465 0.910148C14.0162 0.935029 13.9854 0.960408 13.9551 0.986782C13.9371 1.00221 13.9191 1.01813 13.9011 1.03406C13.8723 1.05943 13.844 1.08481 13.8152 1.11119C13.7967 1.12811 13.7788 1.14503 13.7608 1.16194C13.7325 1.18882 13.7037 1.21619 13.6754 1.24405C13.658 1.26147 13.6405 1.27839 13.623 1.2958C13.5927 1.32616 13.5629 1.35701 13.5331 1.38786C13.5176 1.40379 13.5022 1.41971 13.4873 1.43564C13.4488 1.47644 13.4107 1.51824 13.3727 1.56104C13.3665 1.568 13.3598 1.57497 13.3537 1.58194C13.309 1.6322 13.2648 1.68345 13.2211 1.7357C13.2087 1.75063 13.1964 1.76606 13.1835 1.78098C13.1522 1.8188 13.1208 1.85712 13.09 1.89594C13.0741 1.91584 13.0581 1.93674 13.0422 1.95664C13.0144 1.99198 12.9872 2.02731 12.96 2.06363C12.943 2.08603 12.9265 2.10842 12.9096 2.13081C12.8834 2.16664 12.8572 2.20247 12.8309 2.2388C12.8145 2.26218 12.7975 2.28507 12.7811 2.30846C12.7544 2.34628 12.7281 2.3846 12.7014 2.42341C12.686 2.4463 12.6706 2.4687 12.6546 2.49159C12.6253 2.53538 12.596 2.57967 12.5673 2.62445C12.5549 2.64336 12.5431 2.66128 12.5308 2.68019C12.4896 2.74438 12.449 2.80957 12.4084 2.87575C12.4043 2.88272 12.3997 2.89018 12.3956 2.89715C12.3596 2.95637 12.3241 3.01608 12.2887 3.07729C12.2753 3.10018 12.2625 3.12357 12.2491 3.14646C12.2229 3.19224 12.1967 3.23852 12.1704 3.28579C12.1555 3.31266 12.1406 3.34003 12.1257 3.3674C12.1016 3.41169 12.0774 3.45647 12.0533 3.50126C12.0378 3.53012 12.0229 3.55898 12.0075 3.58785C11.9839 3.63313 11.9602 3.67891 11.9371 3.72519C11.9222 3.75405 11.9078 3.78291 11.8929 3.81227C11.8687 3.86104 11.8446 3.9103 11.8204 3.96007C11.8071 3.98744 11.7942 4.01431 11.7808 4.04168C11.7521 4.10189 11.7238 4.1631 11.6955 4.2243C11.6873 4.24172 11.6796 4.25864 11.6714 4.27606C11.6354 4.35518 11.5994 4.43529 11.5639 4.51641C11.5547 4.5383 11.5454 4.5602 11.5357 4.58209C11.51 4.64181 11.4843 4.70202 11.4586 4.76323C11.4457 4.79408 11.4329 4.82493 11.4205 4.85578C11.3989 4.90903 11.3768 4.96227 11.3558 5.01602C11.3424 5.04986 11.3285 5.08419 11.3152 5.11853C11.2946 5.17078 11.2745 5.22303 11.254 5.27578C11.2406 5.31111 11.2273 5.34644 11.2139 5.38227C11.1938 5.43601 11.1738 5.49025 11.1538 5.54449C11.1409 5.57932 11.1281 5.61466 11.1152 5.64999C11.0941 5.70871 11.0731 5.76842 11.0525 5.82813C11.0417 5.85948 11.0304 5.89034 11.0196 5.92218C11.0175 5.92865 11.015 5.93512 11.0129 5.94159H11.0114L10.9281 6.19538C10.9281 6.19637 10.9276 6.19737 10.9271 6.19787L10.8376 6.47007H10.8397C10.6958 6.92837 10.5621 7.40609 10.4403 7.89625H10.4388L10.3699 8.18586C10.3699 8.18586 10.3699 8.18636 10.3699 8.18686L10.3108 8.43816H10.3118C10.1874 8.98703 10.0769 9.55482 9.98081 10.1316L9.96025 10.255C9.96025 10.2555 9.96025 10.256 9.96025 10.257C9.94226 10.3674 9.92478 10.4784 9.90782 10.5904C9.82353 11.1482 9.75208 11.7175 9.69451 12.2927C9.67601 12.4788 9.65905 12.6654 9.64363 12.8525L9.63232 12.9849C9.55265 13.9677 9.51255 14.9819 9.51255 15.9985C9.51255 16.1254 9.51307 16.2528 9.51461 16.3797C9.51615 16.513 9.51821 16.6464 9.52078 16.7798C9.5362 17.5332 9.57321 18.2816 9.63232 19.0121C9.63232 19.0141 9.63232 19.0166 9.63283 19.0186L9.64311 19.1445C9.70685 19.9098 9.79526 20.6687 9.90731 21.4066C9.92427 21.5181 9.94174 21.6291 9.95973 21.7401C9.95973 21.7425 9.96076 21.745 9.96076 21.748L9.97978 21.8655C9.98749 21.9122 9.99572 21.959 10.0034 22.0058C10.0939 22.5348 10.1967 23.0553 10.3108 23.5589H10.3098L10.3689 23.8102C10.3689 23.8102 10.3689 23.8107 10.3689 23.8112L10.4378 24.1013H10.4393C10.5606 24.5894 10.6942 25.0667 10.8387 25.527H10.8366L11.0104 26.0564H11.0119C11.0145 26.0629 11.0165 26.0694 11.0191 26.0763C11.0294 26.1062 11.0402 26.136 11.0504 26.1659C11.0715 26.2271 11.0931 26.2878 11.1147 26.348C11.127 26.3829 11.1399 26.4172 11.1522 26.4515C11.1723 26.5063 11.1923 26.561 11.2129 26.6152C11.2262 26.6506 11.2396 26.6859 11.253 26.7207C11.273 26.774 11.2936 26.8262 11.3141 26.8785C11.3275 26.9128 11.3409 26.9467 11.3547 26.9805C11.3763 27.0342 11.3979 27.0875 11.4195 27.1402C11.4323 27.1716 11.4452 27.2024 11.458 27.2333C11.4837 27.294 11.5094 27.3542 11.5351 27.4144C11.5444 27.4363 11.5536 27.4582 11.5634 27.4796C11.5989 27.5607 11.6343 27.6408 11.6708 27.72C11.6791 27.7374 11.6868 27.7548 11.695 27.7722C11.7233 27.8334 11.7515 27.8946 11.7803 27.9548C11.7932 27.9822 11.8065 28.0091 11.8194 28.036C11.8435 28.0857 11.8677 28.1355 11.8919 28.1842C11.9063 28.2136 11.9212 28.242 11.9356 28.2708C11.9592 28.3171 11.9828 28.3634 12.0065 28.4087C12.0214 28.4375 12.0363 28.4659 12.0512 28.4943C12.0754 28.54 12.1 28.5853 12.1242 28.6301C12.1386 28.657 12.1535 28.6834 12.1679 28.7097C12.1946 28.7575 12.2213 28.8048 12.2481 28.8521C12.2609 28.8739 12.2733 28.8963 12.2861 28.9182C12.3231 28.9819 12.3601 29.0446 12.3976 29.1063C12.4002 29.1108 12.4028 29.1153 12.4059 29.1198C12.4465 29.1865 12.4876 29.2521 12.5287 29.3168C12.54 29.3342 12.5508 29.3512 12.5621 29.3681C12.5919 29.4144 12.6223 29.4606 12.6526 29.5059C12.667 29.5278 12.6819 29.5492 12.6968 29.5706C12.724 29.6104 12.7513 29.6502 12.779 29.6895C12.795 29.7119 12.8104 29.7343 12.8263 29.7562C12.8536 29.794 12.8808 29.8314 12.908 29.8682C12.924 29.8896 12.9399 29.911 12.9558 29.9324C12.9841 29.9697 13.0124 30.0065 13.0412 30.0429C13.0561 30.0618 13.071 30.0812 13.0859 30.1001C13.1183 30.1409 13.1512 30.1812 13.1841 30.221C13.1949 30.2344 13.2056 30.2479 13.217 30.2608C13.2612 30.3136 13.3059 30.3658 13.3511 30.4166C13.3552 30.4215 13.3598 30.426 13.364 30.4305C13.404 30.4758 13.4447 30.5196 13.4853 30.5629C13.4991 30.5778 13.5135 30.5922 13.5279 30.6072C13.5588 30.6395 13.5901 30.6719 13.6215 30.7032C13.6379 30.7201 13.6549 30.736 13.6713 30.7525C13.7006 30.7813 13.7299 30.8097 13.7592 30.8371C13.7767 30.8535 13.7942 30.8699 13.8117 30.8858C13.841 30.9127 13.8702 30.9391 13.9001 30.9654C13.9175 30.9809 13.9345 30.9958 13.952 31.0107C13.9833 31.0376 14.0147 31.064 14.046 31.0894C14.0615 31.1023 14.0769 31.1152 14.0928 31.1277C14.1319 31.159 14.1715 31.1894 14.211 31.2192C14.2187 31.2252 14.2265 31.2312 14.2342 31.2371C14.2814 31.2725 14.3292 31.3068 14.3776 31.3397C14.3904 31.3486 14.4033 31.3566 14.4161 31.365C14.4449 31.3844 14.4737 31.4043 14.503 31.4228C14.3981 31.4362 14.2928 31.4427 14.1879 31.4427L14.1905 31.4447ZM15.9129 30.8351C15.8908 30.851 15.8692 30.8664 15.8471 30.8818C15.8234 30.8983 15.7993 30.9137 15.7756 30.9296C15.7535 30.944 15.7314 30.959 15.7093 30.9729C15.6857 30.9878 15.6615 31.0023 15.6374 31.0167C15.6153 31.0301 15.5927 31.0436 15.5706 31.056C15.5464 31.0695 15.5222 31.0824 15.4981 31.0953C15.4755 31.1073 15.4529 31.1197 15.4308 31.1312C15.4066 31.1436 15.3824 31.155 15.3583 31.1665C15.3357 31.1774 15.313 31.1884 15.2904 31.1983C15.2848 31.2008 15.2791 31.2033 15.2735 31.2058C15.2673 31.2033 15.2616 31.2008 15.2555 31.1978C15.2354 31.1889 15.2154 31.1789 15.1953 31.1695C15.1691 31.157 15.1429 31.1446 15.1167 31.1312C15.0961 31.1207 15.0761 31.1098 15.0555 31.0988C15.0298 31.0849 15.0041 31.0714 14.9789 31.057C14.9584 31.0456 14.9378 31.0331 14.9173 31.0212C14.8921 31.0063 14.8669 30.9913 14.8417 30.9754C14.8211 30.9625 14.8006 30.949 14.78 30.9361C14.7554 30.9197 14.7302 30.9032 14.7055 30.8863C14.6849 30.8724 14.6644 30.858 14.6443 30.8435C14.6197 30.8261 14.595 30.8082 14.5708 30.7898C14.5503 30.7744 14.5297 30.7589 14.5097 30.7435C14.4855 30.7246 14.4613 30.7057 14.4372 30.6858C14.4166 30.6694 14.3966 30.6529 14.3765 30.636C14.3524 30.6161 14.3282 30.5952 14.3046 30.5743C14.2845 30.5569 14.2645 30.5395 14.2444 30.5216C14.2203 30.5002 14.1966 30.4778 14.1725 30.4559C14.1524 30.4375 14.1329 30.4191 14.1129 30.4001C14.0887 30.3773 14.0651 30.3534 14.0414 30.3295C14.0219 30.3101 14.0023 30.2912 13.9833 30.2713C13.9592 30.2464 13.935 30.221 13.9109 30.1956C13.8918 30.1757 13.8733 30.1558 13.8543 30.1354C13.8296 30.1085 13.805 30.0807 13.7803 30.0528C13.7623 30.0329 13.7443 30.013 13.7268 29.9926C13.7006 29.9622 13.6744 29.9309 13.6482 29.8995C13.6323 29.8806 13.6163 29.8622 13.6009 29.8428C13.567 29.801 13.5331 29.7582 13.4997 29.7154C13.4919 29.7055 13.4842 29.696 13.4765 29.6861C13.4354 29.6333 13.3948 29.5791 13.3547 29.5238C13.3398 29.5034 13.3244 29.4815 13.3095 29.4606C13.2838 29.4253 13.2586 29.39 13.2329 29.3537C13.2154 29.3288 13.1985 29.3034 13.1815 29.278C13.1584 29.2447 13.1357 29.2113 13.1131 29.177C13.0951 29.1501 13.0771 29.1223 13.0597 29.0944C13.0381 29.0611 13.0165 29.0277 12.9949 28.9934C12.9769 28.9645 12.9589 28.9352 12.9404 28.9058C12.9193 28.872 12.8983 28.8381 12.8777 28.8033C12.8597 28.7729 12.8417 28.7426 12.8237 28.7117C12.8032 28.6769 12.7826 28.6421 12.7626 28.6067C12.7446 28.5754 12.7266 28.5435 12.7091 28.5117C12.6891 28.4759 12.669 28.44 12.649 28.4037C12.631 28.3709 12.6135 28.338 12.5955 28.3052C12.576 28.2683 12.5565 28.2315 12.5369 28.1947C12.5195 28.1609 12.502 28.127 12.4845 28.0927C12.465 28.0549 12.446 28.017 12.4269 27.9787C12.4095 27.9439 12.3925 27.9096 12.375 27.8742C12.356 27.8354 12.337 27.7961 12.318 27.7563C12.301 27.721 12.284 27.6851 12.2671 27.6493C12.2481 27.609 12.2296 27.5682 12.2111 27.5274C12.1946 27.4911 12.1782 27.4552 12.1617 27.4184C12.1432 27.3766 12.1247 27.3343 12.1062 27.292C12.0903 27.2552 12.0743 27.2189 12.0584 27.1815C12.0399 27.1382 12.0214 27.094 12.0029 27.0502C11.9875 27.0133 11.972 26.9765 11.9566 26.9387C11.9381 26.8934 11.9196 26.8471 11.9011 26.8009C11.8862 26.764 11.8713 26.7272 11.8569 26.6899C11.8379 26.6416 11.8194 26.5929 11.8009 26.5441C11.787 26.5078 11.7731 26.4714 11.7592 26.4351C11.7397 26.3829 11.7202 26.3296 11.7012 26.2769C11.6888 26.2425 11.676 26.2087 11.6636 26.1744C11.6415 26.1122 11.6194 26.049 11.5973 25.9858C11.5881 25.9599 11.5788 25.9345 11.5701 25.9081C11.5696 25.9066 11.5691 25.9051 11.5686 25.9036C11.5768 25.9012 11.5855 25.8987 11.5937 25.8962C11.7402 25.8539 11.8867 25.8106 12.0342 25.7653C12.0348 25.7653 12.0353 25.7653 12.0358 25.7648C12.1828 25.72 12.3298 25.6733 12.4778 25.6255C12.4917 25.621 12.5051 25.6165 12.5189 25.612C12.6598 25.5663 12.8011 25.5195 12.9425 25.4712C12.963 25.4642 12.9836 25.4573 13.0047 25.4503C13.1429 25.403 13.2812 25.3548 13.42 25.305C13.4436 25.2966 13.4668 25.2881 13.4904 25.2796C13.6287 25.2299 13.7669 25.1791 13.9057 25.1274C13.9288 25.1184 13.9525 25.1099 13.9761 25.101C14.1159 25.0482 14.2563 24.9945 14.3971 24.9393C14.4177 24.9313 14.4377 24.9233 14.4583 24.9154C14.6027 24.8586 14.7476 24.8009 14.8926 24.7417C14.906 24.7362 14.9198 24.7303 14.9332 24.7248C15.0473 24.678 15.1614 24.6307 15.2755 24.5825C16.5348 25.1139 17.7797 25.5573 18.982 25.9032C18.9815 25.9051 18.9804 25.9076 18.9799 25.9096C18.9702 25.9375 18.9604 25.9649 18.9506 25.9922C18.9285 26.0549 18.9069 26.1181 18.8848 26.1798C18.8725 26.2142 18.8596 26.2475 18.8473 26.2818C18.8273 26.3361 18.8077 26.3908 18.7877 26.4446C18.7738 26.4809 18.7599 26.5162 18.7466 26.5525C18.727 26.6028 18.708 26.6536 18.6885 26.7033C18.6741 26.7401 18.6592 26.7765 18.6448 26.8128C18.6258 26.8606 18.6068 26.9088 18.5872 26.9556C18.5723 26.9924 18.5569 27.0283 18.5415 27.0646C18.5225 27.1104 18.5029 27.1567 18.4834 27.2019C18.468 27.2383 18.452 27.2736 18.4361 27.3094C18.4166 27.3537 18.397 27.3985 18.3775 27.4418C18.3616 27.4771 18.3451 27.5125 18.3292 27.5473C18.3097 27.5901 18.2901 27.6334 18.2701 27.6757C18.2536 27.7105 18.2372 27.7448 18.2202 27.7792C18.2002 27.8205 18.1807 27.8618 18.1606 27.9026C18.1436 27.9369 18.1267 27.9708 18.1097 28.0046C18.0897 28.0444 18.0696 28.0842 18.0496 28.1235C18.0321 28.1574 18.0146 28.1902 17.9972 28.2236C17.9771 28.2619 17.9565 28.3002 17.9365 28.338C17.9185 28.3709 17.901 28.4032 17.883 28.4355C17.8625 28.4724 17.8419 28.5097 17.8214 28.546C17.8034 28.5779 17.7854 28.6092 17.7669 28.6406C17.7463 28.6764 17.7252 28.7122 17.7047 28.7476C17.6862 28.7784 17.6677 28.8088 17.6492 28.8391C17.6281 28.8734 17.6075 28.9083 17.5865 28.9421C17.568 28.972 17.5489 29.0018 17.5299 29.0312C17.5089 29.0645 17.4878 29.0974 17.4662 29.1302C17.4472 29.1591 17.4282 29.1879 17.4091 29.2163C17.3876 29.2482 17.3665 29.28 17.3449 29.3114C17.3254 29.3392 17.3063 29.3671 17.2868 29.3945C17.2652 29.4253 17.2436 29.4557 17.222 29.4855C17.2025 29.5124 17.183 29.5393 17.1629 29.5656C17.1413 29.595 17.1192 29.6239 17.0971 29.6527C17.0771 29.6786 17.057 29.7045 17.0375 29.7299C17.0154 29.7577 16.9933 29.7856 16.9712 29.813C16.9512 29.8378 16.9311 29.8622 16.9106 29.8866C16.8885 29.9135 16.8658 29.9399 16.8437 29.9662C16.8232 29.9901 16.8031 30.0135 16.7826 30.0369C16.76 30.0623 16.7379 30.0876 16.7152 30.1125C16.6947 30.1354 16.6741 30.1578 16.653 30.1797C16.6304 30.2041 16.6078 30.2275 16.5852 30.2514C16.5641 30.2728 16.5436 30.2942 16.5225 30.3156C16.4999 30.3384 16.4767 30.3608 16.4536 30.3832C16.4325 30.4036 16.4115 30.424 16.3904 30.4439C16.3673 30.4653 16.3441 30.4867 16.321 30.5076C16.2994 30.527 16.2783 30.546 16.2567 30.5649C16.2336 30.5853 16.2105 30.6047 16.1868 30.6246C16.1653 30.643 16.1437 30.6609 16.1221 30.6783C16.099 30.6972 16.0753 30.7156 16.0517 30.7341C16.0301 30.751 16.008 30.7679 15.9864 30.7843C15.9627 30.8017 15.9391 30.8191 15.9155 30.8361L15.9129 30.8351ZM21.5864 24.4506C21.5561 24.5641 21.5242 24.676 21.4929 24.7875C21.3639 25.2403 21.2246 25.6787 21.077 26.0957L21.076 26.0982C19.8697 29.496 18.1493 31.4442 16.3554 31.4442C16.2506 31.4442 16.1457 31.4372 16.0404 31.4243C16.0691 31.4058 16.0974 31.3864 16.1262 31.367C16.1396 31.3581 16.1529 31.3496 16.1658 31.3407C16.2136 31.3078 16.2609 31.2735 16.3087 31.2386C16.3174 31.2322 16.3261 31.2252 16.3349 31.2187C16.3734 31.1894 16.412 31.16 16.4505 31.1292C16.4665 31.1162 16.4824 31.1028 16.4983 31.0899C16.5292 31.0645 16.5605 31.0386 16.5914 31.0117C16.6088 30.9968 16.6263 30.9814 16.6438 30.9659C16.6731 30.9401 16.7024 30.9137 16.7317 30.8868C16.7492 30.8704 16.7672 30.854 16.7846 30.8376C16.8139 30.8102 16.8432 30.7818 16.872 30.7535C16.889 30.737 16.9054 30.7206 16.9224 30.7037C16.9537 30.6723 16.9846 30.6405 17.0154 30.6077C17.0298 30.5927 17.0437 30.5783 17.0581 30.5634C17.0992 30.5201 17.1398 30.4753 17.1804 30.43C17.1845 30.4255 17.1886 30.4215 17.1922 30.4171C17.2375 30.3663 17.2822 30.3146 17.3264 30.2613C17.3372 30.2484 17.348 30.2349 17.3593 30.2215C17.3922 30.1817 17.4251 30.1414 17.458 30.1001C17.4729 30.0817 17.4873 30.0623 17.5022 30.0434C17.531 30.0065 17.5597 29.9697 17.588 29.9319C17.6039 29.911 17.6194 29.8896 17.6353 29.8687C17.6625 29.8314 17.6903 29.794 17.7175 29.7562C17.733 29.7343 17.7489 29.7124 17.7643 29.6905C17.7921 29.6507 17.8198 29.6109 17.8476 29.5701C17.862 29.5492 17.8764 29.5283 17.8908 29.5069C17.9216 29.4606 17.9524 29.4139 17.9828 29.3666C17.9936 29.3502 18.0038 29.3342 18.0146 29.3178C18.0563 29.2526 18.0974 29.187 18.138 29.1198C18.1395 29.1168 18.1416 29.1138 18.1431 29.1113C18.1817 29.0481 18.2197 28.9834 18.2578 28.9182C18.2696 28.8973 18.2819 28.8764 18.2937 28.855C18.3215 28.8068 18.3487 28.7585 18.376 28.7092C18.3899 28.6839 18.4042 28.658 18.4181 28.6326C18.4433 28.5868 18.4685 28.5405 18.4932 28.4938C18.5076 28.4664 18.5219 28.439 18.5363 28.4112C18.5605 28.3644 18.5852 28.3171 18.6088 28.2698C18.6227 28.242 18.6371 28.2146 18.651 28.1862C18.6761 28.136 18.7008 28.0847 18.7255 28.034C18.7378 28.0081 18.7507 27.9827 18.763 27.9568C18.7928 27.8941 18.8226 27.8304 18.8519 27.7667C18.8586 27.7518 18.8658 27.7374 18.8725 27.722C18.909 27.6423 18.945 27.5617 18.9804 27.4801C18.9892 27.4607 18.9974 27.4408 19.0056 27.4209C19.0324 27.3587 19.0591 27.2965 19.0853 27.2338C19.0976 27.2039 19.11 27.1741 19.1223 27.1437C19.1444 27.0895 19.1665 27.0352 19.1886 26.9805C19.202 26.9472 19.2148 26.9138 19.2282 26.8805C19.2493 26.8272 19.2698 26.774 19.2904 26.7202C19.3037 26.6859 19.3166 26.6511 19.3294 26.6167C19.35 26.562 19.3706 26.5063 19.3906 26.4505C19.4029 26.4167 19.4153 26.3834 19.4276 26.3495C19.4497 26.2888 19.4708 26.2271 19.4924 26.1654C19.5027 26.136 19.5129 26.1072 19.5232 26.0778C19.5258 26.0708 19.5278 26.0644 19.5304 26.0574H19.532L19.6163 25.8011C19.7931 25.2617 19.9565 24.6914 20.103 24.1023H20.1046L20.1734 23.8121C20.1924 23.7315 20.2115 23.6504 20.23 23.5688C20.2361 23.5409 20.2423 23.5126 20.2485 23.4847C20.2603 23.431 20.2726 23.3772 20.2845 23.323C20.2916 23.2892 20.2988 23.2548 20.306 23.221C20.3163 23.1722 20.3266 23.1239 20.3369 23.0747C20.3446 23.0379 20.3518 23.001 20.3595 22.9637C20.3688 22.9174 20.3785 22.8707 20.3878 22.8244C20.3955 22.7861 20.4032 22.7472 20.4104 22.7084C20.4191 22.6631 20.4284 22.6174 20.4366 22.5716C20.4443 22.5323 20.4515 22.4925 20.4587 22.4531C20.4669 22.4079 20.4757 22.3626 20.4839 22.3168C20.4911 22.277 20.4983 22.2367 20.5055 22.1969C20.5137 22.1511 20.5214 22.1058 20.5296 22.06C20.5363 22.0202 20.543 21.9809 20.5502 21.9411C20.5543 21.9162 20.5589 21.8918 20.563 21.8669C20.5846 21.8535 20.6062 21.8401 20.6278 21.8266C20.7357 21.7605 20.8432 21.6943 20.9501 21.6276C20.9784 21.6102 21.0066 21.5928 21.0344 21.5748C21.1644 21.4932 21.2939 21.4106 21.4224 21.3275C21.4523 21.3086 21.4816 21.2892 21.5109 21.2703C21.6183 21.2006 21.7252 21.1305 21.8311 21.0603C21.8604 21.0409 21.8897 21.0215 21.919 21.0021C22.0475 20.9165 22.1744 20.8309 22.3009 20.7443C22.306 20.7408 22.3112 20.7374 22.3163 20.7339C22.2988 20.8647 22.2813 20.9951 22.2623 21.1245C22.2592 21.1444 22.2567 21.1643 22.2541 21.1842C22.2299 21.3479 22.2048 21.5102 22.1785 21.6719C22.1698 21.7241 22.1611 21.7759 22.1523 21.8276C22.1338 21.9376 22.1153 22.0476 22.0958 22.1566C22.085 22.2178 22.0737 22.278 22.0624 22.3387C22.0439 22.4382 22.0249 22.5377 22.0058 22.6368C21.9935 22.699 21.9812 22.7612 21.9688 22.8234C21.9488 22.9214 21.9287 23.0189 21.9077 23.1155C21.8948 23.1752 21.8825 23.2344 21.8691 23.2936C21.846 23.3976 21.8223 23.5006 21.7982 23.6036C21.7864 23.6534 21.7751 23.7042 21.7632 23.7534C21.7267 23.9047 21.6897 24.055 21.6517 24.2038C21.6301 24.2864 21.6085 24.369 21.5864 24.4506ZM28.548 24.6292C27.6778 26.0893 25.1998 26.5734 21.7237 25.9718C21.7278 25.9589 21.7319 25.9459 21.7365 25.933C21.7756 25.8161 21.8146 25.6981 21.8522 25.5782C21.8522 25.5777 21.8522 25.5767 21.8527 25.5762C21.8907 25.4558 21.9277 25.3339 21.9642 25.2115C21.9709 25.1891 21.9776 25.1672 21.9843 25.1448C22.0192 25.0263 22.0536 24.9064 22.0871 24.786C22.0932 24.7631 22.0999 24.7402 22.1061 24.7173C22.1169 24.6775 22.1282 24.6377 22.139 24.5974C23.3541 24.8402 24.4715 24.9612 25.4687 24.9612C26.7639 24.9612 27.8536 24.7566 28.6878 24.3531C28.6472 24.4481 28.601 24.5407 28.5485 24.6287L28.548 24.6292ZM28.8749 23.6027C27.5827 24.4914 25.2548 24.6521 22.2777 24.059C22.2865 24.0236 22.2947 23.9878 22.3029 23.9525C22.3112 23.9191 22.3194 23.8863 22.3276 23.853C22.3363 23.8156 22.3446 23.7778 22.3533 23.74C22.3734 23.6549 22.3929 23.5698 22.4119 23.4842C22.4212 23.4424 22.4309 23.4011 22.4402 23.3593C22.4474 23.326 22.4546 23.2916 22.4618 23.2578C22.4797 23.1747 22.4972 23.0911 22.5142 23.0075C22.5245 22.9572 22.5353 22.907 22.5455 22.8562C22.5512 22.8274 22.5568 22.798 22.5625 22.7691C22.579 22.687 22.5944 22.6039 22.6098 22.5213C22.6211 22.4626 22.6324 22.4044 22.6432 22.3452C22.6473 22.3213 22.6519 22.2974 22.656 22.2735C22.671 22.1909 22.6848 22.1078 22.6992 22.0247C22.7105 21.9585 22.7224 21.8928 22.7331 21.8261C22.7362 21.8077 22.7393 21.7898 22.7424 21.7714C22.7563 21.6863 22.7691 21.6007 22.7825 21.5151C22.7933 21.446 22.8041 21.3773 22.8144 21.3081C22.8164 21.2932 22.819 21.2788 22.821 21.2638C22.8252 21.2345 22.8293 21.2051 22.8334 21.1758C22.8426 21.1101 22.8519 21.0444 22.8606 20.9787C22.8688 20.9195 22.8776 20.8613 22.8853 20.802C22.8879 20.7841 22.8899 20.7662 22.8925 20.7483C22.9007 20.6871 22.9079 20.6249 22.9156 20.5637C22.9269 20.4726 22.9388 20.382 22.9495 20.2905C22.9696 20.2761 22.9896 20.2616 23.0097 20.2472C23.0487 20.2188 23.0878 20.191 23.1269 20.1626C23.1634 20.1362 23.1999 20.1094 23.2364 20.083C23.2718 20.0571 23.3073 20.0312 23.3422 20.0054C23.3515 19.9989 23.3607 19.9919 23.3695 19.9854C23.3998 19.9631 23.4301 19.9407 23.4599 19.9183C23.4959 19.8914 23.5324 19.8645 23.5684 19.8377C23.6064 19.8093 23.644 19.7809 23.6815 19.7526C23.7067 19.7336 23.7324 19.7142 23.7576 19.6953C23.7617 19.6923 23.7658 19.6889 23.7699 19.6859C23.775 19.6819 23.7807 19.6779 23.7858 19.6734C23.8244 19.6441 23.8624 19.6147 23.901 19.5854C23.9344 19.5595 23.9678 19.5341 24.0012 19.5082C24.0403 19.4784 24.0788 19.448 24.1174 19.4182C24.1209 19.4152 24.1251 19.4122 24.1287 19.4092C24.1405 19.3997 24.1528 19.3903 24.1646 19.3808C24.1811 19.3679 24.1975 19.355 24.214 19.342C24.253 19.3112 24.2921 19.2803 24.3307 19.25C24.362 19.2251 24.3934 19.2002 24.4242 19.1753C24.454 19.1514 24.4838 19.127 24.5142 19.1032C24.5296 19.0907 24.545 19.0783 24.5609 19.0658C24.5851 19.0464 24.6087 19.027 24.6324 19.0081C24.672 18.9758 24.711 18.9439 24.7506 18.9116C24.7799 18.8877 24.8092 18.8638 24.838 18.8399C24.858 18.8235 24.8776 18.8071 24.8976 18.7907C24.912 18.7787 24.9259 18.7673 24.9398 18.7553C24.9454 18.7508 24.9505 18.7464 24.9557 18.7419C24.984 18.718 25.0122 18.6946 25.0405 18.6707C25.0801 18.6374 25.1191 18.6045 25.1582 18.5712C25.186 18.5478 25.2137 18.5244 25.241 18.501C25.2517 18.4921 25.262 18.4831 25.2728 18.4737C25.2805 18.4667 25.2888 18.4602 25.2965 18.4533C25.3181 18.4349 25.3391 18.4164 25.3607 18.398C25.3864 18.3756 25.4126 18.3532 25.4378 18.3314C25.4789 18.2955 25.519 18.2602 25.5596 18.2244C25.5838 18.203 25.6085 18.1816 25.6321 18.1602C25.6321 18.1602 25.6331 18.1597 25.6331 18.1592C25.6342 18.1582 25.6357 18.1567 25.6372 18.1557C25.6773 18.1199 25.7174 18.084 25.757 18.0487C25.7791 18.0288 25.8017 18.0089 25.8233 17.989C25.8686 17.9482 25.9128 17.9079 25.9575 17.8671L25.9626 17.8626C25.9693 17.8561 25.9765 17.8502 25.9837 17.8437C28.0032 20.0437 29.023 22.0755 28.8739 23.6031L28.8749 23.6027ZM29.63 22.8149C29.5776 22.903 29.5179 22.9876 29.4537 23.0687C29.3535 21.4748 28.2931 19.5197 26.3969 17.4575C26.4108 17.4446 26.4242 17.4312 26.4381 17.4182C26.4761 17.3814 26.5146 17.3451 26.5522 17.3082C26.5753 17.2859 26.5984 17.2635 26.6216 17.2406C26.657 17.2062 26.692 17.1714 26.7269 17.1366C26.7501 17.1137 26.7727 17.0913 26.7953 17.0684C26.8313 17.0321 26.8672 16.9962 26.9032 16.9599C26.9238 16.939 26.9443 16.9186 26.9644 16.8977C27.0107 16.8504 27.0569 16.8032 27.1027 16.7559C27.1114 16.7464 27.1207 16.7375 27.1299 16.728C27.1834 16.6728 27.2358 16.6171 27.2882 16.5618C27.3077 16.5409 27.3273 16.52 27.3468 16.4996C27.371 16.4737 27.3956 16.4479 27.4198 16.422C29.6953 19.035 30.5012 21.3549 29.631 22.8149H29.63Z" fill="#808080"/>
<path d="M44.2477 17.0817H40.5368L45.4783 10.903V10.6977L40.5368 4.57504H44.2477L47.8071 9.03637H48.0154L51.4423 4.57504H55.1532L50.2306 10.7537V10.959L55.1532 17.0817H51.4423L47.9018 12.5644H47.6935L44.2477 17.0817Z" fill="#808080"/>
<path d="M59.0291 17.0817H56.1891V4.57504H62.8157C65.7504 4.57504 67.6437 6.21771 67.6437 9.09237C67.6437 11.967 65.7504 13.6284 62.8157 13.6284H59.0291V17.0817ZM62.5128 7.09504H59.0291V11.1084H62.5128C64.0842 11.1084 64.8226 10.6604 64.8226 9.09237C64.8226 7.5617 64.0842 7.09504 62.5128 7.09504Z" fill="#808080"/>
<path d="M71.8696 17.0817H69.0296V4.57504H76.0349C79.1588 4.57504 80.9385 5.93771 80.9385 8.32704C80.9385 10.3617 79.7457 11.575 77.3602 11.799V11.9484C78.4962 12.247 78.9316 12.8444 79.405 13.7217L81.2415 17.0817H77.9471L76.2053 13.8337C75.6941 12.863 75.2207 12.5457 73.744 12.5457H71.8696V17.0817ZM71.8696 7.09504V10.4364H76.0159C77.3602 10.4364 77.966 10.063 77.966 8.75637C77.966 7.52437 77.3602 7.09504 76.0159 7.09504H71.8696Z" fill="#808080"/>
<path d="M88.4973 16.9717H86.4525V4.46501H88.6487L94.3287 11.7823L95.9758 14.1157H96.1273L96.0326 11.857V4.46501H98.0774V16.9717H95.8812L90.1634 9.67301L88.573 7.47035H88.4215L88.4973 9.63568V16.9717Z" fill="#808080"/>
<path d="M104.891 17.1583C101.805 17.1583 99.7789 15.441 99.7789 12.3423C99.7789 9.44901 101.786 7.50768 104.853 7.50768C107.769 7.50768 109.757 9.09435 109.757 11.913C109.757 12.249 109.738 12.5103 109.681 12.7903H101.691C101.767 14.5823 102.657 15.5343 104.834 15.5343C106.803 15.5343 107.617 14.8997 107.617 13.7983V13.649H109.662V13.817C109.662 15.7957 107.693 17.1583 104.891 17.1583ZM104.815 9.09435C102.732 9.09435 101.824 10.009 101.71 11.6703H107.825V11.633C107.825 9.91568 106.822 9.09435 104.815 9.09435Z" fill="#808080"/>
<path d="M117.65 16.9717H115.491C113.465 16.9717 112.216 16.0943 112.216 13.8357V9.37435H110.625V7.69435H112.216V5.65968H114.242V7.69435H117.65V9.37435H114.242V13.7237C114.242 14.8623 114.772 15.161 115.946 15.161H117.65V16.9717Z" fill="#808080"/>
<path d="M123.624 16.9717H121.087L118.266 7.69435H120.387L121.958 12.9583L122.393 15.3477H122.545L123.245 12.7717L125.214 7.69435H127.827L129.815 12.7717L130.516 15.3477H130.667L131.103 12.9583L132.674 7.69435H134.757L131.898 16.9717H129.361L127.297 11.633L126.578 9.35568H126.426L125.707 11.633L123.624 16.9717Z" fill="#808080"/>
<path d="M140.794 17.1583C137.67 17.1583 135.568 15.1983 135.568 12.3423C135.568 9.44901 137.67 7.50768 140.794 7.50768C143.937 7.50768 146.038 9.44901 146.038 12.3423C146.038 15.1983 143.937 17.1583 140.794 17.1583ZM140.794 15.3663C143.085 15.3663 144.031 14.3023 144.031 12.3423C144.031 10.3637 143.085 9.28101 140.794 9.28101C138.522 9.28101 137.575 10.3637 137.575 12.3423C137.575 14.3023 138.522 15.3663 140.794 15.3663Z" fill="#808080"/>
<path d="M149.756 16.9717H147.711V7.69435H149.586V10.1957H149.718C150.002 8.70235 151.025 7.50768 152.956 7.50768C155.095 7.50768 156.023 9.01968 156.023 10.7743V11.9877H153.997V11.1663C153.997 9.84101 153.429 9.22501 152.028 9.22501C150.419 9.22501 149.756 10.1023 149.756 11.7637V16.9717Z" fill="#808080"/>
<path d="M159.541 16.9717H157.497V4.46501H159.541V11.3717H162.23L165.051 7.69435H167.437L163.896 12.1557L167.418 16.9717H165.013L162.23 13.1823H159.541V16.9717Z" fill="#808080"/>
<path d="M41.9669 27.695H41.0541V22.1117H42.0346L44.5702 25.3783L45.3056 26.42H45.3732L45.3309 25.4117V22.1117H46.2438V27.695H45.2633L42.7107 24.4367L42.0007 23.4533H41.9331L41.9669 24.42V27.695Z" fill="#808080"/>
<path d="M48.3388 27.695H47.426V22.1117H51.931V22.92H48.3388V24.6533H51.8043V25.4533H48.3388V27.695Z" fill="#808080"/>
<path d="M55.7623 27.695H54.8579V22.92H52.6265V22.1117H57.9852V22.92H55.7623V27.695Z" fill="#808080"/>
<path d="M61.5528 27.695H60.6399V22.1117H61.8824L63.5137 25.345L64.0293 26.5033H64.0969L64.5956 25.345L66.21 22.1117H67.4524V27.695H66.5396V24.27L66.5734 23.4617H66.5058L66.1592 24.27L64.5956 27.3617H63.4968L61.9331 24.27L61.5866 23.4617H61.519L61.5528 24.27V27.695Z" fill="#808080"/>
<path d="M69.2295 27.695H68.2153L70.7425 22.1117H72.0272L74.5545 27.695H73.5233L72.8725 26.245H69.8804L69.2295 27.695ZM71.013 23.7367L70.2438 25.4367H72.509L71.7399 23.7367L71.4102 22.945H71.3426L71.013 23.7367Z" fill="#808080"/>
<path d="M76.228 27.695H75.3152V22.1117H78.2566C79.5413 22.1117 80.3358 22.7117 80.3358 23.7533C80.3358 24.6783 79.7188 25.245 78.6538 25.3033V25.3617C79.0933 25.4783 79.2962 25.7283 79.499 26.0783L80.4457 27.695H79.3976L78.4932 26.1533C78.2397 25.7117 77.9776 25.5283 77.2676 25.5283H76.228V27.695ZM76.228 22.92V24.8367H78.2481C79.0088 24.8367 79.3892 24.5783 79.3892 23.8783C79.3892 23.195 79.0088 22.92 78.2481 22.92H76.228Z" fill="#808080"/>
<path d="M82.245 27.695H81.3321V22.1117H82.245V24.495H83.9608L85.6174 22.1117H86.6993L84.7215 24.87L86.6909 27.695H85.609L83.9777 25.3617H82.245V27.695Z" fill="#808080"/>
<path d="M92.0528 27.695H87.5224V22.1117H92.0528V22.92H88.4353V24.4867H91.9261V25.2867H88.4353V26.8867H92.0528V27.695Z" fill="#808080"/>
<path d="M95.9165 27.695H95.0121V22.92H92.7807V22.1117H98.1395V22.92H95.9165V27.695Z" fill="#808080"/>
</svg>
